<?xml version="1.0" standalone="no"?>
<!DOCTYPE svg PUBLIC "-//W3C//DTD SVG 1.1//EN" "http://www.w3.org/Graphics/SVG/1.1/DTD/svg11.dtd" >
<svg xmlns="http://www.w3.org/2000/svg" xmlns:xlink="http://www.w3.org/1999/xlink" version="1.1">
<metadata>
Created by FontForge 20161003 at Wed Oct 25 01:00:02 2017
 By www-data
My Imaginary Friend (c) (MeanStreak). 2016. All Rights Reserved
</metadata>
<defs>
<font id="MyImaginaryFriend" horiz-adv-x="1014" >
  <font-face 
    font-family="My Imaginary Friend"
    font-weight="400"
    font-stretch="normal"
    units-per-em="2048"
    panose-1="2 0 5 0 0 0 0 0 0 0"
    ascent="1638"
    descent="-410"
    x-height="1311"
    cap-height="1423"
    bbox="-140 -362 1383 1536"
    underline-thickness="150"
    underline-position="-292"
    unicode-range="U+0020-F002"
  />
<missing-glyph horiz-adv-x="1024" 
d="M100 0v1434h824v-1434h-824zM150 50h724v1334h-724v-1334zM325 1148q31 28 58 43q53 30 112 30q92 0 148 -47.5t56 -127.5q0 -49 -23 -98.5t-87 -129.5q-63 -80 -99 -132t-36 -99q0 -38 24 -133h-32q-35 97 -35 148q0 76 81.5 218t81.5 217q0 57 -33 90t-91 33
q-38 0 -69 -17q-26 -15 -56 -40v45zM389 334l57 58q11 10 20 10q10 0 22 -11l56 -60q9 -11 9 -20q0 -11 -10 -22l-56 -62q-14 -14 -21 -14q-11 0 -20 10l-61 71q-7 9 -7 18q0 10 11 22z" />
    <glyph glyph-name=".notdef" horiz-adv-x="1024" 
d="M100 0v1434h824v-1434h-824zM150 50h724v1334h-724v-1334zM325 1148q31 28 58 43q53 30 112 30q92 0 148 -47.5t56 -127.5q0 -49 -23 -98.5t-87 -129.5q-63 -80 -99 -132t-36 -99q0 -38 24 -133h-32q-35 97 -35 148q0 76 81.5 218t81.5 217q0 57 -33 90t-91 33
q-38 0 -69 -17q-26 -15 -56 -40v45zM389 334l57 58q11 10 20 10q10 0 22 -11l56 -60q9 -11 9 -20q0 -11 -10 -22l-56 -62q-14 -14 -21 -14q-11 0 -20 10l-61 71q-7 9 -7 18q0 10 11 22z" />
    <glyph glyph-name=".null" horiz-adv-x="0" 
 />
    <glyph glyph-name="nonmarkingreturn" horiz-adv-x="508" 
 />
    <glyph glyph-name="space" unicode=" " horiz-adv-x="508" 
 />
    <glyph glyph-name="space" unicode="&#xa0;" horiz-adv-x="508" 
 />
    <glyph glyph-name="exclam" unicode="!" horiz-adv-x="492" 
d="M336 1416q76 -9 76 -28q-33 -118 -55 -321q44 -166 55 -322l-22 -37q22 -36 22 -101v-65q0 -18 -22 -18q-27 0 -33 37h-10v-28q0 -16 54 -119q0 -19 -22 -19h-11q-87 39 -108 570l-11 19l43 138q0 67 -32 174q10 0 10 10q-10 0 -10 9l-22 -9h-11v9q16 37 33 37h10
q33 0 33 -37h11q0 87 22 101zM314 828v-83q3 -19 22 -19v83q0 19 -22 19zM325 671v-27h22v9q0 18 -22 18zM336 625v-55l21 9q-10 16 -10 46h-11zM444 175q33 -34 33 -65q-25 -110 -98 -110l-32 46v9q0 9 10 9l-10 19q15 92 97 92zM401 120v-10h22v28q-22 -3 -22 -18zM379 83
v-28h22v28h-22z" />
    <glyph glyph-name="quotedbl" unicode="&#x22;" horiz-adv-x="672" 
 />
    <glyph glyph-name="numbersign" unicode="#" horiz-adv-x="1336" 
 />
    <glyph glyph-name="dollar" unicode="$" 
 />
    <glyph glyph-name="percent" unicode="%" horiz-adv-x="1610" 
 />
    <glyph glyph-name="ampersand" unicode="&#x26;" horiz-adv-x="1683" 
 />
    <glyph glyph-name="quotesingle" unicode="'" horiz-adv-x="319" 
d="M212 1441h32q36 -12 36 -32q-65 -164 -92 -176h-8v4q16 26 32 64q-54 -52 -68 -52l-4 8v4q13 26 48 44l36 40q-19 0 -56 12q0 22 -4 56q0 22 48 28zM224 1401l-20 -16h12q10 8 16 8q0 8 -8 8z" />
    <glyph glyph-name="parenleft" unicode="(" horiz-adv-x="758" 
 />
    <glyph glyph-name="parenright" unicode=")" horiz-adv-x="758" 
 />
    <glyph glyph-name="asterisk" unicode="*" horiz-adv-x="1401" 
d="M866 1376q4 -3 24 -5q10 0 28 -15q0 -2 13 -12l3 -29q-1 -2 -1 -3l2 -6q-2 0 -2 -2q-1 -24 -2 -34v-2q0 -7 -12 -70l-4 -12q-3 -7 -5 -7v-5q2 -4 4 -13l-1 -5v-3l1 -6q-1 -4 -3 -20q1 0 1 -1q-1 0 -1 -2v-8l-1 -1q0 -1 1 -6q-3 -19 -4 -22l1 -6l-2 -3v-7q0 -13 -9 -35
q-1 -8 -5 -8v-7q-4 -6 -9 -8q0 -4 -4 -5q0 -3 -3 -3v-4h2v-2l-6 -2v-4q3 0 4 -4q2 0 5 -11q5 0 5 -6l1 -9q-1 -2 -1 -3l3 -6v-2l-2 -3q0 -1 2 -11q-3 0 -4 -9q1 -2 1 -3q-2 0 -2 -2v-8l1 -5q-2 0 -3 -10q2 0 2 -2q-5 -6 -6 -17q-2 -5 -6 -5l1 -5q-2 -1 -3 -1v-5q0 -3 -4 -8
q0 -8 -5 -10q0 -4 -9 -6q-3 0 -7 -11q-5 0 -5 -3v-3q5 0 10 -2l-1 -2v-1l2 -3q0 -7 -4 -7h-2v-5l1 -1q-1 0 -1 -1q-2 1 -3 1q-4 0 -22 1l-1 -2q0 -5 7 -9h1q2 0 2 3h3q0 -3 1 -4q-1 -2 -1 -4q6 -10 7 -10q5 0 5 -5q1 0 1 -3h6q4 0 16 -9q9 -3 15 -11q2 0 3 -5q5 -2 8 -7
q6 0 13 -9q7 -4 12 -4q0 -4 7 -5q0 -4 8 -7q0 -2 11 -4v-2h5l5 3q1 -2 2 -2h1q1 0 3 3v1q-6 8 -6 9v1l4 5v3q0 2 -3 2v2q2 0 4 5l-1 5q2 1 3 1q0 2 -6 19v7q-5 4 -5 8q-1 4 -2 4l1 2l-1 4q1 1 1 4l-3 2l1 2v3q-3 0 -3 2q2 0 2 2v1l-1 2q1 0 3 3v2l-1 6q3 13 5 29q4 6 5 6h1
v3q0 7 14 19q5 0 9 10l6 6h4v3l-6 1v1l5 5v1q-5 8 -7 8v1q-2 14 -2 15l1 4l-1 2l1 2l-1 5q0 16 8 43q13 55 22 70q0 5 -2 10l1 2l-1 4q2 8 2 14v4q2 3 3 10q0 1 -1 1q1 13 6 33q-1 0 -1 1q2 0 14 66q16 22 23 24q0 3 28 4q2 -1 2 -2l6 1q33 -7 33 -11q0 -3 10 -4
q0 -3 12 -10q8 -8 9 -12q2 0 7 -20q0 -7 -13 -71q0 -5 -5 -17q0 -1 1 -1q0 -4 -4 -18q0 -6 -3 -6v-1q0 -2 1 -4q-6 -20 -13 -25h-1v-3l3 -4v-3l-1 -6q1 -2 1 -3q-3 0 -6 -19v-7q-3 -6 -15 -59l-4 -15q0 -7 -9 -18q-12 -17 -18 -17h-1v-7q-2 -4 -5 -4q0 -3 3 -7v-10
q0 -3 3 -7v-1q-2 -2 -2 -4v-3h-1v-3l2 -3q-2 0 -2 -2v-1q0 -3 1 -9q-4 -5 -9 -33q0 -7 -4 -8q0 -4 -4 -9q0 -4 -11 -14q0 -6 -6 -9q0 -11 -17 -17v-4q1 0 3 -1q-4 -9 -10 -9v-5q0 -3 -16 -5q-6 3 -9 3h-5q-2 0 -3 -3q0 -3 3 -7v-1q0 -2 -4 -2v-4q1 0 6 -6h2l3 2q6 -5 9 -5
v-2h-2v-3q3 0 7 -7q0 -2 -3 -2v-2l6 -4q0 -4 10 -13q3 0 8 -10q2 0 6 -9q4 -4 10 -7q3 -6 18 -22q0 -1 11 -10q0 -3 6 -5q0 -3 8 -5q0 -2 5 -4h1l2 1q0 -2 2 -2h2q2 0 2 4h5q0 4 5 4q4 32 11 40q0 3 6 15q0 6 14 20q10 16 19 16q0 4 3 5q0 3 5 7l2 -1h2q2 3 11 8q0 5 7 23
q0 5 9 23q3 3 7 20q1 0 4 5q5 12 16 23h1v5q8 36 12 36v5q7 17 20 35q0 2 7 13l7 11q1 0 8 9q2 0 9 9q17 11 33 11l7 2q20 -7 24 -9q16 -9 23 -30q5 -17 5 -27l-3 -10q0 -1 1 -1q0 -16 -21 -69q-4 -5 -15 -34q-2 0 -5 -7q-8 -10 -8 -12q-4 -15 -18 -33q-20 -28 -34 -44
q0 -4 -5 -7q0 -4 -12 -11q-10 -2 -10 -9q-2 0 -5 -8v-2h2v-2q-3 -1 -8 -17q-7 -7 -11 -18l-12 -21q-2 -2 -5 -10q-2 0 -3 -6h-3v-6l-10 -15l-9 -3v-4l2 -3q-6 -6 -8 -6q-5 -9 -9 -9q-9 3 -10 3l-7 -2v-2q0 -2 1 -4l-2 -4q3 -15 4 -28l-7 -23q0 -5 -5 -10q0 -2 -3 -6
q0 -2 1 -4l-4 -21q2 0 2 -2q-2 0 -2 -2l1 -5q-3 -8 -10 -33q-1 0 -7 -8q-6 -3 -6 -5l1 -4q-1 -2 -1 -3q1 -2 1 -3q-2 0 -5 -18q0 -6 -6 -12l1 -5q-3 0 -5 -13q-1 0 -3 -9q1 -2 1 -3q-6 -8 -9 -22l-10 -24q-6 -13 -12 -23q-1 -10 -18 -32q0 -2 -9 -9l-11 -13q-5 -3 -5 -6
q-13 -12 -18 -13q-12 -17 -16 -17q-3 -9 -10 -11q-4 -6 -16 -13q0 -2 -13 -6q-9 -6 -15 -14q-9 -8 -11 -8q-2 -3 -9 -6q0 -3 -4 -3q-18 -15 -18 -18l-2 1q-6 0 -6 -4l-6 1q-5 -3 -10 -5q0 -3 -9 -4l-2 1l-9 -2l-2 1l-11 -2l-2 1l-6 -1l-38 4h-1q0 -2 -2 -2l-3 2h-2l-5 -1
q0 1 -5 4q-1 0 -2 -1q-7 0 -18 8q-10 3 -10 7q-10 1 -10 8q-3 0 -13 9q-7 0 -7 6l-6 -1l-2 5h-3v-2h-1l-4 4h-1q-1 0 -2 -3l-10 3q-2 0 -7 -2l-4 1l-2 -1q-9 4 -25 7l-6 4q-1 0 -3 -1q-5 0 -14 11l-5 -1q0 3 -12 8q-9 0 -9 4h-6q-26 8 -27 14h-4q-12 4 -13 4v3h-2
q-1 0 -1 -1q-3 1 -6 5l1 5q-3 3 -6 3q-9 5 -9 8h-3q-1 0 -1 -1q-10 5 -10 10h-5q-14 13 -14 17q-10 5 -10 15q-18 16 -18 20q-2 0 -7 8q-3 0 -10 8q-2 0 -20 20q-16 26 -16 32q-3 0 -9 17q-4 9 -5 9l-1 2q1 2 1 4q-3 0 -7 14q-1 0 -3 14q-5 2 -10 24q-2 0 -5 19q-1 0 -1 1
q1 2 1 4q-1 0 -4 9q-5 0 -7 15q-3 7 -6 7l1 2v1q-8 6 -8 22q-2 0 -5 14q-3 1 -10 25q-8 10 -9 19q-2 0 -3 4l1 5q-2 0 -7 15q-13 37 -22 53q0 9 -18 47l-60 146q-4 12 -9 33q-1 0 -1 1q1 2 1 3l-1 2q1 1 1 4l-2 1q0 1 2 8l-1 6l6 6h1v5q13 8 17 14l3 2h1q10 -2 11 -2
q0 1 1 1q6 -3 26 -8l6 1q0 -2 19 -5q0 -1 14 -5q0 -2 15 -7q0 -2 10 -7q10 -11 16 -14q0 -3 14 -15q10 -13 10 -15q1 -2 1 -7v-1q6 0 7 -8q12 -10 12 -11q0 -3 7 -15q2 -3 5 -14q5 -2 12 -14q5 -3 9 -14q2 0 3 -6q5 -3 16 -40q2 -10 3 -16q-2 0 -2 -2v-1l3 -6q-1 -5 -1 -6
q1 -8 1 -10q-4 -24 -8 -35l1 -2q-1 -2 -1 -3l1 -2q-1 -2 -1 -4q5 -1 5 -6h4l4 3q0 -2 9 -3q0 -1 6 -8v-7q-2 -2 -2 -8h1v-1q0 -2 -4 -4h-4v-2q1 -4 11 -6q7 3 11 10q11 5 14 5h5q4 0 17 -3h3l1 5v4l-14 11v1q0 13 10 18q24 21 28 21v4q-4 0 -4 3v0h2h1q3 3 10 3q1 0 3 -1
l5 1h1q3 -3 5 -3l2 1q4 -1 21 -3q0 -1 1 -1h1l6 1v6q-12 2 -14 4l-4 -1l-8 6q2 12 3 12t8 1l5 -1l3 5q3 -2 5 -2q5 9 7 9h1v1l-1 5q2 0 2 2v2q-7 0 -12 10q-1 5 -3 5q-1 4 -5 7q0 2 -2 4q0 2 1 2l-1 7v9h-2v5q0 4 -3 8l1 5v3q-6 0 -8 11q-2 0 -3 4q2 0 2 2v1q-2 4 -3 4
q2 4 2 11v3h3v3q-4 4 -4 5l8 5v16q-4 0 -4 2q3 0 6 19q6 2 7 2v4h-2v2q2 0 3 6h1l5 -1l1 2l3 -1q5 1 6 1h6q0 1 8 6q3 0 3 -4h1q2 0 4 1q2 -1 4 -1q3 1 24 5v1q17 0 30 -7l2 1q2 -1 3 -1l2 1l2 -1l5 1h1l12 -4l5 1q3 0 3 -6q10 0 17 5l4 -1q2 1 3 1q0 -2 2 -2l17 7
q2 -1 4 -1q7 2 7 5q0 6 4 6l5 -1v4q-14 10 -14 11q0 2 -4 10q1 1 4 1v6q2 5 2 19q-3 4 -6 4q-13 24 -13 29l1 5l-1 2q1 2 1 4l-1 5l1 5q-1 2 -1 3q1 2 1 3l-1 2q1 2 1 4l-1 2q2 0 2 2l-2 7l4 12v6q0 4 11 29q0 4 3 4q0 2 6 19q6 2 6 4v4l-5 6q2 1 3 1v6q-8 0 -11 15
q-2 0 -3 8q1 2 1 4q-3 0 -3 2l1 6q-2 0 -2 2v2l2 3q0 4 -1 5q1 8 4 11l-1 5l1 4q0 1 -1 1q2 12 3 25q-1 2 -1 3l1 5q0 1 -1 6l1 5l-1 2q1 2 1 4l-1 5q2 0 2 2q0 1 -1 3q5 23 5 24t-1 3q7 16 9 19q2 0 2 4q-7 13 -7 24v4q3 11 3 13l-2 1l1 5q0 2 -1 4q3 13 5 16l-1 5
q3 6 3 10v1q0 3 -1 4q10 64 16 64q0 3 8 12q0 5 13 9h6q0 1 1 3q5 -1 6 -1zM632 1346q4 -1 8 -1q1 0 2 1q9 -4 11 -4h3v-1h5l17 -6l23 -22q7 -11 10 -39l-1 -2l1 -8q0 -1 -1 -2l1 -6v-1q0 -6 -1 -14l1 -2q-6 -51 -13 -64l1 -6q-2 0 -5 -13q-2 -3 -7 -7q0 -1 -1 -8q2 0 2 -2
l-1 -7l2 -1l-1 -2v-6l-1 -6q1 -2 1 -4l-2 -5l1 -4l-4 -24q0 -1 1 -1q-2 -9 -3 -24l1 -2q-3 -8 -6 -19v-7q-4 -3 -7 -15q-6 0 -6 -10q-2 -1 -2 -2v-3q2 0 2 -1q-2 -4 -2 -6q6 -5 6 -15q3 0 3 -2q-2 -1 -2 -2v-1q1 -3 7 -6q0 -7 3 -11v-8l-1 -6q0 -4 2 -4q-2 -11 -2 -13
q1 -8 2 -10q-2 -9 -2 -13l1 -2q-3 -16 -7 -16q-5 -11 -5 -13l1 -2q-3 -13 -7 -15q-3 -4 -11 -11q0 -7 -11 -12q-4 -2 -4 -5l-5 1q-5 -4 -7 -5q0 2 -2 2h-2l-9 -5q-6 0 -13 4q-7 0 -7 10q-2 0 -5 3q-8 0 -16 11q-2 0 -2 2v4l1 7q-6 0 -7 5l1 2l-1 6v2l2 3v1q-8 7 -8 16
q2 0 2 2q-1 10 -3 12q4 12 7 12v2q-2 2 -3 9l3 6l-2 7q2 2 7 2v2q-5 10 -6 10q9 27 16 27q2 1 11 3v6q-1 0 -3 2l2 6v2q-7 0 -10 12q0 1 -7 7q-1 2 -3 11q3 6 3 8q-2 0 -2 2v8l2 3v2q-3 0 -3 6q1 7 1 8l-1 9v3q-1 3 -2 12q2 4 2 6l-3 2l3 12q0 5 -2 9q4 15 4 19q-1 2 -1 3
q2 0 7 6q2 0 4 4v1q-3 3 -5 14q-1 0 -5 8v3l4 7v2l-2 3v2q0 3 1 9l-1 2l1 5l-1 7q2 0 2 2v6l4 19l-1 2q1 1 1 3l-1 2q6 18 8 19h1q0 2 -2 9h2q0 3 -1 4q5 25 15 38l8 11q0 2 18 13q5 0 9 1z" />
    <glyph glyph-name="plus" unicode="+" 
 />
    <glyph glyph-name="comma" unicode="," horiz-adv-x="428" 
d="M288 116q28 0 40 -28q0 -9 -4 -16q4 -27 4 -44v-24q0 -66 -88 -92v4q-8 -4 -12 -4q-44 12 -44 20q0 6 12 12q15 -8 32 -8q24 0 44 56v24q-14 -4 -16 -4q-40 20 -40 44q4 29 68 60h4zM260 76v-8h8q0 8 -8 8zM284 76v-8h8v8h-8zM240 72q0 -6 -8 -16v-8q0 -5 28 -24h4v4
q-20 18 -20 44h-4zM288 40v-4h8v4h-8zM304 8v-12h4v12h-4z" />
    <glyph glyph-name="hyphen" unicode="-" horiz-adv-x="583" 
d="M402 777q118 -25 118 -45q0 -12 -47 -12l18 -22l-12 -6q-140 17 -195 34l-12 -6l-35 6q-37 -17 -53 -17l-12 17q81 51 230 51zM420 726v-6h17v6h-17z" />
    <glyph glyph-name="hyphen" unicode="&#xad;" horiz-adv-x="583" 
d="M402 777q118 -25 118 -45q0 -12 -47 -12l18 -22l-12 -6q-140 17 -195 34l-12 -6l-35 6q-37 -17 -53 -17l-12 17q81 51 230 51zM420 726v-6h17v6h-17z" />
    <glyph glyph-name="period" unicode="." horiz-adv-x="368" 
d="M236 169h26q61 -50 61 -69q-51 -100 -61 -100q-87 31 -87 92q20 53 61 77zM249 108h13v15q-13 -2 -13 -15zM249 31h13q14 0 14 15h-14q-13 -2 -13 -15z" />
    <glyph glyph-name="slash" unicode="/" horiz-adv-x="569" 
 />
    <glyph glyph-name="zero" unicode="0" horiz-adv-x="745" 
d="M383 1409q191 0 330 -930q0 -451 -122 -451q-67 -28 -135 -28q-379 162 -379 564q69 676 208 676q0 119 98 169zM346 1268v-28h37l12 56h-12q-24 -28 -37 -28zM419 1268l13 -56l-13 -141h-24q0 84 -73 84q-19 -112 -37 -112q0 56 -25 56h-12q-61 0 -110 -479v-113
q0 -280 379 -422q147 73 147 169v197h25v56l-25 -28q0 286 -208 761q-24 28 -37 28z" />
    <glyph glyph-name="one" unicode="1" horiz-adv-x="439" 
d="M228 1416h36q30 0 126 -1225q-23 -191 -54 -191q-43 0 -72 804q18 67 18 153q-40 0 -54 459z" />
    <glyph glyph-name="two" unicode="2" horiz-adv-x="522" 
d="M351 1381q115 -39 115 -268q0 -404 -219 -983q81 0 92 -30q118 60 161 60q92 -80 92 -149q0 -60 -34 -60q-59 89 -115 89h-23q-26 0 -46 -29q-12 0 -12 29l-57 -29h-115q-23 0 -23 59v30q253 590 253 1043q-12 57 -12 89h-46q-140 -76 -218 -238h-23v59q0 90 230 328z
" />
    <glyph glyph-name="three" unicode="3" horiz-adv-x="543" 
d="M143 1240h62q224 -78 224 -155q0 -167 -137 -427v-19q237 -233 237 -427v-19q-58 -339 -336 -369h-38q-29 0 -62 155q0 17 12 155h38l-13 -97v-58q30 -97 75 -97q175 0 274 330v19q-39 167 -224 369l-25 -20h-12q-25 0 -25 39v20q147 180 199 426q-105 78 -199 117
l-63 -39l-12 39v19q4 39 25 39zM218 251h24q-23 -71 -74 -97v19q0 30 50 78z" />
    <glyph glyph-name="four" unicode="4" horiz-adv-x="405" 
d="M105 1409q21 -8 21 -54v-163q-21 -158 -21 -379q141 -27 186 -81l31 542q-11 47 -11 108l21 27l21 -81v-190q0 -136 -11 -406q21 -9 21 -55l-21 -81q11 -149 11 -217q0 -28 -11 -81q0 -27 11 -27q-11 -271 -31 -271h-11q-20 0 -20 54v27q0 27 10 27q0 27 -10 27l10 190
v190q0 162 -103 162q-155 0 -155 82v54q31 352 62 433q-21 0 -21 55l11 54q-11 0 -11 27z" />
    <glyph glyph-name="five" unicode="5" horiz-adv-x="576" 
d="M99 1423q152 -52 152 -69q11 0 11 23q59 -23 87 -23q109 69 163 69q43 -34 43 -69l-11 -46q-11 0 -32 23l-196 -69q-128 23 -185 23v-23q11 -186 33 -367h22q229 0 358 -436q0 -392 -282 -459q-57 0 -65 69v69h32q44 -46 44 -69q228 151 228 344q-48 214 -218 390v23
l-152 -46q-21 51 -54 620z" />
    <glyph glyph-name="six" unicode="6" horiz-adv-x="615" 
d="M388 1434h12q25 -8 25 -51q0 -51 -25 -51h-37v51q4 51 25 51zM326 1332h37v-52q-224 -585 -224 -742v-77q153 -275 237 -307q0 333 111 333h50l25 -26q0 26 13 26l12 -52v-51q0 -202 -149 -384q-295 219 -361 435v26q0 291 249 871zM425 307l13 -51q-13 -50 -13 -77h38
q99 121 99 231h-12q-91 -51 -125 -103z" />
    <glyph glyph-name="seven" unicode="7" horiz-adv-x="546" 
d="M96 1420h11q232 -23 272 -23v-22q11 0 11 22q142 0 142 -90q-33 -157 -120 -1284l-22 -23q-21 0 -21 45q32 609 98 1217l-77 45q-11 0 -11 -22q-42 22 -261 45q0 -23 -11 -23l-11 45h11l-11 45v23z" />
    <glyph glyph-name="eight" unicode="8" horiz-adv-x="544" 
d="M324 1437h16l82 -29v-57h-16q-32 29 -49 29q0 -51 -165 -115q-55 -173 -66 -173q5 -73 116 -201h16l263 345q5 57 33 57q33 -9 33 -57v-58q0 -47 -280 -345v-28q165 -388 165 -604q-39 -201 -198 -201q-98 48 -98 374q0 247 33 402q-21 0 -132 230v172q99 259 247 259z
M258 719q-33 -106 -33 -230v-173q0 -201 82 -201l99 86q0 215 -148 518z" />
    <glyph glyph-name="nine" unicode="9" horiz-adv-x="481" 
d="M245 1409h26q50 0 186 -352q-39 0 -62 -1034l-18 -23h-8l-18 23q0 85 35 799h-9q-43 -71 -114 -71h-45q-8 0 -8 24l-18 -24q-95 0 -115 259q81 399 168 399zM112 1033v-94q0 -85 151 -117q95 44 159 235v23q-29 0 -133 235h-53q-69 -79 -124 -282z" />
    <glyph glyph-name="colon" unicode=":" horiz-adv-x="407" 
d="M269 165h26q61 -50 61 -69q-51 -100 -61 -100q-87 31 -87 92q20 53 61 77zM282 104h13v15q-13 -2 -13 -15zM282 27h13q14 0 14 15h-14q-13 -2 -13 -15zM252 1030h26q61 -50 61 -69q-51 -100 -61 -100q-87 31 -87 92q20 53 61 77zM265 969h13v15q-13 -2 -13 -15zM265 892
h13q14 0 14 15h-14q-13 -2 -13 -15z" />
    <glyph glyph-name="semicolon" unicode=";" horiz-adv-x="418" 
d="M290 99q28 0 40 -28q0 -9 -4 -16q4 -27 4 -44v-24q0 -66 -88 -92v4q-8 -4 -12 -4q-44 12 -44 20q0 6 12 12q15 -8 32 -8q24 0 44 56v24q-14 -4 -16 -4q-40 20 -40 44q4 29 68 60h4zM262 59v-8h8q0 8 -8 8zM286 59v-8h8v8h-8zM242 55q0 -6 -8 -16v-8q0 -5 28 -24h4v4
q-20 18 -20 44h-4zM290 23v-4h8v4h-8zM306 -9v-12h4v12h-4zM247 1023h26q61 -50 61 -69q-51 -100 -61 -100q-87 31 -87 92q20 53 61 77zM260 962h13v15q-13 -2 -13 -15zM260 885h13q14 0 14 15h-14q-13 -2 -13 -15z" />
    <glyph glyph-name="semicolon" unicode="&#x37e;" horiz-adv-x="418" 
d="M290 99q28 0 40 -28q0 -9 -4 -16q4 -27 4 -44v-24q0 -66 -88 -92v4q-8 -4 -12 -4q-44 12 -44 20q0 6 12 12q15 -8 32 -8q24 0 44 56v24q-14 -4 -16 -4q-40 20 -40 44q4 29 68 60h4zM262 59v-8h8q0 8 -8 8zM286 59v-8h8v8h-8zM242 55q0 -6 -8 -16v-8q0 -5 28 -24h4v4
q-20 18 -20 44h-4zM290 23v-4h8v4h-8zM306 -9v-12h4v12h-4zM247 1023h26q61 -50 61 -69q-51 -100 -61 -100q-87 31 -87 92q20 53 61 77zM260 962h13v15q-13 -2 -13 -15zM260 885h13q14 0 14 15h-14q-13 -2 -13 -15z" />
    <glyph glyph-name="less" unicode="&#x3c;" 
 />
    <glyph glyph-name="equal" unicode="=" 
 />
    <glyph glyph-name="greater" unicode="&#x3e;" 
 />
    <glyph glyph-name="question" unicode="?" horiz-adv-x="748" 
d="M417 1437q70 0 113 -41q7 0 7 10q111 0 143 -145l37 -165q-23 -135 -195 -352q-140 -80 -142 -113q-38 -75 -38 -114v-10l53 10q-19 -35 -60 -52q0 -51 -15 -51q-25 0 -30 165q8 89 165 217q195 161 195 310v11q0 104 -135 227q-57 -21 -68 -21q-15 11 -22 11v20l52 11
q0 14 -45 31q-187 -69 -187 -155q-54 -124 -68 -124h-15v31q56 195 165 258q64 31 90 31zM575 1344v-10q82 -78 82 -124h8v10q0 58 -75 124h-15zM380 1334h37q-1 -18 -82 -83l-8 21q0 13 53 62zM335 165q22 -37 22 -72v-21l-15 -31q23 0 23 -20l-23 -21h-7q-38 27 -38 41v21
h30q-15 53 -15 83z" />
    <glyph glyph-name="at" unicode="@" horiz-adv-x="2019" 
 />
    <glyph glyph-name="A" unicode="A" horiz-adv-x="1009" 
d="M363 1416h6q19 -9 19 -53q-19 0 -50 -249h6q17 0 57 115l-6 45q49 44 63 44q23 -53 31 -53q5 62 26 62q40 -27 94 -231q54 -134 102 -186q0 -64 82 -89q0 -18 12 -18v-9q-12 -62 -12 -71q49 -36 164 -417q101 -215 101 -338v-9q-18 -44 -51 -44q-54 214 -139 409
q-106 310 -164 399l-82 -18v9q-12 -9 -19 -9q-57 0 -126 -17v9q-196 -20 -196 -134q-17 -33 -114 -461q-33 -141 -50 -187h-13q-9 0 -19 27v26q0 50 13 134l-7 17l7 54q0 20 -7 35q13 29 13 45l-6 44q25 187 25 266h-6q-35 -9 -57 -9h-76q-9 0 -19 27q17 69 38 80h13l12 -9
l-6 -18v-8l12 8v-8q49 0 89 62l-6 17q34 26 56 178q0 18 7 18l-7 18q63 270 114 355q0 -9 7 -9q32 115 69 151zM294 1203v-27h6v27h-6zM439 1185q-32 -89 -76 -337q-5 0 -19 -45v-26l13 8h6l13 -8q0 15 31 26q12 -9 19 -9l32 9l12 -9q21 18 38 18h26l44 -9l6 18l32 -9
q6 0 19 9q11 -9 25 -9v9q-50 79 -120 222q-89 118 -89 142h-12zM281 1141q-32 -80 -70 -320q-6 0 -6 -9v-35h6q19 88 38 88v18q11 116 26 116q-7 17 -7 26q19 46 19 89v27h-6zM344 1025q0 -11 -50 -169q-13 -32 -13 -71v-8h6q13 1 63 195v53h-6zM211 528v-18h7v18h-7z
M205 501v-18h13q0 18 -13 18zM173 439l-12 9q0 -51 -19 -151v-27h6q10 0 51 178v18zM142 253v-18h6v18h-6z" />
    <glyph glyph-name="B" unicode="B" horiz-adv-x="843" 
d="M313 1441q121 0 230 -211v-102q0 -28 -181 -109h-7v-17q232 -80 334 -262q133 -179 133 -397v-17q-39 -181 -133 -279l-258 -59q-7 0 -7 8q-7 0 -181 -25l-7 17v25l14 25q-14 0 -14 43h-14v-34q0 -110 -56 -110q-28 86 -56 245q0 8 7 8q-13 241 -41 423q7 8 14 135
q-46 372 -84 372q-42 104 -42 169q116 101 153 101q18 0 77 34q87 17 119 17zM166 1297q14 -118 35 -211h14q35 0 35 17l28 -8q202 56 202 84q-39 161 -223 161h-14q-21 0 -77 -43zM83 1306l14 -9h13v34h-6q-11 0 -21 -25zM13 1238q35 -78 35 -101h21v8q0 8 -14 85q7 0 7 8
q-14 0 -14 26q7 16 7 25q-42 -26 -42 -51zM104 1272v-8h13v8h-13zM104 1247q0 -36 13 -85q-7 -51 -13 -51l6 -16l-6 -43l69 -447h14q-28 225 -28 236l7 51v50q0 45 -21 77q0 28 7 42q-35 173 -35 186h-13zM222 976l-7 -17v-186l21 -211l-7 -42v-34q0 -196 56 -431h14
q125 0 174 26q7 0 7 -9q237 21 237 127q23 30 42 127l-7 17q0 6 7 50q0 145 -139 338q-166 190 -398 245zM124 545q3 -17 14 -17v17h-14zM131 520v-8q21 -287 42 -440h7v26q0 149 -42 422h-7z" />
    <glyph glyph-name="C" unicode="C" horiz-adv-x="882" 
d="M295 1444q62 -9 82 -18l16 9l16 -9q45 9 66 9l16 -9q14 9 33 9q24 0 98 -36q0 9 8 9q41 -44 98 -205q9 0 9 -9l-9 -17q25 0 25 -18q0 -9 -8 -9l8 -18v-18q-23 -71 -33 -71q-158 267 -278 267h-33q-76 -11 -163 -133l8 -18q-49 -161 -74 -330q0 -9 8 -9q-16 -67 -16 -125
v-35q0 -169 205 -410l163 -116l17 9q40 -12 40 -27q9 0 9 9l98 -27q133 0 237 98h8q25 -9 25 -53q-117 -125 -237 -125q-9 0 -9 9l-114 -27q-8 0 -8 9l-17 -9q-235 80 -368 196q-66 35 -115 169q-19 88 -90 250l-16 125q0 64 90 285q0 9 -8 9q8 89 24 89q0 9 -8 9
q47 209 123 267q0 12 74 45zM213 1284v-9q36 53 49 53v18q-15 0 -49 -62zM597 1346v-18h17v18h-17zM139 972q-57 -147 -74 -250q9 -16 9 -36h-9q126 -418 189 -419h16q-90 134 -90 152q8 0 8 9q-73 96 -73 214q8 15 8 35q0 9 -8 9q10 98 24 98l-8 18q0 16 16 54q-8 17 -8 26
h8q-8 18 -8 27q0 7 8 54v9h-8z" />
    <glyph glyph-name="D" unicode="D" horiz-adv-x="854" 
d="M52 1459q137 -7 504 -255q185 -205 221 -335q65 -85 74 -176l-7 -16q7 -68 7 -104q0 -17 -7 -87q7 -16 7 -24q-101 -229 -262 -311q-45 -48 -342 -104q0 -12 -74 -24v8q-65 -24 -121 -24h-6l-21 16q14 134 14 351l13 8l-6 16q6 44 6 64q0 16 -6 16l6 40v16l-6 79l13 8
q-13 29 -13 64l6 16q-6 14 -6 32q0 8 6 8l-6 16v16q2 16 13 16l-7 32q14 184 20 207q-13 206 -26 279q13 26 13 40l-13 8q-13 -8 -21 -8q-58 30 -60 48v16q0 30 81 40q0 8 6 8zM79 1403v-8q20 0 47 -8h7v8l-34 8h-20zM106 1331q34 -121 34 -247q24 -91 40 -367
q-14 -143 -20 -175q0 -8 6 -8l-47 -383l7 -16v-16q0 -8 -7 -8l7 -16l-7 -16h14q78 0 201 64q0 -8 7 -8q95 67 154 87q162 133 269 328q27 54 27 95v16q0 124 -155 263q-297 330 -369 344q-103 63 -161 63zM455 1204q107 -114 107 -136q38 0 101 -96h7v16q-143 191 -215 216z
M113 901q-14 -241 -14 -256q0 -8 7 -8l-7 -40v-95h7q13 77 13 87l-6 16q13 35 13 128v8q0 52 -7 160h-6zM797 526q-72 -184 -288 -351q-69 -32 -74 -32v-8h13q239 85 329 271q27 60 27 112v8h-7z" />
    <glyph glyph-name="E" unicode="E" horiz-adv-x="749" 
d="M17 1406v-9l15 9l38 -9l15 9l38 -9q8 0 8 9q76 -9 76 -17q7 0 7 8q14 0 122 -34l15 8q27 -17 144 -34q13 8 30 8h16q10 0 22 -26q0 -12 -22 -26h-46q-68 0 -129 17q7 -19 159 -112q0 -12 84 -79v-17q0 -17 -68 -26q-207 30 -380 113v-17q38 -195 53 -322q8 0 8 -8
q9 6 106 17l159 -35q15 9 23 9v-9l15 9h16l68 -43q0 17 23 17q25 -17 45 -17l31 8q0 -26 22 -26v-17q0 -14 -53 -35q-23 0 -220 44h-38q-7 0 -7 -9l-16 9q-15 -3 -15 -18q-7 0 -7 9l-76 -9q-30 0 -84 18l8 -18v-17q-15 -261 -38 -261q0 -8 8 -8q-23 -93 -31 -183q0 -8 8 -8
l-8 -44v-121q295 -61 319 -61q15 9 23 9q45 -7 45 -18q8 0 8 9q91 -9 136 -9q94 9 99 9v-9q0 -72 -235 -95q0 -9 -15 -9q0 17 -16 17h-30q-37 0 -159 44q-8 0 -8 -9q-76 13 -76 35l-15 -9h-15q-8 0 -8 9l-15 -9q-38 11 -38 26l-15 -8q-81 17 -106 43q0 -9 -8 -9l-7 18v60
q0 20 7 35q-7 15 -7 35v9q0 19 7 34q-7 17 -7 26h7l-7 18v17q0 9 7 9l-15 95l15 96q-7 15 -7 34h7q-22 261 -61 261l-7 17l38 35l-8 17v52q0 9 8 9l-8 18q0 8 8 8l-8 18v8q0 20 8 35l-8 17q0 29 15 139q-15 96 -75 96l-16 -9l-30 17q10 42 46 61q0 44 83 61zM123 1328v-9
q0 -78 76 -78q203 -87 266 -87h7q-67 66 -227 148v8q-8 0 -8 -8q-95 26 -114 26zM70 1215l15 -130l-7 -18q12 -41 30 -156v-52h46l-16 61q0 8 8 8q-46 262 -76 287zM123 720v-35l8 -52q-31 -105 -46 -260q8 -19 15 -78h8q14 199 38 199l-8 18q21 32 31 234q-46 -5 -46 -26z
M85 208v-96h8l15 9q0 9 -8 9l8 43v35h-23z" />
    <glyph glyph-name="F" unicode="F" horiz-adv-x="481" 
d="M86 1437h8q28 -25 67 -25q25 0 38 8q310 -27 352 -59q7 0 7 8l83 -17q12 9 37 9q15 -3 15 -17v-34q0 -19 -37 -26q-6 0 -45 9q-8 0 -8 -9q-157 17 -157 26l-15 -9h-8v9l8 17h-15q0 -26 -15 -26h-38q-7 0 -7 9l-15 -9q-10 0 -75 26q-13 -9 -30 -9q-25 0 -52 26h-15v-9
l7 -17q-56 17 -67 17q7 -120 22 -212h-7l7 -17v-8q0 -9 -7 -9q21 -101 30 -101h7q143 0 143 -26q14 9 22 9q112 0 112 -34q0 -47 -149 -59l-15 8l-15 -8l-15 8l-30 -8l-15 8l-38 -8q-14 8 -22 8q0 -9 7 -25q-7 -46 -7 -77l7 -34h-7l15 -50q-23 -74 -23 -85q8 -17 8 -26
q-20 -36 -38 -118l8 -17l-23 -85q0 -9 8 -9l-15 -144q7 -45 7 -76q0 -134 -67 -144q-13 8 -30 8q0 46 15 145q-8 32 -8 67q0 9 8 26q0 8 -8 8q8 81 38 212v85q0 8 7 8q0 9 -7 9q10 130 15 153q0 8 -8 8l8 42v119h-45l-15 9q0 -9 -8 -9l-22 34q21 42 60 42v9l-23 34v8l8 17
q-15 0 -15 17v9l15 25v8q-30 0 -38 128q-22 71 -22 93q0 76 67 76q17 51 75 51zM26 1191q3 -17 15 -17h8q0 17 -15 17h-8z" />
    <glyph glyph-name="G" unicode="G" horiz-adv-x="833" 
d="M497 1434l12 -8q6 0 6 8q83 0 264 -224l18 -69q0 -16 -12 -16q-105 155 -288 155q-13 0 -24 7q-152 0 -300 -262q-42 -50 -72 -247q24 -328 108 -355q10 -31 138 -100q172 -193 258 -193q33 -8 66 -8v54q0 31 -12 100h6l-12 47q6 30 6 54l-6 30q0 8 6 8l-6 54v47l-30 -8
l-6 15l-12 -7h-6q-6 0 -6 7l-12 -7l-42 7q-12 -7 -18 -7q-41 36 -126 69l-12 -8q-23 0 -48 47v15q0 12 144 46v-7l12 7h96q62 0 90 -23q12 8 18 8q7 -11 108 -54l12 -23q0 -29 -84 -47q-3 -100 -12 -100l12 -46l-6 -39q12 0 30 -262v-39q0 -17 6 -31l-6 -15l6 -39h-6l6 -15
v-16l-6 -46q6 -15 6 -23q-12 0 -12 -23l6 -16q-10 -100 -54 -100q-18 0 -48 162v16q12 130 12 146h-12l-36 -8l-12 8q-40 -23 -84 -23h-6l-168 69q-20 0 -120 116q-69 21 -108 101l-102 301v77q0 17 -6 31l6 15l-6 16l6 15l-6 39q6 68 12 84l-6 16q34 167 96 262
q35 128 102 162q49 85 198 85h48zM203 1179v-7h6q0 13 78 92q18 0 78 47q20 15 36 15h54q54 0 102 -15q0 15 -96 61q-150 -28 -198 -100zM557 1372q0 -8 48 -38h6q-15 38 -54 38zM101 1079v-23h6v23h-6zM83 1017v-15h6v15h-6zM515 624v-8l60 -8h60v8l-42 8h-78zM221 323v-8
q0 -45 108 -70h6q0 35 -114 78zM329 191v-15q0 -23 78 -46h6v15z" />
    <glyph glyph-name="H" unicode="H" horiz-adv-x="826" 
d="M114 1409l16 -7q16 7 24 7q19 -35 25 -35q-49 -390 -49 -440q168 -30 170 -36l40 7h32q18 0 33 -7q8 0 8 7q22 0 250 -49h16q0 21 -8 21q16 141 16 291l-8 14q0 7 8 7l-8 36v120q2 14 16 14q68 0 113 -156v-28q-16 -198 -40 -333q8 -38 8 -43q-8 -256 -33 -269v-22
q0 -85 -16 -85l8 -35v-277q0 -14 -24 -14q-64 0 -64 106l-25 121h8l-8 14v35q0 7 17 57v114q0 131 24 184l-8 14v64q-23 43 -267 57q0 -14 81 -21l8 -15v-7q0 -21 -32 -21q-102 14 -315 71l-8 -14q0 -7 8 -7l-8 -36v-7q0 -21 8 -21l-8 -36v-99q0 -7 -8 -7q14 -10 24 -248h-8
l8 -14v-8q0 -7 -8 -7q8 -13 8 -21l-8 -28q8 -14 8 -22l-8 -14q8 -12 8 -28v-7q0 -7 -8 -7l8 -14v-8q0 -23 -8 -35q16 -75 16 -121q0 -7 -8 -7l8 -35v-71l8 -50q-31 -21 -48 -21q0 8 -48 35v36q0 56 -9 149q0 7 9 7l-9 35v107q0 16 9 28q-6 20 -17 99h8l-8 15q0 7 8 7l-8 35
v14q0 8 8 8l-8 14l8 28q0 10 -16 78l8 28q-8 39 -8 57h8l-16 29l8 14q-16 27 -16 78v64l-16 21l8 35q-16 0 -16 15q0 40 16 85q-16 0 -16 21q1 49 24 78v42q0 26 8 64q0 7 -8 7q15 93 32 93l-8 14l57 35l-8 14v29q0 14 24 14z" />
    <glyph glyph-name="I" unicode="I" horiz-adv-x="682" 
d="M284 1423v-7l12 7h95q6 0 6 -7l13 7h50l139 -50v-7l13 7q45 -18 151 -36q0 -50 -57 -50q-13 0 -88 14q-38 -21 -189 -43v-21q0 -16 6 -29q-6 -12 -6 -29l6 -28h-6l12 -79q-6 -14 -6 -22q13 -64 13 -93v-50l-7 -43q0 -7 7 -7l-7 -36q0 -72 -6 -372l-6 -36q6 -28 6 -57v-79
l-6 -43q6 -14 6 -22q-6 0 -6 -7q126 -7 126 -14l13 7q69 -22 69 -43q-29 -36 -114 -36q0 7 -6 7q0 -14 -13 -14h-6q-6 0 -6 7l-13 -7h-6l-13 7v-14q32 0 32 -15q12 8 19 8q19 -8 19 -15q6 0 6 7l95 -21l31 7l44 -7q0 7 7 7l18 -29v-14q0 -20 -63 -29l-37 8h-7l-12 -8l-7 15
l-12 -7h-7v14q-4 0 -37 -7q-46 7 -57 14q-22 -7 -25 -7q-6 0 -51 7l-38 -7v7q-6 0 -6 -7q-12 0 -44 14q0 -7 -6 -7l-26 29v7h7l12 -7q0 21 19 21q21 -14 38 -14h13v21l-13 -7q-8 10 -63 22q-6 0 -6 -7q-22 7 -26 7q-38 -15 -119 -29v-7q138 -38 138 -50l13 7
q119 -36 202 -50l12 7h19q9 0 19 -22q0 -12 -31 -21q-7 0 -7 7l-31 -7h-13q-89 0 -126 36q-11 -7 -25 -7v7l-13 -7q-107 43 -315 93v14q0 26 139 43q0 7 12 7v-7q16 7 63 14v8q-69 5 -69 28l32 29h44q21 0 31 -7l95 14q0 -7 6 -7q6 43 13 43q0 7 -7 7l7 50v93q0 8 6 8
q-6 13 -6 21l6 14l-13 36q0 8 7 22q-7 39 -7 57q0 31 13 64q0 8 -6 8q6 86 12 86l-6 14v7q0 7 6 7q0 7 -6 7q6 55 13 72l-13 36q0 7 6 7l-6 36v14q0 7 6 7l-6 15l6 14q-12 0 -12 14v7q0 8 6 8q-6 14 -6 21l6 29q-5 28 -13 28l7 36v29q0 24 -7 36l7 43v71l-32 -7h-88
q-139 0 -139 50v8l-44 -8l-13 22v7q17 41 183 79q7 0 7 -7q25 14 44 14zM246 1373v-7h57v7h-57zM195 1366v-7h13v7h-13zM290 1316v-15l13 7q6 0 6 -7l13 7h37v15h-25zM460 1323v-15h7v15h-7zM473 1323v-15h6q13 0 13 15h-19zM252 1316v-15h7v15h-7zM265 1316v-15q12 0 12 15
h-12z" />
    <glyph glyph-name="J" unicode="J" horiz-adv-x="657" 
d="M224 1452h60q27 0 80 -32l8 8q0 -16 180 -71l8 8q13 -16 24 -16h8q9 0 16 8q32 -16 32 -31q0 -24 -52 -32q-44 16 -64 16h-8v-8q12 0 164 -95l8 8q8 -3 8 -16v-24q0 -12 -16 -31l-16 8l-8 -8q-7 0 -32 16q-4 0 -4 -8q-44 8 -44 15l-8 -7h-32l-24 7l-8 -7q-7 7 -16 7
q-8 -7 -12 -7q0 7 -4 7v-7q0 -18 4 -32q0 -8 -4 -8q24 -273 24 -285h-4l4 -15v-95q0 -18 -4 -32q4 -14 4 -31v-56q0 -8 -4 -8q3 -16 8 -87h-4q12 -89 12 -150q0 -18 -4 -31l4 -16q0 -171 -236 -324q-67 -32 -84 -32q-77 0 -156 150q-5 0 -32 119v31q0 12 12 24h12l44 -158
q48 -71 72 -71h60q14 0 36 8q4 0 4 -8q105 0 192 150q19 0 28 119q4 0 4 8q0 7 -4 7l4 40v71l-4 48q4 13 4 31q0 25 -8 111q0 8 4 8q-9 197 -16 261l4 15l-4 40h4q-8 96 -28 205l-28 -7v7l-8 -7h-12q-4 0 -4 7l-24 -15q-100 8 -100 31q0 75 124 119v8l-156 63q-16 0 -16 32z
M492 1318v-8h8v8h-8zM308 1231v-8q48 0 48 -8l36 16q7 -8 16 -8h4v31h-36q-31 0 -68 -23zM476 1246v-15l28 -8h12q0 23 -40 23zM172 13v-8h12v8h-12z" />
    <glyph glyph-name="K" unicode="K" horiz-adv-x="657" 
d="M95 1428h7l25 -31q-5 -100 -13 -100l7 -15q0 -16 -7 -16l13 -162l-6 -38q6 -66 6 -108l76 108q0 95 140 146q24 41 146 100q47 35 134 70h13q8 -1 25 -39q-166 -174 -235 -185q0 8 -6 8q-10 -22 -83 -38q0 -23 -95 -116q-13 -73 -51 -139q120 -88 190 -285
q0 -104 121 -200q48 -40 83 -162q146 -218 146 -246q-33 -39 -57 -39q0 19 -127 193q-23 73 -185 277q-182 167 -229 231q-19 0 -19 23h-12q0 -8 -7 -23q0 -8 7 -8q-9 -116 -13 -131q13 -52 13 -277v-46q0 -17 -7 -31l7 -15q0 -154 -58 -154l-6 15v62q0 42 6 107
q-6 12 -6 47h6q0 7 -6 7q6 55 6 62q-6 116 -6 162h6l-6 15v16q0 7 6 7q-6 15 -6 23q0 106 -38 316q25 0 25 185v70q0 17 -6 30l6 16q-6 56 -12 69q8 72 12 93q0 23 -19 23v38q2 16 13 16h6l19 -16h13q21 85 38 85zM140 827v-8l159 -208v23q-52 110 -159 193z" />
    <glyph glyph-name="L" unicode="L" horiz-adv-x="770" 
d="M98 1466l12 -20v-20q0 -15 -6 -27q0 -7 6 -7q-12 -141 -17 -141l5 -13v-74q13 0 23 -161l85 -336l-6 -13q6 -27 17 -47l-6 -34q12 -27 12 -40h-6q22 -47 34 -188h-6q0 -7 6 -7q-7 -72 -12 -87q6 -5 17 -168h51q0 21 152 34q0 -7 6 -7q2 14 11 14h23q6 0 6 -7
q138 60 237 60l39 -6v-14q-59 -59 -214 -80l-6 -14l11 -6q6 0 6 6l39 -6h23q13 0 23 6q50 0 79 -40l11 7q11 -2 11 -14q0 -9 -28 -33q-21 8 -51 33l-11 -6q-6 13 -6 20h-11v-14h-23q-5 0 -5 7l-12 -7h-67l-34 7l-11 -7q-19 14 -34 14h-40l-135 -41q0 14 -11 14v-14h-12
l-11 7q0 -13 -11 -13v6q-19 -13 -34 -13q-19 0 -51 20l-5 -13q-136 22 -136 47v6l11 21q-28 141 -39 174q0 7 6 7l-17 114q5 12 5 27q-5 11 -5 27h5l-5 13v27q0 7 5 7q-11 35 -11 73l6 14l-6 13q10 161 23 161q0 7 -6 20q18 150 28 182q0 6 -6 6l12 81q-6 12 -6 27h6l-6 13
q0 7 6 7q0 24 -34 101q8 26 17 26l22 -13q0 47 6 47q-6 13 -6 20q0 235 51 235h11zM76 922l-6 -33q11 7 17 7v13q0 13 -11 13zM53 761v-20h6v20h-6zM48 701v-20l-6 -34q11 7 17 7l-6 13l6 34h-11zM115 701v-7l6 -40l-6 -67q0 -38 12 -128q-6 -13 -6 -20l11 -7q0 -6 -5 -6
q22 -110 22 -195l-5 -13q15 -155 28 -155h11v54q0 35 17 60q-11 0 -23 114h6q-34 294 -62 410h-6zM42 634v-14h6v14h-6zM36 486l6 -33v-14q0 -7 -6 -7l6 -13v-40q13 -122 34 -215h6q0 15 5 27l-5 13l5 34q0 17 -11 80h6l-6 14q0 6 6 6q-12 34 -12 47h6q-6 38 -23 61v40h-17z
M82 144v-14h5v14h-5z" />
    <glyph glyph-name="M" unicode="M" horiz-adv-x="974" 
d="M689 1434q25 -48 84 -232q9 0 92 -160q11 0 35 -123q11 0 42 -138q-7 -14 -7 -22q14 -2 14 -14q0 -8 -7 -8q9 -63 21 -79v-51q14 -70 14 -80h-7l7 -14v-8q0 -14 -14 -14q14 -29 14 -80v-7q0 -8 -7 -8l7 -14q0 -22 -7 -22l7 -36v-36q0 -25 -7 -37l7 -43v-116q0 -17 7 -29
q-7 -13 -7 -29v-37q0 -38 7 -123l-35 -29h-21q-10 0 -21 22q0 98 -21 152h7q-34 90 -57 312h7q-5 15 -14 80q7 14 7 22q-42 352 -147 660q-42 77 -42 131q-26 0 -57 -225q-47 -107 -98 -370q-8 -58 -56 -58q-33 0 -78 152q-79 206 -91 210h-7v-7q0 -49 -70 -413
q0 -117 -106 -537l-14 -8h-7q-14 0 -14 22l35 123l-7 15v7q0 11 21 22q0 7 -7 7q7 66 28 116q0 8 -7 8l29 159v7h-7q-71 -384 -99 -384h-21q-14 0 -14 14v15q14 102 28 102q0 7 -7 7q35 114 120 544q0 7 -7 7q4 51 14 51l-7 15l7 14q-7 14 -7 22h7l-7 14q12 19 35 145
q-7 14 -7 22q14 0 14 15l-14 7l21 94l-7 51h7q-28 96 -56 167q26 22 63 22q14 -37 21 -37l35 22h7q10 0 21 -22v-58q0 -16 7 -29q0 -7 -7 -7q7 -123 28 -123q40 0 106 -247h-7q32 -90 42 -167h7q47 240 70 240q0 7 -7 7l70 341v36q0 22 43 22l-7 36q0 15 63 22zM822 926
q50 -198 50 -276v-7l14 -22v-7l-7 -14l21 -15v7q0 18 -14 80h7q-14 30 -14 44h7q-40 184 -64 210zM893 571v-15h7v15h-7zM907 476v-14h7v14h-7z" />
    <glyph glyph-name="N" unicode="N" horiz-adv-x="900" 
d="M851 1536q12 0 28 -114q7 0 7 -8q0 -52 -28 -147l7 -16v-57q0 -43 -7 -73q7 -43 7 -82q0 -157 -28 -277l7 -16v-32q0 -9 -7 -9q0 -8 7 -8q-14 -98 -35 -505q7 -13 7 -40q-14 -3 -14 -17q14 -2 14 -16v-65q-17 -49 -42 -49q-28 36 -63 122q-33 -49 -56 -49
q-83 137 -154 351q-75 86 -134 195q-118 211 -203 334l-7 49h-14q28 -137 28 -171h-14v24h-7q0 -79 -7 -81l7 -49v-106q0 -8 -7 -8q0 -8 7 -8l-7 -41v-16q0 -34 7 -90q0 -8 -7 -8l7 -57v-114q0 -34 7 -65q-7 -236 -28 -236h-14q0 11 -28 32v41q2 16 14 16q-7 13 -7 49h-7
q-37 -179 -63 -179q-10 0 -21 33q14 81 35 162q-7 0 -7 9q16 0 35 301q21 66 21 187v41q0 18 7 32q-7 15 -7 33h7q0 8 -7 8l7 41q0 20 -14 114q7 14 7 32q-7 16 -7 25q0 8 7 8l-7 41v73l7 16q-15 1 -63 228q10 41 49 41q0 -8 35 -49l14 8h14q11 0 56 -122q65 -67 168 -293
l99 -204q36 -63 84 -105q0 -13 126 -212q7 176 28 293q0 8 -7 8q46 360 63 367q12 0 63 252q-5 18 -14 106q7 16 7 24l-7 17q0 81 49 81zM220 1056v-17q28 -37 63 -138q6 0 42 -49v16q-41 72 -91 188h-14zM809 1039v-16h7v16h-7zM802 1015v-16q-28 -96 -63 -432q-7 0 -7 -8
l7 -49q0 -9 -7 -24q14 -65 14 -163l-7 -17q7 -15 7 -24q-7 -16 -7 -24l14 -9h7v57q3 180 14 180l-7 16l7 32q0 9 -7 9q21 157 49 472h-14zM94 209q0 -19 -7 -33q7 -16 7 -24h7v57h-7zM87 144v-17h7v17h-7z" />
    <glyph glyph-name="O" unicode="O" horiz-adv-x="1016" 
d="M422 1451l11 -8q11 8 18 8q81 0 179 -117q65 -55 121 -78q68 -53 150 -156v-8q0 -5 -29 -39q127 -253 127 -421l-6 -16q12 -2 12 -15q-10 -86 -17 -86l5 -16q-22 -101 -46 -101v-8h12v-8q-41 -68 -64 -148q-67 -107 -167 -187q-65 -39 -87 -39v8l-46 -16q-128 18 -162 47
q-11 -8 -17 -8q-63 33 -150 101q-69 29 -191 195q-75 193 -75 328q8 141 17 141q0 7 -5 7q0 47 40 110l-6 15q35 81 87 258q11 0 69 124q75 85 168 125v-8q26 16 52 16zM485 1396v-15h12v15h-12zM462 1342v-8q9 0 23 -16h12q0 14 -29 24h-6zM312 1248h29q21 0 52 8
q11 -8 17 -8l12 8q47 -12 63 -31l18 15h17l11 -7v23l-98 47q-6 0 -6 -8q-4 0 -34 8q-45 0 -81 -55zM537 1295q2 -16 12 -16h17v8zM572 1287v-8q2 -15 11 -15h18v8q-10 0 -29 15zM641 1240l-6 -15v-8q13 0 35 -47q27 0 156 -140v8q-79 125 -185 202zM92 569q0 -79 226 -382
q101 -101 208 -101q11 8 17 8v-8q63 0 63 39q0 33 151 93q109 75 109 242q10 125 18 125l-6 16v7q0 27 6 39q0 129 -156 359q-135 188 -324 188h-63q-6 0 -6 7q-131 -73 -167 -202q-76 -201 -76 -430zM739 1092v-8q2 -15 12 -15h6v8q0 15 -12 15h-6zM791 1022v-16h18
q0 16 -12 16h-6zM855 921v-8h11v8h-11zM884 866v-8q5 -15 5 -23h12q-9 31 -17 31zM901 804q2 -16 12 -16l5 16h-17zM907 780v-8h17v8h-17zM924 757v-16q12 -71 12 -78q11 0 11 16v7q-10 71 -23 71zM941 655v-8h12v8h-12z" />
    <glyph glyph-name="P" unicode="P" horiz-adv-x="552" 
d="M61 1431q54 -7 71 -13q13 6 29 6q215 -20 215 -67q60 -26 193 -344q36 -85 36 -101q0 -93 -201 -155q-73 -39 -157 -54l-36 7h-7l-72 -7q0 -15 7 -27q-7 -20 -14 -20q7 -29 22 -263h-8l43 -242q0 -37 -64 -61q0 -97 -50 -121h-15l-14 7q17 98 29 134q0 7 -7 7q7 61 14 61
l-7 13v128q0 7 7 7q-7 0 -14 121h7l-15 61q8 13 8 20l-8 61h8l-15 74l7 13l-14 95h7q-28 290 -50 424l-7 68h-72q-16 0 -28 -7q-29 10 -29 20v7q46 47 86 47v7l-22 27v6q0 20 137 61zM96 1370v-13h8v13h-8zM125 1364v-7q66 -67 108 -67q70 -12 128 -68v20q-58 115 -136 115
q-38 0 -71 13q-13 -6 -29 -6zM-47 1303h7q13 7 29 7v-7q21 13 57 13v14l-36 7q-57 -23 -57 -34zM89 1269l-7 -47v-67l7 -34h-7q6 -13 22 -148h-8l22 -128q-7 0 -7 -7q21 -4 21 -54v-13q8 0 22 -7q182 61 301 216q7 0 7 6v21q-46 102 -151 155q-29 32 -100 60v14h-14
q-27 0 -108 33zM311 791v-7h7q172 51 172 142h-14l-150 -135h-15z" />
    <glyph glyph-name="Q" unicode="Q" horiz-adv-x="1033" 
d="M583 1427q129 -49 183 -160q79 -150 79 -176q-7 0 -7 -8q46 -37 46 -84q0 -30 33 -84l-7 -17l14 -9l-7 -16q26 -24 46 -143q14 0 46 -177q0 -33 13 -33q-12 -118 -20 -118q7 -16 7 -25q-45 -116 -85 -168q-6 0 -118 -134q71 -181 196 -303q22 -40 59 -58q0 -53 -33 -76
h-13q-65 26 -131 118q-126 176 -163 268q-27 -16 -40 -16q-65 6 -65 16q-7 0 -7 -8q-186 19 -209 42q-13 -8 -20 -8l-26 16q0 -8 -7 -8l-6 17l-13 -9q-79 37 -105 93q-170 140 -170 193l-33 260h7q-8 76 -20 76l7 42l-7 17q7 14 7 33t-7 34q0 63 65 243q25 128 144 261
q0 8 -6 8q0 53 46 84h26q15 0 26 -8q13 8 20 8v-8q6 0 6 8q14 0 66 -25q39 11 39 25l13 -8l33 8l13 -8q13 8 20 8l13 -8q37 11 52 25zM433 1360v-17l13 8q203 -115 203 -151q35 -54 124 -252q33 0 72 -243q20 -40 59 -261v-42q0 -8 -7 -8l7 -17v-17q0 -19 -7 -33l7 -17
q-20 -67 -20 -84q38 0 92 210l-7 17l7 17q-7 16 -7 25h7q0 114 -177 638q-110 235 -190 235l-39 9l-13 -9l-13 9q-96 -17 -111 -17zM105 973v-8h7q24 104 104 202q99 117 184 117v25q-36 9 -53 9q-73 -37 -222 -252zM105 738q48 -378 92 -378q34 -64 118 -117l13 8h6
q98 -42 269 -143h13l33 9v17l-33 75q-15 0 -20 42q-21 0 -65 93v33q0 13 26 34q-13 30 -13 67q6 25 39 25q44 -71 98 -193q13 0 53 -101h6q98 125 98 210q0 234 -137 563q-160 188 -183 227l-79 42q-113 0 -249 -185q-85 -210 -85 -328zM590 1175l59 -76v-16h13
q-18 59 -59 92h-13zM72 629v-17h7v17h-7zM760 176q17 -42 26 -42q43 55 72 184v9zM354 167v-8q31 -42 92 -42q-38 50 -92 50zM662 92v-17h13v17h-13z" />
    <glyph glyph-name="R" unicode="R" horiz-adv-x="805" 
d="M268 1423q6 0 19 -7l13 7q22 -20 140 -34q82 -37 135 -116v-7h-13v-14q32 0 32 -68h-6q19 -48 19 -54q0 -61 -71 -103h-12l-13 7q0 -20 -115 -61q0 7 -7 7q0 -23 -134 -89h-7q10 -59 154 -225l147 -212q46 -76 224 -293q0 -11 109 -178v-13l-38 -14q-46 7 -128 116
q-90 79 -90 130l-13 -7q-77 71 -128 164q-51 61 -211 320q-53 45 -77 82q-7 0 -19 7v-7l26 -259q0 -7 -7 -7l7 -34q-8 -157 -20 -157l7 -14v-6q0 -7 -7 -7l7 -14q0 -7 -7 -7l7 -13v-109q0 -23 19 -151l-6 -61h-13q-11 0 -19 41l-13 -7h-26q-13 0 -13 14l7 27q-7 13 -7 21h7
q-7 6 -13 116l6 40q-15 0 -19 48h7q-13 25 -13 55q0 7 6 7l-6 13v21q-19 0 -26 88h7l12 -6v13q-32 5 -32 21q13 7 20 7v6q-26 0 -26 55q6 13 6 20q-44 111 -44 137q0 7 6 7l-6 47v41q0 29 6 55q-6 26 -6 55v47q0 7 6 7l-6 14v7q0 6 6 6l-6 14l6 27l-32 239h6l-6 14
q32 83 83 129q-6 14 -6 21q9 0 45 27h38q14 0 26 -7q32 14 96 14zM140 1348l-7 -14v-27l32 7v-7q24 14 51 14h7q6 0 6 -7q13 7 19 7v6q-70 21 -108 21zM383 1341q2 -14 13 -14h12q0 14 -12 14h-13zM421 1334v-13q21 0 32 -55q19 0 39 -34l25 -21v7q0 62 -96 116zM50 1273h6
q13 0 13 14v6q-9 0 -19 -20zM268 1273h-77q-58 -27 -58 -34q0 -24 13 -116q-6 -13 -6 -21q12 -2 12 -13l-6 -34q13 -28 13 -41l-7 -14q13 -33 13 -82h13q114 41 173 191q0 35 13 82v41q0 36 -84 48zM44 1266v-14q25 -207 25 -293v-34h26v7q-20 334 -51 334zM434 1205
q8 -55 26 -55h6v7q0 37 -26 48h-6zM524 1164q0 -7 -20 -96q32 18 32 55v41h-12zM428 1150v-14h6v14h-6zM408 1082q0 -16 -19 -62h7q32 5 32 21q-7 13 -7 20q13 0 13 14l-13 7h-13zM24 966v-14h7v14h-7zM140 441v-14h6v14h-6z" />
    <glyph glyph-name="S" unicode="S" horiz-adv-x="728" 
d="M273 1455v-8l13 8q258 -44 315 -91q80 -35 127 -106q-54 -55 -54 -68h-13q-142 138 -254 144q-262 -19 -262 -167q-11 0 -13 -91v-15q455 -189 475 -250q69 0 94 -295q14 -25 14 -46v-45q0 -186 -128 -334l-87 -60h-20q-10 0 -20 30q-24 -15 -214 -68h-20q-7 0 -7 8
l-13 -8q-82 115 -134 144q-22 25 -54 114q-13 0 -13 15v30q0 11 20 23h20q130 -190 154 -190q31 0 60 -22q35 0 134 -8q61 8 87 30l14 -7q82 45 120 174l14 83q-45 224 -161 326q0 18 -94 38l-13 -8q-40 8 -40 23l-54 -15l-13 8q-12 -8 -27 -8v8q-13 -8 -20 -8t-7 8l-87 -16
q-72 142 -114 197q0 64 -33 68q6 15 6 23q-13 0 -13 15v16q0 7 7 7l-7 15q0 167 127 311q63 68 188 68zM266 1394h-47q-71 0 -167 -136q-54 -127 -54 -174v-23q14 0 14 -15h6v8q-6 14 -6 22l13 8l-7 15q0 71 174 250q69 38 94 38l-7 15zM65 1091q0 -84 114 -219l13 7l27 -7
l14 7q92 -21 321 -113q-5 44 -228 136q-229 97 -247 129l6 15l-6 15l6 46v15q-6 0 -20 -31zM145 819v-8h27l-6 15q-13 -7 -21 -7zM233 69q0 -12 26 -23l34 8v7q-20 0 -20 8q-13 -8 -20 -8q-13 8 -20 8z" />
    <glyph glyph-name="T" unicode="T" horiz-adv-x="815" 
d="M659 1487q110 -14 277 -113q55 -32 55 -60l-18 -13q-31 0 -191 13q-12 -22 -12 -33h-13v33q-61 -13 -80 -13l-12 6q-12 -6 -18 -6q-34 6 -50 6q27 -85 43 -113v-13q0 -10 -24 -27q-4 0 -37 40h-6q0 -13 6 -13q0 -15 -6 -27q6 -86 6 -139v-27q0 -15 6 -26q-5 -27 -12 -27
q12 -22 12 -40v-7q0 -27 -6 -73q12 -27 12 -40q0 -6 -6 -6l12 -80h-6q6 -67 13 -67l-7 -46v-140q0 -6 -6 -6l13 -60q-7 -12 -7 -27q7 -13 7 -20h-7l7 -13v-14q0 -6 -7 -6l7 -13q0 -119 -43 -167q0 -6 6 -6q-13 -127 -25 -127l6 -13q0 -10 -18 -20h-25q-21 5 -43 120h6
q10 0 25 -60h6q18 38 18 166l-6 13l-12 -6h-12q-6 0 -31 33v7h6q17 0 37 -14v14q0 76 12 126q0 7 -6 7q0 7 6 20q-6 56 -6 93h6q-12 38 -12 86l6 14q-6 11 -6 26v13q0 20 6 20q0 46 -80 493q0 83 -24 199l-382 -80q-12 27 -12 40q32 27 68 27v-7q44 27 80 33q7 22 61 40
l12 -6q2 13 13 13l12 -7q2 14 12 14l31 -7q72 22 105 40q24 -5 24 -13l74 13l12 -7l68 20l12 -7q33 20 74 20l-37 27zM647 1387h6l31 7v-7q24 14 67 14l-6 13q-98 -11 -98 -27zM800 1374h7l30 7v6h-24q-13 -2 -13 -13zM579 1261v-20h6v20h-6zM561 1001v-13h6v13h-6z" />
    <glyph glyph-name="U" unicode="U" horiz-adv-x="1005" 
d="M141 1427l8 -16v-247l7 -56h-7l7 -16q0 -633 245 -901q63 -111 119 -111q193 34 193 95q82 100 82 160q-8 15 -8 24q17 0 23 111q0 8 -8 8l8 40v8l-8 40h8q0 8 -8 8l8 56q0 18 -8 32q8 15 8 24q0 45 -15 95l7 48q0 99 -22 207h7l-7 16q0 8 7 8q-25 267 -44 311v8
q0 13 30 32q56 0 133 -327v-40l-7 -16q15 0 22 -55h-7q24 -101 59 -200l-7 -16q15 -32 15 -55q0 -8 -8 -8l15 -88h-7q7 -16 7 -24q-43 -273 -141 -391q-164 -183 -342 -183q0 -8 -7 -8h-8q-252 53 -252 128q-95 140 -156 446h7l-15 40q0 8 8 8l-15 72h7q-74 289 -74 382v16
q10 120 22 120l-7 16q1 20 67 71q0 128 59 128zM74 1244q-15 -95 -15 -112q10 0 30 80q-7 14 -7 32h-8zM59 1124v-48h8v48h-8zM862 885v-56h15v16l-8 40h-7zM862 797v-8q0 -42 15 -167l-8 -16l8 -16l-8 -16l8 -40l-8 -80q22 0 30 120v48q0 18 -8 32q0 8 8 8l-22 151
q-15 -2 -15 -16z" />
    <glyph glyph-name="V" unicode="V" horiz-adv-x="889" 
d="M776 1476q0 -38 86 -70q7 -11 14 -85l-14 -7q14 -26 14 -47q0 -17 -7 -31l7 -46q-11 -31 -21 -31l7 -15q-102 -350 -122 -379l7 -16q0 -21 -14 -46q0 -8 7 -8q-14 -80 -14 -139l7 -15q-9 -54 -21 -54l7 -16v-38q0 -22 -14 -47q7 -42 7 -69v-8q-15 -18 -29 -124
q-7 0 -7 -8l7 -15q-14 -49 -14 -62q7 -13 7 -31q-39 -9 -71 -100l-50 -8h-8v70q0 7 8 7l-8 16v7h15v8q0 16 -15 16l8 15v31q-26 0 -36 46q14 0 14 16v8q-19 30 -36 139q-8 0 -64 108l7 15q-8 2 -250 449q-144 233 -214 371l57 54q75 -88 264 -410q92 -137 172 -324
q57 -87 71 -170h15l7 46q-7 0 -7 8q14 0 42 278q10 69 22 69l-7 16q7 93 43 224l-8 16q15 39 15 61q-7 0 -7 8h14v8q0 15 -14 15q21 35 28 93q7 0 7 8v7h-14q24 186 100 186zM719 1399v-8h14v8h-14zM755 1399v-16h7v16h-7zM747 1368v-16q15 0 15 16h-15zM805 1190
q0 -11 -22 -46h7q11 0 22 23v23h-7zM726 1159v-15h7v15h-7zM783 1105v-15h7v15h-7zM755 1035v-15h7v15h-7zM662 881v-16h7v16h-7z" />
    <glyph glyph-name="W" unicode="W" horiz-adv-x="1111" 
d="M1118 1480q7 -14 7 -22q-12 -20 -36 -262q7 -46 7 -112h-7q0 -8 7 -8l-7 -37q0 -132 -51 -576l7 -15q-7 -37 -14 -37l7 -15v-7q0 -8 -7 -8q0 -7 7 -7q-38 -195 -73 -195q29 -45 29 -104l-14 -8l7 -15q0 -10 -22 -22l-7 15q-22 0 -22 -23h-36q-32 35 -152 412v52
q-22 0 -22 22l14 30h-7l-14 -7q0 19 -88 224q-14 19 -14 37q-22 -2 -65 -164q-17 -82 -37 -112q8 -41 8 -60q-37 -50 -37 -90v-7q0 -21 15 -45l-15 -8h-7q-22 0 -22 83q-9 0 -58 -150q-22 -36 -58 -134q-8 0 -87 -105q-19 0 -44 105q-43 7 -43 22q0 8 7 8q-7 14 -7 22
q0 63 7 187q0 148 -109 575h8q-20 43 -44 232q0 8 7 8q-21 75 -36 201q11 30 22 30h14q25 0 37 -97h14q19 68 51 82h14q73 -73 73 -269q0 -67 -29 -179q65 -309 123 -516q8 -77 8 -90h14q0 103 51 187l-7 15v15q16 45 21 45l-7 15q29 77 29 82l-7 15q27 43 58 150
q65 129 65 179q9 0 51 52q12 0 29 15h15v-30h7v53h14v-15h8v7q-8 15 -8 23l51 15q0 -13 51 -30l-58 -157v-8q22 -24 36 -89q20 0 51 -98q29 0 36 -59q51 0 80 -38v-30l-7 -37l15 -7l7 52v82q0 8 7 8l-7 14v45q0 17 7 30q-7 15 -7 23q0 34 22 67q-22 0 -22 15q17 52 22 52
q-8 15 -8 23l8 15l-8 15q11 29 22 29l-7 15q0 13 14 45q-7 15 -7 23q15 0 44 164q30 43 50 150q40 22 66 22zM138 1286v-8q0 -94 29 -187h7v90q-22 97 -22 105h-14zM80 1166q14 -24 14 -45h8v15q-8 13 -8 30h-14zM167 1076v-15h7v15h-7zM660 897v-8q0 -10 22 -22v8
q-7 14 -7 22h-15zM704 897v-8h15v8h-15zM515 762v-7h8l50 134q-21 -14 -58 -127zM675 860v-23l15 -22l-8 -15q15 -2 73 -150q13 -54 36 -67q0 -28 15 -45v-7l-8 -15l29 -23v15q-23 83 -29 83l8 14v8q-30 0 -66 142l15 -8v23l-22 -15l-43 105h-15zM740 845v-15h8v15h-8z
M486 815v-15h8v15h-8zM791 740q2 -15 15 -15v15h-15zM915 508v-15h7v15h-7zM820 486v-15h7v15h-7zM247 411v-15h7v15h-7zM247 389v-15h7v15h-7zM254 351v-37h15l-8 37h-7z" />
    <glyph glyph-name="X" unicode="X" horiz-adv-x="840" 
d="M777 1430h35q14 -2 14 -15l-42 -134q-9 0 -28 -75h21q0 30 42 30l7 -15v-7q0 -31 -84 -164q-22 -7 -49 -82l-14 7q0 -38 -133 -238q0 -19 -14 -38q85 -120 140 -171l84 -134q0 -20 91 -231h-7q7 -13 7 -30l14 7q14 -29 14 -82l-28 -22h-28q-20 5 -119 283
q-48 116 -210 306q-21 0 -49 -75q-8 0 -35 -52q-42 -54 -42 -82q-25 0 -35 -59q-34 -24 -140 -269q-25 -37 -49 -37v7q-26 0 -84 -104h-21q-7 0 -7 7l-14 -7q-14 7 -21 7v23q48 66 91 156l-7 15l42 82q48 40 224 336q0 22 63 119q-71 0 -133 104l7 15q-35 21 -112 179l7 15
q-28 13 -56 90l7 14q-18 0 -70 187q-9 0 -28 45q6 25 42 44h21q9 0 28 -52l-7 -15q12 0 49 -59q91 0 91 -120q7 0 133 -238q45 -67 56 -67q0 -23 14 -23h7q46 80 70 157q137 180 147 231q0 7 49 119q11 52 49 112zM259 931v-15h14q0 15 -14 15zM280 901v-8q7 -14 7 -22
q14 0 14 15v7q-7 0 -21 8zM301 856v-7q12 0 42 -53h7l-7 -15q0 -11 28 -29v15h-14v37q-42 54 -42 67q-14 -2 -14 -15zM364 789v-15h7v15h-7zM378 759v-15h7v15h-7zM392 752v-15h7v15h-7z" />
    <glyph glyph-name="Y" unicode="Y" horiz-adv-x="808" 
d="M58 1476q144 -237 179 -268q30 -23 57 -97q17 0 32 -34l-6 -11q6 0 58 -80q12 -2 12 -11l-6 -12q27 -34 70 -34q128 155 179 251q101 245 180 245l12 -6q13 6 20 6l6 -12v-11q0 -20 -32 -57q0 -16 -32 -34l6 -12q-78 -138 -140 -228q6 -11 6 -17q-35 -25 -96 -182
q-11 0 -19 -17l13 -23q-23 -53 -71 -114q0 -13 -6 -23q0 -11 32 -114h-7l7 -11v-17q0 -6 -7 -6q7 -17 13 -17q-6 -46 -19 -85l13 -29q-7 -57 -13 -57l6 -11v-40q0 -13 -6 -23q6 -10 6 -23v-17q0 -6 -6 -6q6 -14 19 -108l-6 -11q13 -24 13 -35q-7 -11 -7 -17q10 -18 19 -51
q-21 -11 -38 -11q0 5 -6 5q0 -11 -13 -11q-51 0 -51 262q0 393 -51 393q-23 52 -32 52q-28 70 -77 125q0 25 -45 34l6 12v5l-12 -5l-7 11l7 11q-20 0 -20 12q7 10 7 23q-21 0 -83 148q-9 0 -64 108q6 0 6 6q-16 0 -38 62q8 40 25 40h7v-11q12 0 12 11q-23 1 -70 120v6
q0 37 58 51zM211 952v-12h7v12h-7zM288 838v-6h13v6h-13zM314 838v-12h12q0 12 -12 12zM307 821v-23h13v6q-6 11 -6 17h-7zM525 821v-12h6v12h-6zM352 809v-5h13v5h-13zM326 798v-6h13v6h-13zM486 501v-5h13v5h-13zM486 467v-11h7v11h-7z" />
    <glyph glyph-name="Z" unicode="Z" horiz-adv-x="942" 
d="M909 1455h18q0 -20 13 -40v-16q-12 -33 -111 -64q-41 -25 -43 -79q-24 -55 -98 -152q-35 -145 -185 -383q-155 -193 -166 -287q-11 -10 -74 -143q159 -18 191 -40q6 0 6 8l25 -8q156 8 209 8q0 -18 61 -32q13 -52 13 -72q-7 0 -7 -8q55 -8 68 -16q0 8 6 8q0 -12 25 -23
q11 7 24 7q7 0 7 -7l12 7h12q35 -37 37 -55l-18 -48q6 0 6 -8q-12 -8 -19 -8q-203 8 -203 24l-12 -8h-24q-23 0 -56 8q-6 0 -6 -8l-31 8h-43l-18 16l-6 -16q-56 8 -56 16l-12 -8q-6 0 -6 8q-12 -8 -19 -8l-24 8q-11 -8 -25 -8l-6 16l-31 -8h-49q-6 0 -6 8l-12 -8h-13
q-6 0 -6 8l-12 -8q-6 0 -6 8l-31 -8h-6l-31 8q0 -16 -12 -16q-7 0 -18 8q-111 -22 -111 -72h-6q-23 15 -31 48q0 41 68 167q92 248 123 375q118 244 276 478q8 0 43 56q8 0 43 64q21 0 68 72q61 46 61 56q-6 0 -6 8q-24 -16 -67 -16q-7 0 -19 8q-35 -15 -141 -32v8
q-170 -64 -308 -88v8q-93 -48 -104 -48v32q0 86 184 128v8q-43 0 -49 7q-12 -7 -18 -7q-31 11 -31 55v8l18 32l62 -8h86q6 0 6 -8l12 8h43q7 0 7 -8l12 8h43q22 0 104 16l13 -8q54 10 67 24h6l31 -8v8q6 0 6 -8q14 0 25 8l74 -8q44 0 80 16q10 -8 24 -8zM608 1144h6
q12 0 12 16h-6q-12 -2 -12 -16zM559 1080h6q9 0 24 32v8q-16 0 -30 -40zM528 1048v-8h12q0 13 12 32h-6q-9 0 -18 -24zM460 777v-8q122 174 166 295h-6q-21 -19 -80 -127q-11 0 -37 -80q-7 0 -43 -80zM374 777v-8h6l13 8q6 -15 6 -24h6q6 0 49 104v8h-6q-27 -11 -74 -88z
M448 753v-16h6v16h-6zM233 395h6q51 59 147 287h-6q-116 -144 -147 -287zM177 387q0 -8 -30 -96v-8l30 48l-6 16v8h13v32h-7zM202 283q0 -18 -6 -32v-8h6q0 9 6 24v16h-6zM177 219v-16h13v16h-13z" />
    <glyph glyph-name="bracketleft" unicode="[" horiz-adv-x="758" 
 />
    <glyph glyph-name="backslash" unicode="\" horiz-adv-x="569" 
 />
    <glyph glyph-name="bracketright" unicode="]" horiz-adv-x="758" 
 />
    <glyph glyph-name="asciicircum" unicode="^" 
 />
    <glyph glyph-name="underscore" unicode="_" horiz-adv-x="1024" 
 />
    <glyph glyph-name="grave" unicode="`" horiz-adv-x="1024" 
 />
    <glyph glyph-name="a" unicode="a" horiz-adv-x="886" 
d="M311 1304h5q15 -8 15 -49q-16 0 -40 -230h5q13 0 45 106l-5 41q39 42 50 42q19 -50 25 -50q4 58 21 58q31 -25 75 -214q42 -124 80 -172q0 -59 65 -83q0 -16 10 -16v-8q-10 -58 -10 -66q40 -33 131 -386q80 -199 80 -313v-8q-14 -41 -40 -41q-44 198 -111 378
q-84 287 -130 370l-65 -17v9q-10 -9 -15 -9q-45 0 -101 -16v8q-155 -18 -155 -123q-14 -31 -90 -427q-27 -130 -41 -173h-10q-7 0 -15 25v24q0 46 10 124l-5 16l5 49q0 19 -5 33q10 27 10 41l-5 41q20 174 20 247h-5q-27 -8 -45 -8h-60q-7 0 -15 24q14 64 30 74h10l10 -8
l-5 -16v-8l10 8v-8q39 0 70 57l-5 16q28 24 46 165q0 16 5 16l-5 17q49 250 90 328q0 -8 5 -8q26 107 55 140zM256 1107v-25h5v25h-5zM371 1090q-25 -82 -60 -312q-4 0 -15 -41v-25l10 8h5l10 -8q0 14 25 25q10 -8 15 -8l25 8l10 -8q17 16 30 16h21l35 -8l5 16l25 -8
q5 0 15 8q9 -8 20 -8v8q-40 73 -95 206q-71 109 -71 131h-10zM246 1049q-25 -74 -55 -296q-5 0 -5 -8v-33h5q15 82 30 82v17q8 107 20 107q-5 16 -5 24q15 42 15 83v24h-5zM296 942q0 -10 -40 -156q-10 -30 -10 -66v-8h5q10 2 50 181v49h-5zM191 482v-16h5v16h-5zM186 457
v-16h10q0 16 -10 16zM161 400l-10 8q0 -47 -16 -140v-24h6q7 0 40 164v17zM135 227v-16h6v16h-6z" />
    <glyph glyph-name="b" unicode="b" horiz-adv-x="763" 
d="M281 1300q111 0 210 -191v-92q0 -26 -165 -100h-6v-15q211 -72 304 -238q121 -161 121 -359v-16q-35 -163 -121 -252l-235 -54q-6 0 -6 8q-6 0 -165 -23l-6 15v23l12 23q-12 0 -12 38h-13v-30q0 -100 -51 -100q-25 78 -51 222q0 8 7 8q-13 218 -38 383q6 7 12 122
q-41 337 -76 337q-38 94 -38 153q106 92 140 92q16 0 70 31q79 15 107 15zM148 1170q13 -108 32 -192h13q31 0 31 16l26 -8q184 51 184 77q-36 145 -203 145h-13q-19 0 -70 -38zM72 1177l13 -7h12v30h-6q-9 0 -19 -23zM8 1116q32 -71 32 -92h19v8q0 7 -12 77q6 0 6 7
q-13 0 -13 23q7 15 7 23q-39 -23 -39 -46zM91 1147v-8h13v8h-13zM91 1124q0 -32 13 -77q-7 -46 -13 -46l6 -15l-6 -38l63 -406h13q-25 205 -25 214l6 46v46q0 40 -19 69q0 26 6 38q-31 157 -31 169h-13zM199 879l-6 -15v-169l19 -191l-7 -39v-30q0 -178 51 -391h13
q113 0 159 23q6 0 6 -7q216 18 216 114q21 28 38 115l-6 16q0 5 6 45q0 132 -127 307q-151 172 -362 222zM110 488q2 -15 13 -15v15h-13zM116 465v-7q19 -260 38 -398h7v22q0 136 -38 383h-7z" />
    <glyph glyph-name="c" unicode="c" horiz-adv-x="882" 
d="M274 1304q58 -8 77 -16l15 8l15 -8q42 8 61 8l15 -8q14 8 31 8q23 0 91 -32q0 8 8 8q38 -40 91 -185q8 0 8 -8l-8 -16q23 0 23 -17q0 -8 -7 -8l7 -16v-16q-21 -64 -30 -64q-147 241 -259 241h-31q-71 -10 -152 -120l7 -17q-45 -144 -68 -297q0 -8 7 -8q-15 -61 -15 -113
v-32q0 -153 191 -371l152 -104l15 8q38 -11 38 -24q8 0 8 8l91 -24q125 0 222 88h7q23 -8 23 -48q-109 -113 -221 -113q-8 0 -8 8l-106 -24q-8 0 -8 8l-15 -8q-220 72 -343 177q-62 31 -107 153q-18 79 -84 225l-15 113q0 58 84 258q0 8 -8 8q8 80 23 80q0 8 -8 8
q44 189 115 242q0 10 68 40zM198 1159v-8q34 48 46 48v16q-14 0 -46 -56zM556 1215v-16h16v16h-16zM130 877q-54 -132 -69 -225q8 -14 8 -32h-8q117 -378 175 -379h16q-84 122 -84 137q7 0 7 8q-68 87 -68 194q7 14 7 32q0 8 -7 8q9 88 23 88l-8 16q0 14 15 49q-7 15 -7 24
h7q-7 15 -7 24q0 6 7 48v8h-7z" />
    <glyph glyph-name="d" unicode="d" horiz-adv-x="829" 
d="M47 1307q129 -7 475 -229q175 -183 209 -300q61 -76 70 -157l-6 -14q6 -61 6 -93q0 -15 -6 -78q6 -14 6 -22q-95 -204 -247 -278q-42 -43 -323 -93q0 -11 -70 -22v7q-61 -21 -114 -21h-6l-19 14q13 121 13 315l12 7l-6 14q6 39 6 57q0 14 -6 14l6 36v14l-6 72l13 7
q-13 26 -13 57l6 14q-6 13 -6 29q0 7 6 7l-6 14v15q2 14 13 14l-7 29q13 165 19 185q-12 185 -25 250q13 24 13 36l-13 7q-12 -7 -19 -7q-55 27 -57 43v14q0 27 76 36q0 7 6 7zM73 1257v-7q19 0 44 -7h6v7l-31 7h-19zM98 1193q32 -109 32 -222q22 -81 38 -328
q-13 -129 -19 -157q0 -8 6 -8l-44 -342l6 -15v-14q0 -7 -6 -7l6 -14l-6 -15h12q74 0 190 57q0 -7 7 -7q89 61 145 79q153 118 254 293q25 49 25 85v15q0 111 -146 235q-280 295 -348 308q-97 57 -152 57zM427 1078q102 -101 102 -121q35 0 95 -86h6v15q-134 170 -203 192z
M104 807q-12 -216 -12 -229q0 -7 6 -7l-6 -35v-86h6q13 69 13 78l-7 15q13 31 13 114v7q0 47 -6 143h-7zM750 471q-68 -164 -272 -314q-65 -29 -70 -29v-7h13q225 77 310 243q26 54 26 100v7h-7z" />
    <glyph glyph-name="e" unicode="e" horiz-adv-x="720" 
d="M9 1318v-8l15 8l35 -8l15 8l35 -8q8 0 8 8q71 -8 71 -16q7 0 7 8q13 0 114 -33l15 8q26 -16 135 -32q13 8 29 8h14q11 0 22 -25q0 -11 -22 -24h-43q-64 0 -121 16q6 -18 150 -106q0 -11 79 -73v-17q0 -16 -65 -24q-194 28 -357 106v-16q36 -184 50 -303q7 0 7 -8
q9 6 100 17l150 -33q14 8 22 8v-8l14 8h14l65 -41q0 17 21 17q23 -17 43 -17l28 8q0 -24 22 -24v-16q0 -14 -50 -33q-22 0 -207 41h-36q-7 0 -7 -8l-14 8q-15 -3 -15 -17q-7 0 -7 9l-71 -9q-28 0 -79 17l7 -17v-16q-14 -245 -35 -245q0 -8 7 -8q-22 -87 -29 -171q0 -9 7 -9
l-7 -40v-115q278 -57 300 -57q14 8 22 8q42 -6 42 -16q8 0 8 8q85 -8 128 -8q89 8 93 8v-8q0 -68 -221 -90q0 -8 -15 -8q0 16 -14 16h-29q-35 0 -150 41q-7 0 -7 -8q-71 12 -71 33l-14 -9h-15q-7 0 -7 9l-14 -9q-36 11 -36 25l-14 -8q-76 16 -100 41q0 -9 -7 -9l-7 17v57
q0 18 7 33q-7 14 -7 32v8q0 19 7 33q-7 16 -7 25h7l-7 16v16q0 8 7 8l-15 90l15 90q-7 14 -7 33h7q-21 245 -57 245l-8 16l36 33l-7 16v49q0 8 7 8l-7 16q0 9 7 9l-7 16v8q0 18 7 33l-7 16q0 27 14 131q-14 90 -71 90l-14 -9l-29 17q10 39 43 57q0 41 78 57zM109 1245v-9
q0 -73 72 -73q191 -82 250 -82h7q-63 62 -214 139v8q-7 0 -7 -8q-90 25 -108 25zM59 1138l15 -122l-7 -16q11 -40 28 -147v-49h43l-14 57q0 8 7 8q-43 246 -72 269zM109 673v-33l8 -49q-29 -99 -43 -245q7 -17 14 -73h7q13 188 36 188l-7 16q19 31 28 220q-43 -5 -43 -24z
M74 191v-90h7l14 9q0 8 -7 8l7 41v32h-21z" />
    <glyph glyph-name="f" unicode="f" horiz-adv-x="436" 
d="M69 1325h7q25 -23 59 -23q22 0 33 7q273 -25 311 -54q6 0 6 7l73 -15q11 8 33 8q13 -3 13 -16v-31q0 -18 -33 -24q-5 0 -40 8q-6 0 -6 -8q-139 16 -139 24l-13 -8h-7v8l7 15h-13q0 -23 -13 -23h-33q-7 0 -7 8l-13 -8q-9 0 -66 23q-12 -7 -27 -7q-22 0 -46 23h-13v-8
l7 -15q-50 15 -60 15q7 -111 20 -195h-7l7 -16v-8q0 -8 -7 -8q19 -93 27 -93h6q126 0 126 -24q13 8 20 8q99 0 99 -31q0 -44 -132 -55l-14 8l-13 -8l-13 8l-26 -8l-14 8l-33 -8q-12 8 -19 8q0 -8 6 -24q-6 -42 -6 -70l6 -31h-6l13 -47q-20 -68 -20 -78q7 -15 7 -24
q-18 -33 -33 -109l6 -16l-20 -78q0 -8 7 -8l-13 -133q6 -42 6 -70q0 -124 -59 -133q-12 8 -26 8q0 41 13 133q-7 30 -7 62q0 9 7 24q0 8 -7 8q7 74 33 195v78q0 8 7 8q0 8 -7 8q9 120 13 141q0 7 -6 7l6 39v110h-39l-13 8q0 -8 -7 -8l-20 31q19 39 53 39v8l-20 31v8l7 16
q-13 0 -13 15v8l13 24v7q-26 0 -33 118q-20 66 -20 86q0 70 59 70q15 47 66 47zM17 1098q2 -15 13 -15h6q0 15 -13 15h-6z" />
    <glyph glyph-name="g" unicode="g" horiz-adv-x="763" 
d="M461 1314l11 -7q6 0 6 7q77 0 245 -208l16 -65q0 -14 -11 -14q-97 144 -267 144q-12 0 -22 7q-141 0 -278 -244q-39 -47 -67 -230q23 -304 100 -330q10 -28 128 -93q160 -179 239 -179q31 -7 62 -7v50q0 29 -12 93h6l-11 43q5 29 5 50l-5 29q0 7 5 7l-5 50v43l-28 -7
l-5 15l-12 -8h-5q-6 0 -6 8l-11 -8l-39 8q-11 -8 -16 -8q-38 35 -117 65l-11 -7q-21 0 -45 43v14q0 11 134 43v-7l11 7h89q57 0 83 -21q11 7 17 7q6 -10 100 -50l11 -22q0 -26 -78 -43q-3 -93 -11 -93l11 -43l-5 -36q11 0 27 -244v-36q0 -16 6 -28l-6 -15l6 -36h-6l6 -14
v-14l-6 -43q6 -14 6 -22q-11 0 -11 -21l5 -15q-9 -93 -50 -93q-16 0 -44 151v14q11 122 11 136h-11l-33 -7l-12 7q-36 -21 -77 -21h-6l-156 64q-18 0 -111 108q-64 20 -100 93l-94 280v72q0 16 -6 28l6 15l-6 14l6 14l-6 36q6 64 11 79l-5 14q31 155 89 244q32 119 94 151
q46 79 184 79h44zM189 1077v-7h5q0 13 73 86q17 0 72 43q18 15 33 15h50q50 0 95 -15q0 15 -89 58q-139 -26 -183 -94zM517 1257q0 -8 44 -36h6q-14 36 -50 36zM94 984v-21h6v21h-6zM78 927v-15h5v15h-5zM478 561v-7l56 -7h55v7l-39 7h-72zM206 281v-7q0 -42 100 -65h5
q0 33 -105 72zM306 159v-14q0 -22 72 -43h6v14z" />
    <glyph glyph-name="h" unicode="h" horiz-adv-x="798" 
d="M109 1314l15 -7q15 7 23 7q18 -33 24 -33q-47 -366 -47 -413q161 -28 162 -33l39 7h31q17 0 31 -7q8 0 8 7q21 0 239 -47h15q0 20 -7 20q15 133 15 273l-8 13q0 7 8 7l-8 33v113q3 13 16 13q65 0 108 -146v-27q-15 -186 -39 -312q8 -35 8 -40q-8 -240 -31 -253v-20
q0 -80 -15 -80l7 -33v-259q0 -14 -23 -14q-61 0 -61 100l-24 113h8l-8 13v34q0 6 16 53v106q0 124 23 173l-8 14v60q-21 39 -255 53q0 -14 78 -20l7 -14v-6q0 -20 -31 -20q-97 13 -301 66l-7 -13q0 -7 7 -7l-7 -33v-6q0 -20 7 -20l-7 -34v-93q0 -6 -8 -6q13 -10 23 -233h-8
l8 -14v-6q0 -7 -8 -7q8 -13 8 -20l-8 -27q8 -12 8 -19l-8 -14q8 -11 8 -26v-7q0 -7 -8 -7l8 -13v-7q0 -22 -8 -33q16 -71 16 -113q0 -7 -8 -7l8 -33v-66l7 -47q-29 -20 -46 -20q0 7 -46 33v34q0 53 -8 139q0 7 8 7l-8 33v100q0 15 8 27q-6 19 -16 93h8l-8 13q0 7 8 7l-8 33
v13q0 7 8 7l-8 13l8 27q0 9 -15 73l7 27q-7 36 -7 53h7l-15 26l8 14q-16 26 -16 73v60l-15 20l7 33q-15 0 -15 13q0 38 15 80q-15 0 -15 20q0 46 23 73v40q0 24 8 60q0 7 -8 7q14 86 31 86l-8 14l54 33l-7 13v27q0 13 23 13z" />
    <glyph glyph-name="i" unicode="i" horiz-adv-x="682" 
d="M267 1321v-7l12 7h88q6 0 6 -7l12 7h48l130 -47v-6l12 6q43 -17 142 -33q0 -47 -53 -47q-13 0 -83 14q-36 -20 -178 -40v-20q0 -15 6 -27q-6 -12 -6 -27l6 -27h-6l12 -73q-6 -13 -6 -20q12 -60 12 -87v-46l-6 -40q0 -7 6 -7l-6 -33q0 -68 -6 -347l-6 -34q6 -26 6 -53v-73
l-6 -40q6 -13 6 -20q-6 0 -6 -7q118 -7 118 -13l12 6q65 -20 65 -40q-27 -33 -106 -33q0 6 -6 6q0 -13 -12 -13h-6q-6 0 -6 7l-12 -7h-6l-11 7v-14q29 0 29 -13q12 7 18 7q18 -7 18 -14q6 0 6 7l89 -20l29 7l42 -7q0 7 6 7l17 -27v-13q0 -19 -59 -27l-35 7h-6l-12 -7l-6 13
l-12 -6h-6v13q-4 0 -35 -7q-43 7 -54 14q-21 -7 -24 -7q-5 0 -47 7l-35 -7v7q-6 0 -6 -7q-12 0 -42 13q0 -6 -6 -6l-23 26v7h5l12 -7q0 20 18 20q20 -13 36 -13h11v20l-11 -7q-8 9 -60 20q-6 0 -6 -6q-20 6 -23 6q-37 -13 -113 -26v-7q131 -35 131 -47l11 7q112 -33 190 -47
l12 7h18q8 0 17 -20q0 -11 -29 -20q-6 0 -6 7l-30 -7h-12q-84 0 -118 33q-11 -6 -24 -6v6l-12 -6q-100 40 -296 86v14q0 23 130 40q0 6 12 6v-6q15 6 59 13v7q-65 5 -65 26l30 27h41q20 0 30 -6l89 13q0 -7 6 -7q6 40 12 40q0 7 -6 7l6 47v86q0 7 6 7q-6 13 -6 20l6 13
l-12 34q0 7 6 20q-6 36 -6 53q0 29 12 60q0 7 -6 7q6 80 12 80l-6 13v7q0 7 6 7q0 6 -6 6q6 51 11 67l-11 33q0 7 6 7l-6 33v14q0 6 6 6l-6 14l6 13q-12 0 -12 13v7q0 7 6 7q-6 13 -6 20l6 26q-5 27 -12 27l6 33v27q0 22 -6 33l6 41v66l-30 -6h-83q-130 0 -130 46v7l-42 -7
l-12 20v7q16 38 172 73q6 0 6 -6q24 13 42 13zM231 1274v-6h53v6h-53zM184 1268v-7h12v7h-12zM273 1221v-13l11 6q6 0 6 -6l12 6h36v14h-24zM433 1228v-14h5v14h-5zM444 1228v-14h6q12 0 12 14h-18zM237 1221v-13h6v13h-6zM249 1221v-13q12 0 12 13h-12z" />
    <glyph glyph-name="j" unicode="j" horiz-adv-x="633" 
d="M206 1346h55q25 0 74 -29l7 7q0 -15 166 -66l7 7q12 -14 22 -14h7q9 0 15 7q30 -15 30 -30q0 -22 -48 -29q-40 15 -59 15h-8v-8q11 0 151 -88l8 8q7 -3 7 -15v-22q0 -12 -15 -29l-14 7l-8 -7q-7 0 -29 14q-4 0 -4 -7q-40 7 -40 15l-8 -8h-29l-22 8l-8 -8q-6 8 -14 8
q-7 -8 -11 -8q0 8 -4 8v-8q0 -16 4 -29q0 -7 -4 -7q22 -254 22 -265h-4l4 -15v-88q0 -16 -4 -29q4 -13 4 -29v-52q0 -7 -4 -7q3 -16 8 -81h-4q11 -83 11 -139q0 -17 -4 -30l4 -15q0 -158 -217 -301q-62 -29 -77 -29q-71 0 -144 140q-5 0 -29 110v29q0 11 11 22h11l41 -147
q44 -66 66 -66h55q13 0 33 7q4 0 4 -7q96 0 176 140q17 0 26 110q4 0 4 7q0 8 -4 8l4 36v66l-4 44q4 13 4 30q0 23 -8 103q0 7 4 7q-8 183 -15 242l4 15l-4 37h4q-7 89 -26 191l-26 -8v8l-7 -8h-11q-4 0 -4 8l-22 -15q-92 7 -92 29q0 70 114 110v8l-143 59q-15 0 -15 29z
M452 1221v-7h8v7h-8zM283 1140v-7q44 0 44 -7l33 14q7 -7 15 -7h4v29h-33q-28 0 -63 -22zM438 1155v-15l25 -7h11q0 22 -36 22zM158 9v-7h11v7h-11z" />
    <glyph glyph-name="k" unicode="k" horiz-adv-x="657" 
d="M88 1311h5l24 -28q-5 -93 -12 -93l6 -14q0 -14 -6 -14l12 -149l-6 -36q6 -60 6 -99l70 99q0 88 128 135q21 38 134 93q43 32 123 63h11q9 0 24 -35q-153 -161 -216 -170q0 7 -6 7q-9 -20 -76 -36q0 -21 -87 -106q-12 -68 -47 -128q110 -81 175 -263q0 -96 111 -184
q44 -37 76 -149q134 -201 134 -228q-30 -35 -53 -35q0 18 -116 177q-21 68 -169 256q-168 154 -210 213q-18 0 -18 21h-12q0 -7 -5 -21q0 -7 5 -7q-7 -107 -11 -121q11 -48 11 -255v-43q0 -16 -5 -28l5 -15q0 -142 -52 -142l-6 15v56q0 40 6 100q-6 11 -6 42h6q0 8 -6 8
q6 50 6 56q-6 108 -6 149h6l-6 15v14q0 7 6 7q-6 14 -6 21q0 98 -35 291q23 0 23 171v63q0 16 -5 29l5 14q-5 52 -11 64q7 66 11 85q0 21 -17 21v36q2 14 12 14h5l18 -14h12q19 78 35 78zM128 757v-7l146 -191v21q-48 101 -146 177z" />
    <glyph glyph-name="l" unicode="l" horiz-adv-x="720" 
d="M88 1311l10 -18v-18q0 -14 -5 -24q0 -6 5 -6q-10 -126 -15 -126l5 -12v-67q11 0 21 -144l77 -301l-6 -12q6 -24 16 -42l-5 -30q10 -24 10 -36h-5q20 -42 31 -168h-5q0 -6 5 -6q-7 -65 -11 -78q6 -5 16 -151h46q0 18 139 30q0 -6 5 -6q2 12 10 12h21q5 0 5 -6
q126 54 216 54l36 -6v-12q-54 -53 -195 -72l-5 -12l10 -6q5 0 5 6l36 -6h20q12 0 21 6q46 0 72 -36l10 6q11 -2 11 -12q0 -8 -26 -30q-19 7 -46 30l-11 -6q-5 12 -5 18h-10v-12h-21q-5 0 -5 6l-10 -6h-62l-31 6l-10 -6q-17 12 -31 12h-36l-123 -36q0 12 -10 12v-12h-11
l-10 6q0 -12 -10 -12v6q-17 -12 -31 -12q-18 0 -46 18l-5 -12q-124 20 -124 42v6l10 18q-25 127 -36 157q0 6 6 6l-16 102q5 10 5 24q-5 10 -5 24h5l-5 12v24q0 6 5 6q-10 32 -10 66l5 12l-5 12q9 144 21 144q0 7 -6 19q17 133 26 162q0 6 -5 6l10 72q-5 11 -5 24h5l-5 12
q0 6 5 6q0 22 -31 90q8 24 16 24l20 -12q0 42 6 42q-6 12 -6 19q0 210 47 210h10zM67 824l-5 -30q10 6 16 6v12q0 12 -11 12zM47 680v-18h5v18h-5zM42 625v-18l-5 -30q10 6 15 6l-5 12l5 30h-10zM103 625v-6l6 -36l-6 -60q0 -34 11 -114q-5 -12 -5 -18l10 -6q0 -6 -5 -6
q20 -98 20 -174l-5 -13q14 -138 26 -138h10v48q0 32 15 54q-10 0 -20 103h5q-31 262 -56 366h-6zM37 565v-12h5v12h-5zM31 433l6 -30v-12q0 -6 -6 -6l6 -12v-36q11 -109 30 -193h6q0 14 5 24l-5 12l5 31q0 15 -11 72h6l-6 12q0 6 6 6q-11 30 -11 42h5q-5 33 -20 54v36h-16z
M73 126v-12h5v12h-5z" />
    <glyph glyph-name="m" unicode="m" horiz-adv-x="945" 
d="M645 1300q24 -44 79 -213q8 0 85 -146q11 0 33 -113q11 0 40 -126q-7 -13 -7 -20q13 -2 13 -13q0 -7 -6 -7q8 -58 19 -73v-46q13 -65 13 -73h-6l6 -14v-6q0 -14 -13 -14q13 -26 13 -73v-6q0 -7 -6 -7l6 -13q0 -20 -6 -20l6 -34v-33q0 -22 -6 -33l6 -40v-106q0 -15 7 -27
q-7 -11 -7 -26v-33q0 -35 7 -113l-33 -27h-20q-9 0 -19 20q0 90 -20 139h6q-31 83 -52 286h6q-5 14 -13 73q7 13 7 20q-40 323 -138 605q-40 70 -40 119q-24 0 -52 -206q-45 -97 -92 -338q-8 -54 -53 -54q-31 0 -72 140q-75 188 -86 193h-7v-7q0 -45 -65 -379
q0 -106 -99 -491l-13 -7h-7q-13 0 -13 20l33 113l-7 13v7q0 9 20 20q0 6 -6 6q6 60 26 107q0 6 -7 6l27 146v7h-7q-66 -352 -92 -352h-20q-13 0 -13 13v14q13 93 26 93q0 6 -6 6q33 105 112 498q0 7 -7 7q5 47 13 47l-6 13l6 13q-6 13 -6 20h6l-6 13q11 18 32 133
q-6 13 -6 20q13 0 13 14l-13 6l20 87l-7 46h7q-27 88 -53 153q25 20 59 20q13 -33 20 -33l33 19h6q10 0 20 -19v-54q0 -15 7 -26q0 -7 -7 -7q7 -113 26 -113q37 0 99 -226h-6q29 -82 39 -152h7q43 219 65 219q0 6 -6 6l66 313v33q0 20 39 20l-7 33q0 13 60 20zM770 835
q46 -182 46 -253v-6l13 -20v-7l-7 -13l20 -13v6q0 17 -13 73h6q-13 28 -13 40h7q-37 169 -59 193zM835 509v-13h7v13h-7zM849 423v-13h6v13h-6z" />
    <glyph glyph-name="n" unicode="n" horiz-adv-x="858" 
d="M803 1448q11 0 26 -108q7 0 7 -7q0 -49 -26 -139l6 -15v-54q0 -41 -6 -69q6 -41 6 -77q0 -148 -26 -262l6 -15v-31q0 -8 -6 -8q0 -7 6 -7q-13 -93 -33 -477q7 -13 7 -39q-13 -2 -13 -15q13 -3 13 -16v-61q-16 -46 -40 -46q-26 33 -59 115q-31 -46 -53 -46
q-78 128 -146 331q-70 81 -125 184q-112 200 -192 316l-7 46h-13q27 -130 27 -162h-14v23h-6q0 -75 -7 -77l7 -46v-100q0 -7 -7 -7q0 -8 7 -8l-7 -39v-15q0 -32 7 -85q0 -7 -7 -7l7 -54v-108q0 -32 6 -61q-6 -224 -26 -224h-13q0 12 -27 31v39q2 15 14 15q-7 12 -7 46h-7
q-34 -169 -59 -169q-10 0 -20 31q13 76 33 154q-7 0 -7 7q16 0 34 285q19 63 19 177v38q0 18 7 31q-7 14 -7 31h7q0 8 -7 8l7 38q0 19 -13 108q6 13 6 31q-6 15 -6 23q0 7 6 7l-6 39v69l6 16q-14 1 -59 215q9 38 46 38q0 -7 33 -46l13 8h14q10 0 53 -115q60 -64 158 -277
l93 -193q34 -60 79 -100q0 -12 119 -200q7 166 27 277q0 8 -7 8q44 340 59 346q11 0 60 239q-5 17 -13 100q6 14 6 23l-6 15q0 77 46 77zM208 994v-15q26 -35 59 -131q6 0 40 -46v15q-39 68 -86 177h-13zM763 979v-16h7v16h-7zM757 956v-16q-27 -90 -60 -408q-6 0 -6 -7
l6 -46q0 -9 -6 -24q13 -60 13 -153l-7 -16q7 -15 7 -23q-7 -15 -7 -23l13 -8h7v54q3 169 13 169l-6 16l6 31q0 7 -6 7q19 149 46 447h-13zM89 194q0 -17 -7 -31q7 -15 7 -23h7v54h-7zM82 132v-15h7v15h-7z" />
    <glyph glyph-name="o" unicode="o" horiz-adv-x="952" 
d="M389 1318l11 -7q10 7 16 7q75 0 165 -106q60 -50 112 -71q63 -48 139 -142v-7q0 -5 -27 -35q118 -231 118 -383l-6 -14q11 -2 11 -14q-9 -78 -16 -78l5 -14q-21 -93 -42 -93v-7h10v-7q-37 -62 -58 -134q-63 -98 -155 -170q-60 -36 -80 -36v7l-43 -14q-118 16 -149 43
q-10 -8 -16 -8q-58 31 -139 93q-63 26 -176 177q-69 175 -69 297q7 128 16 128q0 7 -5 7q0 42 37 99l-5 14q32 73 80 234q10 0 64 114q69 77 154 113v-7q25 14 48 14zM448 1268v-14h11v14h-11zM427 1219v-7q8 0 21 -14h11q0 12 -27 21h-5zM288 1134h27q19 0 48 7
q10 -7 16 -7l10 7q44 -11 59 -28l16 14h16l11 -7v21l-91 42q-5 0 -5 -7q-4 0 -32 7q-41 0 -75 -49zM496 1176q2 -14 11 -14h16v7zM528 1169v-7q2 -14 11 -14h16v7q-10 0 -27 14zM592 1127l-5 -14v-8q11 0 32 -42q24 0 144 -128v7q-73 115 -171 185zM85 517q0 -72 208 -347
q94 -92 192 -92q11 7 16 7v-7q59 0 59 35q0 31 139 85q101 69 101 220q9 113 16 113l-5 15v7q0 23 5 35q0 117 -144 326q-124 170 -299 170h-58q-6 0 -6 7q-121 -67 -154 -184q-70 -183 -70 -390zM683 992v-7q1 -14 10 -14h6v7q0 14 -11 14h-5zM731 928v-14h16q0 14 -11 14
h-5zM789 836v-7h11v7h-11zM816 787v-8q5 -13 5 -21h11q-8 29 -16 29zM832 730q2 -14 11 -14l5 14h-16zM837 709v-7h16v7h-16zM853 687v-14q11 -64 11 -71q11 0 11 14v8q-10 63 -22 63zM869 595v-7h11v7h-11z" />
    <glyph glyph-name="p" unicode="p" horiz-adv-x="552" 
d="M43 1318q50 -6 66 -12q11 6 26 6q196 -19 196 -62q56 -25 177 -317q33 -79 33 -94q0 -85 -183 -143q-68 -35 -144 -49l-33 6h-7l-65 -6q0 -14 6 -25q-6 -19 -13 -19q7 -27 20 -242h-7l40 -224q0 -34 -59 -56q0 -90 -46 -112h-13l-13 6q15 91 26 125q0 6 -7 6q7 56 13 56
l-6 12v118q0 6 6 6q-6 0 -13 112h7l-13 56q6 12 6 19l-6 56h6l-13 68l7 13l-13 87h6q-26 268 -46 391l-6 63h-66q-14 0 -26 -7q-26 10 -26 19v6q42 44 79 44v6l-20 25v6q0 18 124 56zM76 1262v-12h7v12h-7zM102 1256v-6q61 -63 99 -63q64 -10 117 -62v19q-53 106 -124 106
q-35 0 -66 12q-11 -6 -26 -6zM-55 1200h7q11 6 26 6v-6q20 12 52 12v13l-32 6q-53 -21 -53 -31zM70 1169l-7 -44v-62l7 -31h-7q5 -12 20 -137h-7l20 -118q-7 0 -7 -6q20 -4 20 -50v-12q7 0 19 -6q167 56 275 198q7 0 7 7v18q-42 95 -137 143q-27 30 -92 56v13h-13
q-24 0 -98 31zM273 727v-6h6q157 47 157 131h-13l-137 -125h-13z" />
    <glyph glyph-name="q" unicode="q" horiz-adv-x="966" 
d="M545 1311q120 -46 171 -149q73 -141 73 -165q-6 0 -6 -8q43 -34 43 -79q0 -27 31 -78l-7 -16l13 -8l-6 -15q24 -23 42 -134q14 0 43 -165q0 -31 12 -31q-10 -110 -18 -110q6 -15 6 -24q-41 -108 -79 -157q-5 0 -110 -126q66 -168 183 -282q20 -38 55 -55q0 -49 -31 -71
h-12q-61 24 -122 110q-118 164 -153 251q-25 -15 -36 -15q-62 6 -62 15q-6 0 -6 -8q-174 18 -195 40q-12 -8 -19 -8l-24 16q0 -8 -6 -8l-6 15l-13 -7q-73 34 -97 86q-159 131 -159 181l-31 243h6q-7 71 -18 71l6 39l-6 16q6 14 6 31q0 18 -6 32q0 59 61 227q23 120 135 244
q0 8 -7 8q0 49 43 78h25q13 0 24 -8q12 8 18 8v-8q7 0 7 8q12 0 61 -23q36 10 36 23l13 -8l30 8l12 -8q12 8 19 8l12 -8q34 11 49 24zM404 1248v-16l12 8q190 -108 190 -141q33 -51 116 -236q31 0 67 -227q19 -37 55 -244v-39q0 -8 -6 -8l6 -16v-16q0 -17 -6 -31l6 -16
q-18 -62 -18 -78q35 0 86 196l-7 16l7 16q-7 15 -7 23h7q0 107 -165 597q-104 220 -178 220l-36 8l-13 -8l-12 8q-89 -16 -104 -16zM99 887v-8h6q23 97 98 189q92 109 171 109v24q-34 8 -49 8q-68 -35 -208 -236zM99 667q44 -354 85 -354q32 -60 110 -109l12 7h7
q90 -39 250 -133h12l31 8v15l-31 71q-14 0 -18 39q-20 0 -61 87v31q0 12 24 32q-12 28 -12 62q6 24 37 24q41 -67 92 -181q12 0 48 -94h7q91 117 91 196q0 219 -128 527q-149 175 -171 212l-74 39q-105 0 -232 -173q-79 -196 -79 -306zM551 1075l55 -70v-16h12
q-16 55 -55 86h-12zM68 565v-16h6v16h-6zM710 141q16 -39 24 -40q41 52 68 173v8zM331 133v-8q29 -39 85 -39q-34 47 -85 47zM618 62v-16h12v16h-12z" />
    <glyph glyph-name="r" unicode="r" horiz-adv-x="805" 
d="M251 1325q6 0 18 -6l12 6q22 -19 133 -32q76 -35 126 -108v-7h-12v-12q30 0 30 -64h-6q18 -46 18 -51q0 -57 -66 -96h-12l-12 6q0 -19 -109 -57q0 6 -6 6q0 -20 -126 -82h-6q9 -56 144 -211l139 -198q43 -71 211 -274q0 -10 102 -166v-12l-36 -13q-43 6 -121 108
q-84 74 -84 121l-12 -6q-72 66 -120 153q-48 58 -199 300q-50 42 -72 76q-7 0 -18 7v-7l24 -242q0 -6 -6 -6l6 -32q-8 -147 -18 -147l6 -13v-6q0 -6 -6 -6l6 -13q0 -7 -6 -7l6 -12v-102q0 -22 18 -141l-6 -57h-12q-10 0 -18 38l-12 -6h-25q-12 0 -12 13l6 25q-6 13 -6 19h6
q-6 7 -12 109l6 38q-14 0 -18 45h6q-12 23 -12 51q0 6 6 6l-6 13v19q-18 0 -24 83h6l12 -7v13q-30 5 -30 19q12 7 18 7v6q-24 0 -24 51q6 12 6 19q-42 103 -42 128q0 6 6 6l-6 45v38q0 26 6 51q-6 25 -6 51v45q0 6 6 6l-6 13v6q0 7 6 7l-6 12l6 26l-30 223h6l-6 13
q30 78 78 121q-6 12 -6 19q9 0 42 26h37q13 0 24 -7q30 13 90 13zM131 1255l-7 -13v-25l31 6v-6q22 12 48 12h6q6 0 6 -6q11 6 18 6v7q-66 19 -102 19zM359 1248q2 -12 12 -12h12q0 12 -12 12h-12zM395 1242v-13q20 0 31 -51q18 0 36 -32l24 -19v7q0 57 -91 108zM46 1185h6
q12 0 12 12v7q-8 0 -18 -19zM251 1185h-72q-55 -25 -55 -32q0 -22 13 -109q-6 -12 -6 -19q12 -2 12 -12l-6 -32q12 -26 12 -39l-6 -12q12 -31 12 -77h12q107 38 162 179q0 32 12 76v38q0 35 -78 45zM40 1178v-12q24 -194 24 -275v-32h24v7q-18 312 -48 312zM408 1121
q7 -51 24 -51h6v6q0 35 -24 45h-6zM492 1083q0 -7 -18 -90q30 17 30 51v39h-12zM401 1070v-13h7v13h-7zM383 1006q0 -15 -18 -57h6q30 4 30 19q-6 12 -6 19q13 0 13 13l-13 6h-12zM22 898v-13h6v13h-6zM131 407v-13h6v13h-6z" />
    <glyph glyph-name="s" unicode="s" horiz-adv-x="682" 
d="M252 1336v-7l13 7q241 -40 294 -84q75 -31 119 -97q-50 -50 -50 -63h-13q-132 127 -238 133q-244 -18 -244 -153q-11 0 -12 -84v-14q425 -173 444 -229q65 0 88 -272q12 -23 12 -42v-41q0 -171 -118 -307l-82 -55h-19q-9 0 -18 28q-23 -14 -201 -63h-19q-6 0 -6 7l-12 -7
q-77 106 -126 132q-20 23 -50 105q-12 0 -12 14v27q0 10 19 21h18q122 -174 144 -174q29 0 57 -21q32 0 125 -7q57 7 81 28l13 -7q77 42 113 160l12 77q-42 205 -150 299q0 17 -88 35l-12 -7q-38 7 -38 21l-50 -14l-13 7q-10 -7 -25 -7v7q-12 -7 -18 -7q-7 0 -7 7l-81 -14
q-67 130 -106 181q0 59 -32 62q7 14 7 21q-13 0 -13 14v14q0 7 6 7l-6 14q0 153 119 285q59 63 175 63zM246 1280h-44q-66 0 -156 -125q-50 -116 -50 -160v-21q12 0 12 -14h6v7q-6 14 -6 21l13 7l-7 14q0 65 163 230q65 34 88 34l-6 14zM58 1002q0 -78 107 -202l12 7l25 -7
l13 7q86 -19 300 -104q-4 41 -213 125q-214 90 -231 118l6 14l-6 14l6 42v14q-6 0 -19 -28zM133 751v-6h25l-6 13q-12 -7 -19 -7zM215 63q0 -11 25 -21l31 7v7q-19 0 -19 7q-12 -7 -19 -7q-12 7 -18 7z" />
    <glyph glyph-name="t" unicode="t" horiz-adv-x="815" 
d="M638 1360q106 -13 267 -104q54 -29 54 -55l-18 -12q-29 0 -184 12q-12 -20 -12 -30h-12v30q-60 -12 -77 -12l-12 6q-12 -6 -18 -6q-33 6 -48 6q26 -78 42 -104v-12q0 -9 -24 -24q-3 0 -36 36h-6q0 -12 6 -12q0 -13 -6 -24q6 -80 6 -128v-25q0 -13 6 -24q-4 -25 -12 -25
q12 -20 12 -36v-6q0 -26 -6 -67q12 -25 12 -37q0 -6 -6 -6l12 -73h-6q6 -61 12 -61l-6 -43v-128q0 -6 -6 -6l12 -55q-6 -11 -6 -25q6 -12 6 -18h-6l6 -12v-13q0 -6 -6 -6l6 -12q0 -108 -41 -152q0 -7 5 -7q-11 -115 -23 -115l6 -13q0 -8 -18 -18h-24q-20 4 -42 110h6
q10 0 24 -55h6q18 35 18 153l-6 12l-12 -6h-12q-6 0 -30 30v6h6q16 0 36 -12v12q0 70 12 116q0 6 -6 6q0 7 6 19q-6 52 -6 85h6q-12 35 -12 79l6 13q-6 10 -6 24v12q0 19 6 19q0 42 -77 451q0 77 -24 183l-369 -73q-12 25 -12 37q31 24 65 24v-6q43 24 78 31q7 19 59 36
l12 -6q2 12 12 12l12 -6q2 12 12 12l30 -6q69 21 101 37q24 -5 24 -12l71 12l12 -6l65 18l12 -6q31 18 72 18l-36 25zM626 1268h6l30 7v-7q23 13 65 13l-6 12q-95 -10 -95 -25zM775 1256h6l29 6v6h-24q-11 -1 -11 -12zM560 1152v-18h6v18h-6zM543 914v-12h5v12h-5z" />
    <glyph glyph-name="u" unicode="u" horiz-adv-x="949" 
d="M133 1321l7 -15v-229l7 -51h-7l7 -15q0 -586 231 -834q59 -103 112 -103q182 32 182 88q77 93 77 148q-7 14 -7 22q16 0 21 103q0 8 -7 8l7 37v7l-7 37h7q0 7 -7 7l7 52q0 17 -7 30q7 14 7 22q0 42 -14 88l7 45q0 91 -21 191h7l-7 15q0 8 7 8q-24 247 -42 287v8
q0 11 28 29q53 0 126 -302v-37l-7 -15q14 0 21 -52h-7q23 -93 56 -184l-7 -15q14 -29 14 -52q0 -7 -7 -7l14 -81h-7q7 -14 7 -22q-40 -253 -133 -362q-154 -170 -322 -170q0 -7 -7 -7h-7q-238 49 -238 118q-89 130 -147 413h7l-14 37q0 8 7 8l-14 66h7q-70 268 -70 354v15
q9 111 21 111l-7 15q2 18 63 66q0 118 56 118zM70 1151q-14 -88 -14 -103q9 0 28 74q-7 13 -7 29h-7zM56 1041v-45h7v45h-7zM812 819v-51h14v14l-7 37h-7zM812 738v-7q0 -39 14 -155l-7 -15l7 -15l-7 -15l7 -37l-7 -73q21 0 28 110v45q0 16 -7 29q0 8 7 8l-21 140
q-14 -3 -14 -15z" />
    <glyph glyph-name="v" unicode="v" horiz-adv-x="822" 
d="M709 1336q0 -35 79 -63q6 -10 13 -77l-13 -7q13 -23 13 -42q0 -16 -7 -28l7 -43q-10 -28 -20 -28l7 -14q-93 -317 -111 -343l6 -14q0 -20 -13 -43q0 -7 7 -7q-13 -72 -13 -126l6 -14q-9 -49 -20 -49l7 -14v-35q0 -19 -13 -42q6 -38 6 -63v-7q-13 -17 -26 -113q-6 0 -6 -7
l6 -14q-13 -44 -13 -56q7 -12 7 -28q-36 -9 -66 -91l-46 -7h-6v63q0 7 6 7l-6 14v7h13v7q0 14 -13 14l6 14v28q-23 0 -32 42q13 0 13 14v7q-17 28 -33 127q-8 0 -59 98l7 14q-8 1 -230 407q-131 211 -196 337l52 49q69 -80 243 -372q83 -125 157 -295q52 -79 65 -154h13
l7 42q-7 0 -7 7q13 0 40 253q9 63 19 63l-6 14q6 84 39 203l-7 14q14 36 14 56q-7 0 -7 7h13v7q0 14 -13 14q20 32 26 85q7 0 7 7v7h-13q22 168 91 168zM657 1266v-7h13v7h-13zM690 1266v-14h6v14h-6zM683 1238v-14q13 0 13 14h-13zM736 1076q0 -9 -20 -42h6q10 0 20 21v21
h-6zM664 1048v-14h6v14h-6zM716 999v-14h6v14h-6zM690 936v-14h6v14h-6zM605 796v-14h6v14h-6z" />
    <glyph glyph-name="w" unicode="w" horiz-adv-x="1054" 
d="M1044 1336q7 -13 7 -20q-11 -18 -34 -236q7 -42 7 -102h-7q0 -6 7 -6l-7 -34q0 -120 -47 -520l6 -13q-6 -34 -13 -34l7 -13v-7q0 -7 -7 -7q0 -7 7 -7q-35 -175 -68 -175q27 -41 27 -95l-14 -6l7 -14q0 -9 -20 -20l-7 13q-20 0 -20 -20h-34q-30 32 -143 371v48
q-20 0 -20 20l14 27h-7l-14 -7q0 17 -81 202q-14 17 -14 34q-20 -1 -61 -148q-15 -74 -34 -101q7 -38 7 -54q-34 -46 -34 -81v-7q0 -18 14 -41l-14 -6h-6q-21 0 -21 74q-9 0 -54 -135q-21 -33 -54 -122q-8 0 -82 -94q-18 0 -40 94q-41 7 -41 21q0 6 7 6q-7 14 -7 21
q0 57 7 168q0 134 -102 520h7q-19 38 -41 209q0 7 7 7q-20 68 -34 182q10 27 20 27h14q23 0 34 -88h13q18 62 48 75h13q68 -66 68 -243q0 -61 -27 -162q61 -279 115 -466q7 -70 7 -81h14q0 92 47 169l-7 13v14q16 40 21 40l-7 14q27 69 27 74l-7 14q26 38 55 134
q61 117 61 162q8 0 47 48q11 0 27 13h14v-27h6v47h14v-13h7v7q-7 13 -7 20l48 13q0 -11 47 -27l-54 -141v-7q20 -22 34 -81q18 0 47 -88q27 0 34 -54q47 0 75 -33v-27l-7 -34l13 -7l7 47v75q0 6 7 6l-7 14v40q0 15 7 27q-7 13 -7 20q0 31 20 61q-20 0 -20 14q16 47 20 47
q-6 13 -6 20l6 14l-6 13q10 27 20 27l-7 14q0 11 14 40q-7 13 -7 20q14 0 41 149q28 38 47 135q37 20 61 20zM129 1161v-7q0 -86 27 -169h7v81q-21 88 -21 95h-13zM75 1053q13 -23 13 -41h7v14q-7 11 -7 27h-13zM156 972v-14h7v14h-7zM617 810v-7q0 -10 20 -20v6
q-6 14 -6 21h-14zM658 810v-7h13v7h-13zM481 688v-7h7l48 122q-21 -13 -55 -115zM631 776v-20l13 -21l-7 -13q14 -2 68 -135q12 -49 34 -61q0 -25 14 -40v-7l-7 -13l27 -21v14q-22 74 -27 74l7 14v6q-28 0 -61 128l13 -6v20l-20 -14l-41 95h-13zM692 762v-13h6v13h-6z
M454 735v-13h7v13h-7zM739 668q2 -13 14 -13v13h-14zM854 459v-14h7v14h-7zM766 439v-14h7v14h-7zM231 371v-13h6v13h-6zM231 351v-14h6v14h-6zM237 317v-34h14l-7 34h-7z" />
    <glyph glyph-name="x" unicode="x" horiz-adv-x="840" 
d="M736 1311h33q14 -2 14 -14l-40 -123q-9 0 -27 -69h20q0 28 40 28l7 -14v-7q0 -28 -80 -151q-21 -6 -47 -75l-13 7q0 -35 -126 -219q0 -18 -13 -35q80 -110 133 -157l79 -124q0 -17 86 -212h-6q6 -12 6 -28l14 7q13 -26 13 -75l-27 -21h-26q-19 5 -113 261
q-46 106 -199 281q-20 0 -46 -69q-8 0 -34 -48q-39 -49 -39 -75q-24 0 -34 -55q-32 -21 -132 -247q-24 -34 -47 -34v7q-24 0 -79 -96h-20q-7 0 -7 7l-13 -7q-13 7 -20 7v20q46 61 86 144l-6 14l39 75q46 37 213 309q0 20 59 110q-67 0 -126 95l7 14q-33 19 -106 165l7 13
q-27 12 -54 83l7 13q-17 0 -66 172q-9 0 -27 41q5 23 40 41h20q8 0 26 -48l-6 -14q11 0 46 -55q86 0 86 -109q7 0 127 -220q42 -61 53 -61q0 -21 13 -21h7q43 74 66 144q129 166 139 213q0 6 47 109q11 48 46 103zM245 852v-14h13q0 14 -13 14zM265 824v-6q7 -14 7 -21
q13 0 13 14v7q-7 0 -20 6zM285 783v-7q12 0 40 -48h6l-6 -13q0 -11 26 -28v14h-13v34q-40 50 -40 62q-13 -2 -13 -14zM345 722v-14h6v14h-6zM358 694v-14h7v14h-7zM371 687v-13h7v13h-7z" />
    <glyph glyph-name="y" unicode="y" horiz-adv-x="784" 
d="M53 1357q132 -218 164 -246q28 -22 53 -89q15 0 29 -32l-6 -10q5 0 53 -74q12 -1 12 -10l-6 -11q25 -31 64 -31q118 143 165 231q92 225 164 225l12 -5q11 5 17 5l6 -11v-10q0 -18 -29 -53q0 -14 -30 -31l6 -10q-71 -127 -129 -210q6 -10 6 -16q-32 -23 -88 -167
q-10 0 -18 -16l12 -21q-20 -49 -64 -105q0 -12 -6 -21q0 -10 29 -105h-6l6 -10v-16q0 -5 -6 -5q6 -16 12 -16q-6 -42 -18 -78l12 -27q-6 -52 -12 -52l6 -10v-37q0 -12 -6 -21q6 -9 6 -21v-16q0 -5 -6 -5q6 -13 18 -99l-6 -11q12 -21 12 -31q-6 -11 -6 -16q9 -17 18 -47
q-20 -11 -36 -11q0 5 -5 5q0 -10 -12 -10q-47 0 -47 241q0 362 -47 362q-20 47 -29 47q-25 64 -71 115q0 23 -41 31l6 11v5l-12 -5l-5 10l5 11q-17 0 -17 10q6 9 6 21q-20 0 -77 136q-7 0 -58 100q6 0 6 5q-15 0 -36 58q9 37 24 37h6v-11q12 0 12 11q-22 0 -65 110v5
q0 34 53 47zM194 875v-11h5v11h-5zM264 770v-5h12v5h-12zM287 770v-10h12q0 10 -12 10zM282 754v-20h11v5q-6 10 -6 15h-5zM481 754v-10h6v10h-6zM323 744v-5h11v5h-11zM299 734v-6h12v6h-12zM446 461v-5h11v5h-11zM446 430v-11h6v11h-6z" />
    <glyph glyph-name="z" unicode="z" horiz-adv-x="900" 
d="M846 1343h17q0 -18 12 -37v-15q-11 -30 -103 -59q-39 -23 -41 -73q-22 -51 -91 -140q-32 -135 -172 -354q-144 -179 -154 -265q-11 -10 -69 -133q147 -17 177 -37q6 0 6 7l23 -7q145 7 195 7q0 -17 57 -29q11 -48 11 -66q-5 0 -5 -8q51 -7 63 -15q0 8 5 8q0 -11 23 -22
q10 7 23 7q6 0 6 -7l11 7h12q32 -34 34 -52l-17 -44q6 0 6 -7q-12 -8 -18 -8q-189 8 -189 23l-11 -8h-23q-20 0 -51 8q-6 0 -6 -8l-29 8h-40l-17 14l-6 -14q-51 7 -51 14l-12 -7q-5 0 -5 7q-11 -7 -18 -7l-22 7q-10 -7 -23 -7l-6 15l-29 -8h-46q-5 0 -5 8l-12 -8h-11
q-6 0 -6 8l-11 -8q-6 0 -6 8l-29 -8h-5l-29 8q0 -15 -11 -15q-7 0 -18 7q-103 -19 -103 -66h-5q-21 14 -29 44q0 39 63 155q86 229 114 346q111 226 258 443q7 0 40 51q7 0 40 59q20 0 63 67q57 43 57 51q-5 0 -5 8q-23 -15 -63 -15q-6 0 -17 7q-34 -13 -132 -29v7
q-158 -59 -286 -81v7q-87 -44 -98 -44v30q0 80 172 118v7q-40 0 -46 7q-11 -7 -17 -7q-29 10 -29 52v7l18 29l57 -7h80q6 0 6 -7l11 7h40q6 0 6 -7l11 7h41q20 0 97 15l11 -8q50 10 63 23h6l29 -8v8q5 0 5 -8q13 0 23 8l69 -8q41 0 74 15q10 -7 23 -7zM565 1056h6
q12 0 12 14h-6q-12 -2 -12 -14zM520 997h5q9 0 23 29v7q-15 0 -28 -36zM491 967v-7h11q0 11 12 29h-6q-8 0 -17 -22zM428 716v-7q113 161 155 273h-6q-20 -18 -75 -118q-9 0 -34 -74q-6 0 -40 -74zM348 716v-7h6l11 7q6 -14 6 -22h6q5 0 45 96v8h-5q-25 -11 -69 -82z
M417 694v-14h5v14h-5zM216 363h6q48 54 137 265h-5q-109 -132 -138 -265zM165 355q0 -7 -29 -88v-8l29 45l-6 14v8h11v29h-5zM188 259q0 -16 -6 -29v-7h6q0 7 5 22v14h-5zM165 201v-15h11v15h-11z" />
    <glyph glyph-name="braceleft" unicode="{" 
 />
    <glyph glyph-name="bar" unicode="|" 
 />
    <glyph glyph-name="braceright" unicode="}" 
 />
    <glyph glyph-name="asciitilde" unicode="~" 
 />
    <glyph glyph-name="exclamdown" unicode="&#xa1;" horiz-adv-x="672" 
 />
    <glyph glyph-name="cent" unicode="&#xa2;" horiz-adv-x="1139" 
 />
    <glyph glyph-name="sterling" unicode="&#xa3;" 
 />
    <glyph glyph-name="currency" unicode="&#xa4;" 
 />
    <glyph glyph-name="yen" unicode="&#xa5;" horiz-adv-x="1262" 
 />
    <glyph glyph-name="brokenbar" unicode="&#xa6;" 
 />
    <glyph glyph-name="section" unicode="&#xa7;" 
 />
    <glyph glyph-name="dieresis" unicode="&#xa8;" horiz-adv-x="1024" 
 />
    <glyph glyph-name="copyright" unicode="&#xa9;" horiz-adv-x="1674" 
 />
    <glyph glyph-name="ordfeminine" unicode="&#xaa;" horiz-adv-x="648" 
 />
    <glyph glyph-name="guillemotleft" unicode="&#xab;" horiz-adv-x="944" 
 />
    <glyph glyph-name="logicalnot" unicode="&#xac;" 
 />
    <glyph glyph-name="registered" unicode="&#xae;" horiz-adv-x="1674" 
 />
    <glyph glyph-name="macron" unicode="&#xaf;" horiz-adv-x="670" 
 />
    <glyph glyph-name="degree" unicode="&#xb0;" horiz-adv-x="674" 
 />
    <glyph glyph-name="plusminus" unicode="&#xb1;" 
 />
    <glyph glyph-name="uni00B2" unicode="&#xb2;" 
 />
    <glyph glyph-name="uni00B3" unicode="&#xb3;" 
 />
    <glyph glyph-name="acute" unicode="&#xb4;" horiz-adv-x="1024" 
 />
    <glyph glyph-name="mu" unicode="&#xb5;" horiz-adv-x="1180" 
 />
    <glyph glyph-name="paragraph" unicode="&#xb6;" horiz-adv-x="1024" 
 />
    <glyph glyph-name="periodcentered" unicode="&#xb7;" horiz-adv-x="508" 
 />
    <glyph glyph-name="periodcentered" unicode="&#x2219;" horiz-adv-x="508" 
 />
    <glyph glyph-name="cedilla" unicode="&#xb8;" horiz-adv-x="1024" 
 />
    <glyph glyph-name="uni00B9" unicode="&#xb9;" 
 />
    <glyph glyph-name="ordmasculine" unicode="&#xba;" horiz-adv-x="718" 
 />
    <glyph glyph-name="guillemotright" unicode="&#xbb;" horiz-adv-x="944" 
 />
    <glyph glyph-name="onequarter" unicode="&#xbc;" horiz-adv-x="1708" 
 />
    <glyph glyph-name="onehalf" unicode="&#xbd;" horiz-adv-x="1964" 
 />
    <glyph glyph-name="threequarters" unicode="&#xbe;" horiz-adv-x="1708" 
 />
    <glyph glyph-name="questiondown" unicode="&#xbf;" horiz-adv-x="748" 
 />
    <glyph glyph-name="Agrave" unicode="&#xc0;" horiz-adv-x="1540" 
 />
    <glyph glyph-name="Aacute" unicode="&#xc1;" horiz-adv-x="1540" 
 />
    <glyph glyph-name="Acircumflex" unicode="&#xc2;" horiz-adv-x="1540" 
 />
    <glyph glyph-name="Atilde" unicode="&#xc3;" horiz-adv-x="1540" 
 />
    <glyph glyph-name="Adieresis" unicode="&#xc4;" horiz-adv-x="1540" 
 />
    <glyph glyph-name="Aring" unicode="&#xc5;" horiz-adv-x="1540" 
 />
    <glyph glyph-name="AE" unicode="&#xc6;" horiz-adv-x="2118" 
 />
    <glyph glyph-name="Ccedilla" unicode="&#xc7;" horiz-adv-x="1399" 
 />
    <glyph glyph-name="Egrave" unicode="&#xc8;" horiz-adv-x="1151" 
 />
    <glyph glyph-name="Eacute" unicode="&#xc9;" horiz-adv-x="1151" 
 />
    <glyph glyph-name="Ecircumflex" unicode="&#xca;" horiz-adv-x="1151" 
 />
    <glyph glyph-name="Edieresis" unicode="&#xcb;" horiz-adv-x="1151" 
 />
    <glyph glyph-name="Igrave" unicode="&#xcc;" horiz-adv-x="657" 
 />
    <glyph glyph-name="Iacute" unicode="&#xcd;" horiz-adv-x="657" 
 />
    <glyph glyph-name="Icircumflex" unicode="&#xce;" horiz-adv-x="657" 
 />
    <glyph glyph-name="Idieresis" unicode="&#xcf;" horiz-adv-x="657" 
 />
    <glyph glyph-name="Eth" unicode="&#xd0;" horiz-adv-x="1518" 
 />
    <glyph glyph-name="Ntilde" unicode="&#xd1;" horiz-adv-x="1554" 
 />
    <glyph glyph-name="Ograve" unicode="&#xd2;" horiz-adv-x="1614" 
 />
    <glyph glyph-name="Oacute" unicode="&#xd3;" horiz-adv-x="1614" 
 />
    <glyph glyph-name="Ocircumflex" unicode="&#xd4;" horiz-adv-x="1614" 
 />
    <glyph glyph-name="Otilde" unicode="&#xd5;" horiz-adv-x="1614" 
 />
    <glyph glyph-name="Odieresis" unicode="&#xd6;" horiz-adv-x="1614" 
 />
    <glyph glyph-name="multiply" unicode="&#xd7;" 
 />
    <glyph glyph-name="Oslash" unicode="&#xd8;" horiz-adv-x="1614" 
 />
    <glyph glyph-name="Ugrave" unicode="&#xd9;" horiz-adv-x="1501" 
 />
    <glyph glyph-name="Uacute" unicode="&#xda;" horiz-adv-x="1501" 
 />
    <glyph glyph-name="Ucircumflex" unicode="&#xdb;" horiz-adv-x="1501" 
 />
    <glyph glyph-name="Udieresis" unicode="&#xdc;" horiz-adv-x="1501" 
 />
    <glyph glyph-name="Yacute" unicode="&#xdd;" horiz-adv-x="1233" 
 />
    <glyph glyph-name="Thorn" unicode="&#xde;" horiz-adv-x="1120" 
 />
    <glyph glyph-name="germandbls" unicode="&#xdf;" horiz-adv-x="1251" 
 />
    <glyph glyph-name="agrave" unicode="&#xe0;" horiz-adv-x="922" 
 />
    <glyph glyph-name="aacute" unicode="&#xe1;" horiz-adv-x="922" 
 />
    <glyph glyph-name="acircumflex" unicode="&#xe2;" horiz-adv-x="922" 
 />
    <glyph glyph-name="atilde" unicode="&#xe3;" horiz-adv-x="922" 
 />
    <glyph glyph-name="adieresis" unicode="&#xe4;" horiz-adv-x="922" 
 />
    <glyph glyph-name="aring" unicode="&#xe5;" horiz-adv-x="922" 
 />
    <glyph glyph-name="ae" unicode="&#xe6;" horiz-adv-x="1454" 
 />
    <glyph glyph-name="ccedilla" unicode="&#xe7;" horiz-adv-x="905" 
 />
    <glyph glyph-name="egrave" unicode="&#xe8;" horiz-adv-x="909" 
 />
    <glyph glyph-name="eacute" unicode="&#xe9;" horiz-adv-x="909" 
 />
    <glyph glyph-name="ecircumflex" unicode="&#xea;" horiz-adv-x="909" 
 />
    <glyph glyph-name="edieresis" unicode="&#xeb;" horiz-adv-x="909" 
 />
    <glyph glyph-name="igrave" unicode="&#xec;" horiz-adv-x="514" 
 />
    <glyph glyph-name="iacute" unicode="&#xed;" horiz-adv-x="514" 
 />
    <glyph glyph-name="icircumflex" unicode="&#xee;" horiz-adv-x="514" 
 />
    <glyph glyph-name="idieresis" unicode="&#xef;" horiz-adv-x="514" 
 />
    <glyph glyph-name="eth" unicode="&#xf0;" horiz-adv-x="1139" 
 />
    <glyph glyph-name="ntilde" unicode="&#xf1;" horiz-adv-x="1108" 
 />
    <glyph glyph-name="ograve" unicode="&#xf2;" horiz-adv-x="1010" 
 />
    <glyph glyph-name="oacute" unicode="&#xf3;" horiz-adv-x="1010" 
 />
    <glyph glyph-name="ocircumflex" unicode="&#xf4;" horiz-adv-x="1010" 
 />
    <glyph glyph-name="otilde" unicode="&#xf5;" horiz-adv-x="1010" 
 />
    <glyph glyph-name="odieresis" unicode="&#xf6;" horiz-adv-x="1010" 
 />
    <glyph glyph-name="divide" unicode="&#xf7;" 
 />
    <glyph glyph-name="oslash" unicode="&#xf8;" horiz-adv-x="1010" 
 />
    <glyph glyph-name="ugrave" unicode="&#xf9;" horiz-adv-x="1059" 
 />
    <glyph glyph-name="uacute" unicode="&#xfa;" horiz-adv-x="1059" 
 />
    <glyph glyph-name="ucircumflex" unicode="&#xfb;" horiz-adv-x="1059" 
 />
    <glyph glyph-name="udieresis" unicode="&#xfc;" horiz-adv-x="1059" 
 />
    <glyph glyph-name="yacute" unicode="&#xfd;" horiz-adv-x="868" 
 />
    <glyph glyph-name="thorn" unicode="&#xfe;" horiz-adv-x="1010" 
 />
    <glyph glyph-name="ydieresis" unicode="&#xff;" horiz-adv-x="868" 
 />
    <glyph glyph-name="dotlessi" unicode="&#x131;" horiz-adv-x="514" 
 />
    <glyph glyph-name="circumflex" unicode="&#x2c6;" horiz-adv-x="1024" 
 />
    <glyph glyph-name="caron" unicode="&#x2c7;" horiz-adv-x="1024" 
 />
    <glyph glyph-name="uni02C9" unicode="&#x2c9;" horiz-adv-x="1024" 
 />
    <glyph glyph-name="breve" unicode="&#x2d8;" horiz-adv-x="1024" 
 />
    <glyph glyph-name="dotaccent" unicode="&#x2d9;" horiz-adv-x="1024" 
 />
    <glyph glyph-name="ring" unicode="&#x2da;" horiz-adv-x="1024" 
 />
    <glyph glyph-name="ogonek" unicode="&#x2db;" horiz-adv-x="1024" 
 />
    <glyph glyph-name="tilde" unicode="&#x2dc;" horiz-adv-x="1024" 
 />
    <glyph glyph-name="hungarumlaut" unicode="&#x2dd;" horiz-adv-x="1024" 
 />
    <glyph glyph-name="endash" unicode="&#x2013;" horiz-adv-x="1108" 
 />
    <glyph glyph-name="emdash" unicode="&#x2014;" horiz-adv-x="2048" 
 />
    <glyph glyph-name="quoteleft" unicode="&#x2018;" horiz-adv-x="446" 
d="M355 1450h4q8 -1 8 -8v-4q-12 -15 -12 -24l4 -8q-9 -33 -28 -68h4q12 0 12 -16h20q5 0 20 -20q-13 -48 -28 -48h-20q-72 16 -72 24q4 8 4 12q-8 13 -8 24q0 40 40 100q13 0 52 36zM299 1342h12l4 20q-16 -4 -16 -20z" />
    <glyph glyph-name="quoteright" unicode="&#x2019;" horiz-adv-x="400" 
d="M268 1438h32q36 -12 36 -32q-65 -164 -92 -176h-8v4q16 26 32 64q-54 -52 -68 -52l-4 8v4q13 26 48 44l36 40q-19 0 -56 12q0 22 -4 56q0 22 48 28zM280 1398l-20 -16h12q10 8 16 8q0 8 -8 8z" />
    <glyph glyph-name="quotesinglbase" unicode="&#x201a;" horiz-adv-x="557" 
 />
    <glyph glyph-name="quotedblleft" unicode="&#x201c;" horiz-adv-x="559" 
d="M518 1440l4 -8q0 -8 -8 -8h-4v8q1 8 8 8zM318 1424h4q8 -1 8 -8v-4q-12 -15 -12 -24l4 -8q-9 -33 -28 -68h4q12 0 12 -16h20q5 0 20 -20q-13 -48 -28 -48h-20q-72 16 -72 24q4 8 4 12q-8 13 -8 24q0 40 40 100q13 0 52 36zM478 1412h4q8 -1 8 -8q-42 -50 -60 -84
q31 -19 60 -24q0 -19 16 -32q-33 -29 -36 -44l-20 -4h-16q-32 0 -48 28q0 66 32 96q19 43 60 72zM262 1316h12l4 20q-16 -4 -16 -20zM414 1296v-8h8v8h-8z" />
    <glyph glyph-name="quotedblright" unicode="&#x201d;" horiz-adv-x="502" 
d="M229 1460q18 -8 20 -16l8 4h4q32 -23 32 -44h-4q0 -4 4 -4q0 -45 -52 -116q0 -14 -32 -56q-8 0 -8 8q4 0 24 52h-4q-25 -12 -36 -12l-8 12q55 23 72 52v8q-80 18 -80 40v4q20 60 32 60h4l-16 -56v-8q0 -9 20 -12v8q-12 0 -12 12q0 7 16 40q-4 7 -4 16zM381 1420h32
q36 -12 36 -32q-65 -164 -92 -176h-8v4q16 26 32 64q-54 -52 -68 -52l-4 8v4q13 26 48 44l36 40q-19 0 -56 12q0 22 -4 56q0 22 48 28zM393 1380l-20 -16h12q10 8 16 8q0 8 -8 8zM237 1372v-4l16 -4h8v4l-20 4h-4z" />
    <glyph glyph-name="quotedblbase" unicode="&#x201e;" horiz-adv-x="910" 
 />
    <glyph glyph-name="dagger" unicode="&#x2020;" 
 />
    <glyph glyph-name="daggerdbl" unicode="&#x2021;" 
 />
    <glyph glyph-name="bullet" unicode="&#x2022;" horiz-adv-x="1024" 
 />
    <glyph glyph-name="ellipsis" unicode="&#x2026;" horiz-adv-x="2048" 
 />
    <glyph glyph-name="guilsinglleft" unicode="&#x2039;" horiz-adv-x="631" 
 />
    <glyph glyph-name="guilsinglright" unicode="&#x203a;" horiz-adv-x="631" 
 />
    <glyph glyph-name="fraction" unicode="&#x2044;" horiz-adv-x="342" 
 />
    <glyph glyph-name="fraction" unicode="&#x2215;" horiz-adv-x="342" 
 />
    <glyph glyph-name="franc" unicode="&#x20a3;" 
 />
    <glyph glyph-name="lira" unicode="&#x20a4;" 
 />
    <glyph glyph-name="peseta" unicode="&#x20a7;" horiz-adv-x="2028" 
 />
    <glyph glyph-name="Euro" unicode="&#x20ac;" 
 />
    <glyph glyph-name="afii61352" unicode="&#x2116;" horiz-adv-x="2271" 
 />
    <glyph glyph-name="trademark" unicode="&#x2122;" horiz-adv-x="1497" 
 />
    <glyph glyph-name="partialdiff" unicode="&#x2202;" 
 />
    <glyph glyph-name="Delta" unicode="&#x2206;" horiz-adv-x="1081" 
 />
    <glyph glyph-name="product" unicode="&#x220f;" horiz-adv-x="1515" 
 />
    <glyph glyph-name="summation" unicode="&#x2211;" horiz-adv-x="1206" 
 />
    <glyph glyph-name="minus" unicode="&#x2212;" 
 />
    <glyph glyph-name="radical" unicode="&#x221a;" 
 />
    <glyph glyph-name="infinity" unicode="&#x221e;" 
 />
    <glyph glyph-name="integral" unicode="&#x222b;" horiz-adv-x="665" 
 />
    <glyph glyph-name="approxequal" unicode="&#x2248;" 
 />
    <glyph glyph-name="lessequal" unicode="&#x2264;" 
 />
    <glyph glyph-name="greaterequal" unicode="&#x2265;" 
 />
    <glyph glyph-name="uniF001" unicode="&#xf001;" horiz-adv-x="1073" 
 />
    <glyph glyph-name="uniF001" unicode="&#xfb01;" horiz-adv-x="1073" 
 />
    <glyph glyph-name="uniF002" unicode="&#xf002;" horiz-adv-x="1081" 
 />
    <glyph glyph-name="uniF002" unicode="&#xfb02;" horiz-adv-x="1081" 
 />
  </font>
</defs>
</svg>
