<?xml version="1.0" encoding="iso-8859-1"?>
<!-- Generator: Adobe Illustrator 19.0.0, SVG Export Plug-In . SVG Version: 6.00 Build 0)  -->
<svg version="1.1" id="Layer_1" xmlns="http://www.w3.org/2000/svg" xmlns:xlink="http://www.w3.org/1999/xlink" x="0px" y="0px"
	 viewBox="0 0 512 512" style="enable-background:new 0 0 512 512;" xml:space="preserve">
<g>
	<g>
		<path fill="#000" d="M432.726,318.556c-20.973-20.973-45.024-37.749-71.125-49.929c-27.743,29.47-65.053,47.157-105.601,47.157
			c-40.723,0-78.008-17.845-105.601-47.157c-26.102,12.18-50.152,28.955-71.125,49.929C32.069,365.761,6.071,428.524,6.071,495.283
			c0,9.232,7.485,16.717,16.717,16.717h466.423c9.232,0,16.717-7.485,16.717-16.717
			C505.929,428.524,479.933,365.761,432.726,318.556z"/>
	</g>
</g>
<g>
	<g>
		<path fill="#000" d="M256,0c-28.583,0-54.845,11.591-75.539,30.957h151.079C310.845,11.591,284.584,0,256,0z"/>
	</g>
</g>
<g>
	<g>
		<path fill="#000" d="M346.082,209.274H165.918c-5.662,0-11.194-0.554-16.566-1.567C169.717,252.129,209.834,282.35,256,282.35
			c46.166,0,86.283-30.221,106.648-74.643C357.276,208.721,351.744,209.274,346.082,209.274z"/>
	</g>
</g>
<g>
	<g>
		<path fill="#000" d="M346.082,64.391H165.918c-30.775,0-55.724,24.949-55.724,55.724c0,30.775,24.949,55.724,55.724,55.724h180.165
			c30.775,0,55.724-24.949,55.724-55.724C401.806,89.34,376.858,64.391,346.082,64.391z M331.785,136.833H180.215
			c-9.232,0-16.717-7.485-16.717-16.717c0-9.232,7.485-16.717,16.717-16.717h151.569c9.232,0,16.717,7.485,16.717,16.717
			C348.502,129.348,341.017,136.833,331.785,136.833z"/>
	</g>
</g>
<g>
</g>
<g>
</g>
<g>
</g>
<g>
</g>
<g>
</g>
<g>
</g>
<g>
</g>
<g>
</g>
<g>
</g>
<g>
</g>
<g>
</g>
<g>
</g>
<g>
</g>
<g>
</g>
<g>
</g>
</svg>
