<?xml version="1.0" encoding="iso-8859-1"?>
<!-- Generator: Adobe Illustrator 18.1.1, SVG Export Plug-In . SVG Version: 6.00 Build 0)  -->
<svg version="1.1" id="Capa_1" xmlns="http://www.w3.org/2000/svg" xmlns:xlink="http://www.w3.org/1999/xlink" x="0px" y="0px"
	 viewBox="0 0 32 32" style="enable-background:new 0 0 32 32;" xml:space="preserve">
<g>
	<path fill="#000" d="M29,8.21H16H3c-1.657,0-3,1.343-3,3v7.5c0,4.143,3.582,6.157,8,4.5c1.458-0.547,2.824-1.059,4-1.5
		c2.209-0.829,5.791-0.829,8,0c1.177,0.441,2.543,0.953,4,1.5c4.418,1.657,8-0.357,8-4.5v-7.5C32,9.553,30.657,8.21,29,8.21z
		 M10,16.21H8v2H6v-2H4v-2h2v-2h2v2h2V16.21z M25,12.21c0.553,0,1,0.447,1,1s-0.447,1-1,1s-1-0.447-1-1S24.447,12.21,25,12.21z
		 M23,16.21c-0.553,0-1-0.447-1-1s0.447-1,1-1s1,0.447,1,1S23.553,16.21,23,16.21z M25,18.21c-0.553,0-1-0.447-1-1s0.447-1,1-1
		s1,0.447,1,1S25.553,18.21,25,18.21z M27,16.21c-0.553,0-1-0.447-1-1s0.447-1,1-1s1,0.447,1,1S27.553,16.21,27,16.21z"/>
</g>
<g>
</g>
<g>
</g>
<g>
</g>
<g>
</g>
<g>
</g>
<g>
</g>
<g>
</g>
<g>
</g>
<g>
</g>
<g>
</g>
<g>
</g>
<g>
</g>
<g>
</g>
<g>
</g>
<g>
</g>
</svg>
