<?xml version="1.0" encoding="iso-8859-1"?>
<!-- Generator: Adobe Illustrator 19.0.0, SVG Export Plug-In . SVG Version: 6.00 Build 0)  -->
<svg version="1.1" id="Layer_1" xmlns="http://www.w3.org/2000/svg" xmlns:xlink="http://www.w3.org/1999/xlink" x="0px" y="0px"
	 viewBox="0 0 499.2 499.2" style="enable-background:new 0 0 499.2 499.2;" xml:space="preserve">
<polygon style="fill:#5EE5CF;" points="481.6,499.2 17.6,499.2 176.8,131.2 322.4,131.2 "/>
<path style="fill:#EA1F0A;" d="M303.2,153.6c0,24-24,42.4-53.6,42.4S196,176.8,196,153.6c0-24,24-42.4,53.6-42.4
	S303.2,129.6,303.2,153.6z"/>
<path style="fill:#C61109;" d="M287.2,123.2c20.8,16.8,20.8,44,0,60.8s-54.4,16.8-76,0"/>
<path style="fill:#EA1F0A;" d="M190.4,137.6c0,24-24,42.4-53.6,42.4s-53.6-19.2-53.6-42.4c0-24,24-42.4,53.6-42.4
	S190.4,114.4,190.4,137.6z"/>
<path style="fill:#C61109;" d="M174.4,107.2c20.8,16.8,20.8,44,0,60.8s-54.4,16.8-76,0"/>
<path style="fill:#EA1F0A;" d="M416,137.6c0,24-24,42.4-53.6,42.4s-53.6-19.2-53.6-42.4c0-24,24-42.4,53.6-42.4
	C392,95.2,416,114.4,416,137.6z"/>
<path style="fill:#C61109;" d="M400,107.2c20.8,16.8,20.8,44,0,60.8s-54.4,16.8-76,0"/>
<path style="fill:#343A3A;" d="M374.4,78.4C368,44,314.4,0,249.6,0S131.2,44,124.8,78.4c-67.2,7.2-111.2,20-111.2,34.4
	c0,22.4,105.6,40,236,40s236-18.4,236-40C485.6,98.4,440.8,85.6,374.4,78.4z"/>
<path style="fill:#1E2323;" d="M249.6,152.8c130.4,0,236-18.4,236-40c0-14.4-44.8-27.2-111.2-34.4C368,44,314.4,0,249.6,0"/>
<circle style="fill:#FFC41D;" cx="188" cy="79.2" r="15.2"/>
<path style="fill:#F4A211;" d="M198.4,68.8c5.6,5.6,5.6,15.2,0,21.6c-5.6,5.6-15.2,5.6-21.6,0"/>
<circle style="fill:#FFC41D;" cx="249.6" cy="79.2" r="15.2"/>
<path style="fill:#F4A211;" d="M260,68.8c5.6,5.6,5.6,15.2,0,21.6c-5.6,5.6-15.2,5.6-21.6,0"/>
<circle style="fill:#FFC41D;" cx="311.2" cy="79.2" r="15.2"/>
<path style="fill:#F4A211;" d="M322.4,68.8c5.6,5.6,5.6,15.2,0,21.6c-5.6,5.6-15.2,5.6-21.6,0"/>
<polygon style="fill:#39C9AD;" points="428.8,377.6 374.4,432 340.8,398.4 308.8,429.6 197.6,318.4 112,404.8 75.2,365.6 
	17.6,499.2 481.6,499.2 "/>
<polygon style="fill:#2ABA9E;" points="428.8,377.6 374.4,448 340.8,398.4 308.8,453.6 197.6,318.4 112,444 75.2,365.6 17.6,499.2 
	481.6,499.2 "/>
<path style="fill:#39C9AD;" d="M346.4,265.6c-1.6,0-3.2,0-4.8,0.8c-3.2-3.2-7.2-4.8-12-4.8h-0.8c-0.8-8.8-8-16-16.8-16
	c-7.2,0-12.8,4.8-15.2,10.4c-0.8,0-1.6,0-2.4,0c-6.4,0-12.8,4-15.2,9.6c-2.4-0.8-4-1.6-6.4-1.6c-9.6,0-16.8,7.2-16.8,16.8
	s7.2,16.8,16.8,16.8c0.8,0,1.6,0,2.4,0c3.2,4.8,8,8.8,14.4,8.8c4,0,7.2-1.6,9.6-3.2c3.2,4,8,6.4,12.8,6.4s8.8-1.6,12-4.8
	c1.6,0.8,3.2,0.8,4.8,0.8c5.6,0,10.4-2.4,13.6-6.4c1.6,0,2.4,0.8,4,0.8c9.6,0,16.8-7.2,16.8-16.8S355.2,265.6,346.4,265.6z"/>
<path style="fill:#2ABA9E;" d="M345.6,271.2c-1.6,0-3.2,0-4,0.8c-3.2-2.4-7.2-3.2-12-3.2h-0.8c-0.8-5.6-8-10.4-16.8-10.4
	c-7.2,0-12.8,3.2-15.2,7.2c-0.8,0-1.6,0-2.4,0c-6.4,0-12.8,2.4-15.2,6.4c-2.4-0.8-4-0.8-6.4-0.8c-8.8,0-16.8,4.8-16.8,11.2
	c0,6.4,7.2,11.2,16.8,11.2c0.8,0,1.6,0,2.4,0c3.2,3.2,8,5.6,14.4,5.6c4,0,7.2-0.8,9.6-2.4c3.2,2.4,8,4,12.8,4s8.8-1.6,12-3.2
	c1.6,0,3.2,0.8,4.8,0.8c5.6,0,10.4-1.6,13.6-4.8c1.6,0,2.4,0,4,0c8.8,0,16.8-4.8,16.8-11.2C361.6,276.8,354.4,271.2,345.6,271.2z"/>
<path style="fill:#39C9AD;" d="M164,249.6c1.6,0,2.4,0,3.2,0.8c2.4-2.4,5.6-4,9.6-4h0.8c0-7.2,6.4-12.8,13.6-12.8
	c5.6,0,10.4,3.2,12.8,8.8c0.8,0,0.8,0,1.6,0c5.6,0,10.4,3.2,12,8c1.6-0.8,3.2-0.8,5.6-0.8c7.2,0,13.6,6.4,13.6,13.6
	c0,7.2-5.6,13.6-13.6,13.6c-0.8,0-0.8,0-1.6,0c-2.4,4-6.4,7.2-12,7.2c-3.2,0-5.6-0.8-8-2.4c-2.4,3.2-6.4,4.8-10.4,4.8
	s-7.2-1.6-9.6-4c-1.6,0-2.4,0.8-4,0.8c-4.8,0-8-2.4-10.4-5.6c-0.8,0-2.4,0.8-3.2,0.8c-7.2,0-13.6-6.4-13.6-13.6
	C150.4,256,156,249.6,164,249.6z"/>
<path style="fill:#2ABA9E;" d="M164,254.4c1.6,0,2.4,0,3.2,0c2.4-1.6,5.6-2.4,9.6-2.4h0.8c0-4.8,6.4-8.8,13.6-8.8
	c5.6,0,10.4,2.4,12,5.6c0.8,0,0.8,0,1.6,0c5.6,0,9.6,2.4,12,5.6c1.6-0.8,3.2-0.8,5.6-0.8c7.2,0,13.6,4,13.6,8.8s-5.6,8.8-13.6,8.8
	c-0.8,0-0.8,0-1.6,0c-2.4,2.4-6.4,4.8-11.2,4.8c-3.2,0-5.6-0.8-8-1.6c-2.4,2.4-6.4,3.2-10.4,3.2s-7.2-0.8-9.6-2.4
	c-1.6,0-2.4,0.8-4,0.8c-4,0-8-1.6-10.4-4c-0.8,0-2.4,0-3.2,0c-7.2,0-13.6-4-13.6-8.8C151.2,258.4,156.8,254.4,164,254.4z"/>
<g>
</g>
<g>
</g>
<g>
</g>
<g>
</g>
<g>
</g>
<g>
</g>
<g>
</g>
<g>
</g>
<g>
</g>
<g>
</g>
<g>
</g>
<g>
</g>
<g>
</g>
<g>
</g>
<g>
</g>
</svg>
