<?xml version="1.0" encoding="iso-8859-1"?>
<!-- Generator: Adobe Illustrator 19.0.0, SVG Export Plug-In . SVG Version: 6.00 Build 0)  -->
<svg xmlns="http://www.w3.org/2000/svg" xmlns:xlink="http://www.w3.org/1999/xlink" version="1.1" id="Capa_1" x="0px" y="0px" viewBox="0 0 455 455" style="enable-background:new 0 0 455 455;" xml:space="preserve" width="512" height="512">
<g>
	<path style="fill:#1C1918;" d="M260.829,310.84c0,0.01-60,107.33-60,107.33l-59.99-107.32c18.47-7.71,38.73-11.96,59.99-11.96   S242.359,303.14,260.829,310.84z"/>
	<path style="fill:#3F3736;" d="M128.759,210.84l72.075-10l72.075,10c-11.75,28.22-39.6,48.05-72.08,48.05   C168.359,258.89,140.509,239.06,128.759,210.84z"/>
	<path style="fill:#3F3736;" d="M272.909,150.84l-72.075,10l-72.075-10c11.75-28.22,39.6-48.05,72.07-48.05   C233.309,102.79,261.159,122.62,272.909,150.84z"/>
	<path style="fill:#B2AFAF;" d="M363.609,30v284.59h30V0C377.039,0,363.609,13.43,363.609,30z"/>
	<rect x="356.939" y="314.59" style="fill:#FF382E;" width="43.33" height="140.41"/>
	<path style="fill:#3F3736;" d="M44.729,455h104.24l51.862-20v-46.84l-59.993-77.31C84.399,334.35,44.729,390.04,44.729,455z"/>
	<path style="fill:#655F5E;" d="M356.939,455h-207.97l111.86-144.15C317.269,334.35,356.939,390.04,356.939,455z"/>
	<path style="fill:#FFBC99;" d="M272.909,150.84c3.85,9.23,5.98,19.37,5.98,30c0,10.63-2.13,20.77-5.98,30h-144.15   c-3.85-9.23-5.98-19.37-5.98-30c0-10.63,2.13-20.77,5.98-30H272.909z"/>
	<path style="fill:#DE2F1B;" d="M402.771,322.086h-48.333c-4.143,0-7.5-3.357-7.5-7.5s3.357-7.5,7.5-7.5h48.333   c4.143,0,7.5,3.357,7.5,7.5S406.914,322.086,402.771,322.086z"/>
	<path style="fill:#3F3736;" d="M181.131,194.341c-3.628,0-6.655-2.577-7.35-6h-9.92c-4.143,0-7.5-3.357-7.5-7.5s3.357-7.5,7.5-7.5   h17.27c4.143,0,7.5,3.357,7.5,7.5v6C188.631,190.983,185.273,194.341,181.131,194.341z"/>
	<path style="fill:#3F3736;" d="M220.533,194.341c-4.143,0-7.5-3.357-7.5-7.5v-6c0-4.143,3.357-7.5,7.5-7.5h17.27   c4.143,0,7.5,3.357,7.5,7.5s-3.357,7.5-7.5,7.5h-9.92C227.188,191.764,224.161,194.341,220.533,194.341z"/>
</g>















</svg>
