<?xml version="1.0" encoding="iso-8859-1"?>
<!-- Generator: Adobe Illustrator 19.0.0, SVG Export Plug-In . SVG Version: 6.00 Build 0)  -->
<svg xmlns="http://www.w3.org/2000/svg" xmlns:xlink="http://www.w3.org/1999/xlink" version="1.1" id="Capa_1" x="0px" y="0px" viewBox="0 0 455 455" style="enable-background:new 0 0 455 455;" xml:space="preserve" width="512" height="512">
<g>
	<path style="fill:#FFC743;" d="M418.93,160.03H36.07c-11.04,0-20,8.95-20,20v83.32c0,11.05,8.96,20,20,20h382.86   c11.04,0,20-8.95,20-20v-83.32C438.93,168.98,429.97,160.03,418.93,160.03z"/>
	<path style="fill:#FFE3A1;" d="M409.5,220.024c0-100.516-81.484-182-182-182s-182,81.484-182,182v63.326l60.57,62.01l25.22,85.66   c3.88,13.19,18.31,23.98,32.06,23.98h128.3c13.75,0,28.18-10.79,32.06-23.98l25.22-85.66l60.57-62.01V220.024z"/>
	<path style="fill:#FFD572;" d="M227.5,400c-30.376,0-55,24.624-55,55h110C282.5,424.624,257.876,400,227.5,400z"/>
	<path style="fill:#FFB914;" d="M269.5,271.267c-6.18,0-11.629,3.117-14.87,7.861c-4.806-10.159-15.145-17.189-27.13-17.189   s-22.324,7.03-27.13,17.189c-3.241-4.745-8.69-7.861-14.87-7.861c-9.941,0-18,8.059-18,18s8.059,18,18,18   c5.362,0,10.162-2.358,13.46-6.078c3.9,12.041,15.2,20.75,28.54,20.75s24.64-8.709,28.54-20.75c3.298,3.72,8.098,6.078,13.46,6.078   c9.941,0,18-8.059,18-18S279.441,271.267,269.5,271.267z"/>
	<path style="fill:#FF382E;" d="M257.5,209.94v24.31c0,13.33,10.81,24.13,24.14,24.13h44.23c13.33,0,24.13-10.8,24.13-24.13v-24.31   l-46.25-10L257.5,209.94z"/>
	<path style="fill:#FFB914;" d="M335,179.94h-77.5v30H365C365,193.44,351.5,179.94,335,179.94z"/>
	<path style="fill:#FF382E;" d="M197.5,209.94v24.31c0,13.33-10.81,24.13-24.14,24.13h-44.23c-13.33,0-24.13-10.8-24.13-24.13   v-24.31l46.25-10L197.5,209.94z"/>
	<path style="fill:#FFC743;" d="M227.5,157.566c-4.143,0-7.5,3.357-7.5,7.5v69.184h15v-69.184   C235,160.924,231.643,157.566,227.5,157.566z"/>
	<path style="fill:#FFFFFF;" d="M188.029,354.215v17.725c0,4.143,3.357,7.5,7.5,7.5s7.5-3.357,7.5-7.5v-17.725H188.029z"/>
	<path style="fill:#FFFFFF;" d="M251.971,354.215v17.725c0,4.143,3.357,7.5,7.5,7.5s7.5-3.357,7.5-7.5v-17.725H251.971z"/>
	<path style="fill:#FFB914;" d="M227.5,427.5c-4.143,0-7.5,3.357-7.5,7.5v20h15v-20C235,430.857,231.643,427.5,227.5,427.5z"/>
	<path style="fill:#FF382E;" d="M226.911,369.439c-23.854,0-46.016-10.726-60.801-29.428c-2.568-3.249-2.017-7.966,1.232-10.535   c3.25-2.566,7.966-2.016,10.535,1.232c11.922,15.081,29.794,23.73,49.033,23.73c19.238,0,37.11-8.649,49.032-23.729   c2.568-3.249,7.286-3.799,10.535-1.232c3.249,2.569,3.801,7.286,1.232,10.535C272.926,358.714,250.765,369.439,226.911,369.439z"/>
	<path style="fill:#FFD572;" d="M93.88,0c0,0,6.35,93.53,6.34,93.53l63.87-11.01L93.88,0"/>
	<polyline style="fill:#FFD572;" points="361.12,0 354.77,93.53 290.91,82.52 361.12,0  "/>
	<path style="fill:#FFB914;" d="M197.5,179.94H120c-16.5,0-30,13.5-30,30h107.5V179.94z"/>
</g>















</svg>
