<?xml version="1.0" encoding="iso-8859-1"?>
<!-- Generator: Adobe Illustrator 19.0.0, SVG Export Plug-In . SVG Version: 6.00 Build 0)  -->
<svg version="1.1" id="Layer_1" xmlns="http://www.w3.org/2000/svg" xmlns:xlink="http://www.w3.org/1999/xlink" x="0px" y="0px"
	 viewBox="0 0 512.001 512.001" style="enable-background:new 0 0 512.001 512.001;" xml:space="preserve">
<g>
	<circle style="fill:#7A645A;" cx="115.613" cy="41.29" r="33.032"/>
	<circle style="fill:#7A645A;" cx="396.388" cy="41.29" r="33.032"/>
</g>
<path style="fill:#9F8976;" d="M470.711,313.807c0,118.581-96.129,198.194-214.71,198.194S41.29,432.388,41.29,313.807
	S87.251,0,256.001,0S470.711,195.226,470.711,313.807z"/>
<path style="fill:#BE9178;" d="M409.172,83.082c-94.301-23.962-86.076,166.207-70.591,189.434h-82.581H173.42
	c15.484-23.226,23.71-213.395-70.591-189.433C56.838,150.39,41.29,244.979,41.29,313.807c0,118.581,96.129,198.194,214.71,198.194
	s214.71-79.613,214.71-198.194C470.711,244.979,455.163,150.39,409.172,83.082z"/>
<path style="fill:#7A645A;" d="M403.217,379.872c0,47.205-7.39,82.306-147.097,82.306s-147.097-35.102-147.097-82.306H403.217z"/>
<path style="fill:#877364;" d="M365.904,269.522c-33.172-30.016-80.41-30.039-109.785-30.039c-29.419,0-76.73,0.022-109.952,30.039
	c-40.057,36.193-47.07,82.576-47.07,120.111c0,33.797,109.626-0.011,157.023-0.011c47.325,0,156.784,33.809,156.784,0.011
	C412.904,352.098,405.901,305.715,365.904,269.522z"/>
<g>
	<ellipse style="fill:#464655;" cx="119.742" cy="123.871" rx="12.387" ry="16.516"/>
	<ellipse style="fill:#464655;" cx="392.259" cy="123.871" rx="12.387" ry="16.516"/>
</g>
<g>
	<circle style="fill:#7A645A;" cx="222.968" cy="280.775" r="16.516"/>
	<circle style="fill:#7A645A;" cx="289.033" cy="280.775" r="16.516"/>
</g>
<g>
</g>
<g>
</g>
<g>
</g>
<g>
</g>
<g>
</g>
<g>
</g>
<g>
</g>
<g>
</g>
<g>
</g>
<g>
</g>
<g>
</g>
<g>
</g>
<g>
</g>
<g>
</g>
<g>
</g>
</svg>
