<?xml version="1.0" encoding="iso-8859-1"?>
<!-- Generator: Adobe Illustrator 19.0.0, SVG Export Plug-In . SVG Version: 6.00 Build 0)  -->
<svg version="1.1" id="Layer_1" xmlns="http://www.w3.org/2000/svg" xmlns:xlink="http://www.w3.org/1999/xlink" x="0px" y="0px"
	 viewBox="0 0 512 512" style="enable-background:new 0 0 512 512;" xml:space="preserve">
<g>
	<path style="fill:#707487;" d="M141.241,229.517h-17.655c-4.875,0-8.828-3.953-8.828-8.828v-44.138
		c0-4.875,3.953-8.828,8.828-8.828h17.655V229.517z"/>
	<path style="fill:#707487;" d="M370.759,167.724h17.655c4.875,0,8.828,3.953,8.828,8.828v44.138c0,4.875-3.953,8.828-8.828,8.828
		h-17.655V167.724z"/>
</g>
<path style="fill:#E6AF78;" d="M335.448,347.948v-47.81H176.552v47.81c0,8.193-5.636,15.309-13.611,17.186L53.706,390.837
	c-15.95,3.752-27.223,17.985-27.223,34.37v69.138c0,9.751,7.904,17.655,17.655,17.655h423.724c9.751,0,17.655-7.904,17.655-17.655
	v-69.138c0-16.386-11.273-30.618-27.223-34.371l-109.235-25.703C341.085,363.257,335.448,356.141,335.448,347.948z"/>
<path style="fill:#00D2D7;" d="M458.294,390.836l-97.514-22.944c-7.211,51.484-51.308,91.143-104.78,91.143
	s-97.569-39.659-104.78-91.144l-97.514,22.944c-15.95,3.754-27.223,17.987-27.223,34.372v69.138c0,9.751,7.904,17.655,17.655,17.655
	h423.724c9.751,0,17.655-7.904,17.655-17.655v-69.138C485.517,408.822,474.244,394.589,458.294,390.836z"/>
<path style="fill:#D29B6E;" d="M176.552,347.948c0,5.927-2.975,11.257-7.625,14.482c104.728,52.467,166.521-51.283,166.521-51.283
	v-11.009H176.552V347.948z"/>
<path style="fill:#F0C087;" d="M141.241,97.103l7.692,169.237c0.718,15.81,8.47,30.472,21.131,39.967l36.501,27.375
	c9.169,6.876,20.319,10.593,31.779,10.593h35.31c11.46,0,22.611-3.717,31.779-10.593l36.5-27.375
	c12.661-9.496,20.413-24.157,21.131-39.967l7.693-169.237H141.241z"/>
<g>
	<path style="fill:#00B9BE;" d="M91.289,454.709l-57.203-51.384c-4.793,6.069-7.604,13.707-7.604,21.884v69.137
		c0,9.751,7.904,17.655,17.655,17.655h61.793v-24.456C105.931,475.017,100.608,463.081,91.289,454.709z"/>
	<path style="fill:#00B9BE;" d="M420.711,454.709l57.203-51.384c4.793,6.069,7.604,13.707,7.604,21.884v69.137
		c0,9.751-7.904,17.655-17.655,17.655h-61.793v-24.456C406.069,475.017,411.392,463.081,420.711,454.709z"/>
</g>
<path style="fill:#E6AF78;" d="M220.625,150.005c57.956-0.863,107.048-10.638,150.134-40.764V97.103H141.241l7.692,169.236
	c0.718,15.811,8.47,30.473,21.132,39.969l36.5,27.374c9.169,6.876,20.32,10.593,31.779,10.593H256
	c-15.654-5.218-28.182-31.976-35.843-53.027c0.754,0.011,1.505,0.062,2.259,0.062h67.17c12.882,0,25.725-1.41,38.3-4.204
	l32.717-7.271c1.368-4.34,2.253-8.855,2.464-13.495l4.851-106.738c-1.502-0.415-3.052-0.706-4.681-0.706H211.862v-0.097
	C211.862,153.962,215.788,150.077,220.625,150.005z"/>
<path style="fill:#5A4146;" d="M123.586,88.276v8.828l8.828,97.103h17.655l17.655-70.621c0,0,114.759,17.655,176.552-17.655
	l17.655,88.276h17.655l8.828-97.103v-8.828C388.414,39.522,348.892,0,300.138,0h-88.276C163.108,0,123.586,39.522,123.586,88.276z"
	/>
<path style="fill:#515262;" d="M363.238,141.241H148.762c-9.226,0-16.896,7.103-17.603,16.301l-6.399,83.19
	c-0.674,8.76,5.196,16.683,13.773,18.589l45.581,10.13c12.575,2.794,25.418,4.204,38.3,4.204h67.17c12.882,0,25.725-1.41,38.3-4.204
	l45.581-10.13c8.577-1.906,14.447-9.828,13.773-18.589l-6.399-83.19C380.132,148.344,372.462,141.241,363.238,141.241z"/>
<path style="fill:#464655;" d="M344.791,158.897H167.209c-4.126,0-7.701,2.858-8.61,6.882l-12.26,54.262
	c-0.943,4.175,1.245,8.426,5.192,10.084l53.388,22.43c5.413,2.274,11.225,3.445,17.096,3.445h67.972
	c5.871,0,11.683-1.171,17.096-3.445l53.388-22.43c3.947-1.658,6.135-5.909,5.192-10.084l-12.26-54.262
	C352.492,161.754,348.917,158.897,344.791,158.897z"/>
<path style="fill:#5B5D6E;" d="M168.424,215.096l7.025-56.2h-8.239c-4.126,0-7.701,2.858-8.61,6.882l-12.26,54.262
	c-0.943,4.175,1.245,8.426,5.192,10.084l53.389,22.431c5.412,2.273,11.224,3.444,17.095,3.444h2.207l-51.716-32.323
	C169.589,221.855,167.997,218.507,168.424,215.096z"/>
<path style="fill:#D2A073;" d="M256,304.9c-10.327,0-20.586-1.854-29.664-5.354c-4.543-1.759-6.81-6.867-5.052-11.418
	c1.759-4.552,6.897-6.802,11.414-5.056c14.138,5.457,32.466,5.457,46.603,0c4.526-1.746,9.655,0.504,11.414,5.056
	c1.759,4.552-0.509,9.66-5.052,11.418C276.586,303.048,266.327,304.9,256,304.9z"/>
<path style="fill:#5B5D6E;" d="M343.576,215.096l-7.025-56.2h8.239c4.126,0,7.701,2.858,8.61,6.882l12.26,54.262
	c0.943,4.175-1.245,8.426-5.192,10.084l-53.389,22.431c-5.412,2.273-11.224,3.444-17.095,3.444h-2.207l51.716-32.323
	C342.411,221.855,344.003,218.507,343.576,215.096z"/>
<g>
</g>
<g>
</g>
<g>
</g>
<g>
</g>
<g>
</g>
<g>
</g>
<g>
</g>
<g>
</g>
<g>
</g>
<g>
</g>
<g>
</g>
<g>
</g>
<g>
</g>
<g>
</g>
<g>
</g>
</svg>
