<?xml version="1.0" encoding="iso-8859-1"?>
<!-- Generator: Adobe Illustrator 19.0.0, SVG Export Plug-In . SVG Version: 6.00 Build 0)  -->
<svg version="1.1" id="Layer_1" xmlns="http://www.w3.org/2000/svg" xmlns:xlink="http://www.w3.org/1999/xlink" x="0px" y="0px"
	 viewBox="0 0 512 512" style="enable-background:new 0 0 512 512;" xml:space="preserve">
<path style="fill:#464655;" d="M380.784,123.613c-6.087-0.294-11.953,1.815-16.388,6.03c-4.436,4.207-6.879,9.897-6.879,16.009
	c0,0.782,0,66.207,0,66.207c0,4.875-3.953,8.828-8.828,8.828c-4.875,0-8.828-3.953-8.828-8.828V50.299
	c0-12.513-9.362-23.186-20.866-23.789c-6.056-0.314-11.957,1.818-16.392,6.03c-4.435,4.212-6.88,9.897-6.88,16.009
	c0,0.782,0,110.345,0,110.345c0,4.875-3.953,8.828-8.828,8.828s-8.828-3.953-8.828-8.828V22.067c0-6.112-2.444-11.797-6.879-16.009
	c-4.427-4.211-10.22-6.327-16.392-6.03c-11.506,0.604-20.867,11.276-20.867,23.789v126.25c0,4.875-3.953,8.828-8.828,8.828
	s-8.828-3.953-8.828-8.828c0,0,0-100.734,0-101.517c0-6.112-2.444-11.797-6.879-16.009c-4.431-4.211-10.189-6.327-16.392-6.03
	c-11.506,0.604-20.867,11.276-20.867,23.789v55.627v4.414v57.382c0,4.875-3.953,8.828-8.828,8.828c-4.875,0-8.828-3.953-8.828-8.828
	v-63.543c0-6.112-2.444-11.797-6.879-16.009c-4.427-4.211-10.229-6.332-16.392-6.03c-11.506,0.604-20.867,11.276-20.867,23.789
	v119.106c0,25.354,4.541,50.485,13.429,74.23c5.391,14.403,11.601,30.943,17.02,45.255c9.065,23.943,13.689,49.316,13.689,74.918
	v83.735c0,4.875,3.953,8.828,8.828,8.828h176.552c4.875,0,8.828-3.953,8.828-8.828V361.928c0.191,0,0.367,0.052,0.558,0.056
	c1.164-9.907,4.342-19.499,9.506-28.104l35.353-58.922c4.53-7.548,7.548-16.479,7.548-35.518v-92.052
	C401.655,134.88,392.293,124.216,380.784,123.613z"/>
<path style="fill:#515262;" d="M348.69,476.69H154.483c-4.875,0-8.828-3.953-8.828-8.828v-26.483c0-4.875,3.953-8.828,8.828-8.828
	H348.69c4.875,0,8.828,3.953,8.828,8.828v26.483C357.517,472.737,353.565,476.69,348.69,476.69z"/>
<path style="fill:#707487;" d="M304.552,485.517h-44.138c-4.875,0-8.828-3.953-8.828-8.828v-44.138c0-4.875,3.953-8.828,8.828-8.828
	h44.138c4.875,0,8.828,3.953,8.828,8.828v44.138C313.379,481.565,309.427,485.517,304.552,485.517z"/>
<g>
	<path style="fill:#00D2D7;" d="M204.759,335.62c-36.845-7.37-63.518-63.22-63.518-97.276c0-2.44-1.974-4.414-4.414-4.414H128
		c-2.44,0-4.414,1.974-4.414,4.414c0,40.384,30.276,105.095,77.725,114.586c0.285,0.056,0.577,0.086,0.862,0.086
		c0.862,0,1.716-0.254,2.449-0.742c0.974-0.651,1.655-1.66,1.879-2.81l1.725-8.655C208.698,338.422,207.155,336.099,204.759,335.62z
		"/>
	<path style="fill:#00D2D7;" d="M203.034,220.69c0-2.44-1.974-4.414-4.414-4.414h-8.828c-2.44,0-4.414,1.974-4.414,4.414
		c0,17.983,0,72.707,18.586,109.879c0.776,1.547,2.336,2.44,3.948,2.44c0.664,0,1.336-0.151,1.974-0.466l7.896-3.948
		c2.182-1.09,3.06-3.742,1.974-5.922C203.034,289.224,203.034,237.642,203.034,220.69z"/>
	<path style="fill:#00D2D7;" d="M387.423,236.082c-0.724-0.918-1.793-1.508-2.966-1.638l-8.776-0.974
		c-2.5-0.258-4.586,1.483-4.871,3.887c-0.082,0.698-8.383,66.198-63.215,93.962c18.486-28.035,19.026-102.242,19.026-110.63
		c0-2.44-1.974-4.414-4.414-4.414h-8.828c-2.44,0-4.414,1.974-4.414,4.414c0,21.357-2.905,81.138-16.172,101.035
		c-0.647,0.974-0.888,2.164-0.655,3.315c0.233,1.146,0.905,2.155,1.879,2.806l7.345,4.897c0.552,0.367,1.183,0.451,1.802,0.546
		c-2.035,0.916-3.974,1.912-6.13,2.721c-1.095,0.414-1.983,1.241-2.465,2.306c-0.483,1.069-0.526,2.284-0.113,3.38l3.104,8.267
		c0.664,1.771,2.345,2.862,4.129,2.862c0.517,0,1.043-0.09,1.551-0.28c74.474-27.932,85.017-112.358,85.121-113.207
		C388.491,238.173,388.156,237,387.423,236.082z"/>
	<path style="fill:#00D2D7;" d="M260.414,207.448h-8.828c-2.44,0-4.414,1.974-4.414,4.414v123.586c0,2.44,1.974,4.414,4.414,4.414
		h8.828c2.44,0,4.414-1.974,4.414-4.414V211.862C264.828,209.422,262.853,207.448,260.414,207.448z"/>
</g>
<path style="fill:#515262;" d="M304.552,406.069H198.621c-4.875,0-8.828-3.953-8.828-8.828v-70.621c0-4.875,3.953-8.828,8.828-8.828
	h105.931c4.875,0,8.828,3.953,8.828,8.828v70.621C313.379,402.116,309.427,406.069,304.552,406.069z"/>
<path style="fill:#959CB3;" d="M295.724,370.758h-88.276c-4.875,0-8.828-3.953-8.828-8.828v-17.655c0-4.875,3.953-8.828,8.828-8.828
	h88.276c4.875,0,8.828,3.953,8.828,8.828v17.655C304.552,366.806,300.599,370.758,295.724,370.758z"/>
<g>
	<path style="fill:#515262;" d="M256,220.69L256,220.69c-4.875,0-8.828-3.953-8.828-8.828V26.483c0-4.875,3.953-8.828,8.828-8.828
		l0,0c4.875,0,8.828,3.953,8.828,8.828v185.379C264.828,216.737,260.875,220.69,256,220.69z"/>
	<path style="fill:#515262;" d="M194.207,229.517L194.207,229.517c-4.875,0-8.828-3.953-8.828-8.828V52.965
		c0-4.875,3.953-8.828,8.828-8.828l0,0c4.875,0,8.828,3.953,8.828,8.828V220.69C203.034,225.565,199.082,229.517,194.207,229.517z"
		/>
	<path style="fill:#515262;" d="M132.414,247.172L132.414,247.172c-4.875,0-8.828-3.953-8.828-8.828V105.931
		c0-4.875,3.953-8.828,8.828-8.828l0,0c4.875,0,8.828,3.953,8.828,8.828v132.414C141.241,243.22,137.289,247.172,132.414,247.172z"
		/>
	<path style="fill:#515262;" d="M379.586,247.172L379.586,247.172c-4.875,0-8.828-3.953-8.828-8.828v-88.276
		c0-4.875,3.953-8.828,8.828-8.828l0,0c4.875,0,8.828,3.953,8.828,8.828v88.276C388.414,243.22,384.461,247.172,379.586,247.172z"/>
	<path style="fill:#515262;" d="M317.793,229.517L317.793,229.517c-4.875,0-8.828-3.953-8.828-8.828V52.965
		c0-4.875,3.953-8.828,8.828-8.828l0,0c4.875,0,8.828,3.953,8.828,8.828V220.69C326.621,225.565,322.668,229.517,317.793,229.517z"
		/>
</g>
<circle style="fill:#464655;" cx="207.448" cy="388.414" r="8.828"/>
<g>
	<circle style="fill:#707487;" cx="132.414" cy="238.345" r="8.828"/>
	<circle style="fill:#707487;" cx="132.414" cy="105.931" r="8.828"/>
	<circle style="fill:#707487;" cx="194.207" cy="220.69" r="8.828"/>
	<circle style="fill:#707487;" cx="194.207" cy="52.965" r="8.828"/>
	<circle style="fill:#707487;" cx="256" cy="211.862" r="8.828"/>
	<circle style="fill:#707487;" cx="256" cy="26.483" r="8.828"/>
</g>
<circle style="fill:#FF6464;" cx="216.276" cy="353.103" r="8.828"/>
<g>
	<circle style="fill:#707487;" cx="317.793" cy="220.69" r="8.828"/>
	<circle style="fill:#707487;" cx="317.793" cy="52.965" r="8.828"/>
	<circle style="fill:#707487;" cx="379.586" cy="238.345" r="8.828"/>
	<circle style="fill:#707487;" cx="379.586" cy="150.069" r="8.828"/>
</g>
<path style="fill:#C7CFE2;" d="M286.896,361.931h-44.138c-4.875,0-8.828-3.953-8.828-8.828l0,0c0-4.875,3.953-8.828,8.828-8.828
	h44.138c4.875,0,8.828,3.953,8.828,8.828l0,0C295.724,357.978,291.772,361.931,286.896,361.931z"/>
<g>
</g>
<g>
</g>
<g>
</g>
<g>
</g>
<g>
</g>
<g>
</g>
<g>
</g>
<g>
</g>
<g>
</g>
<g>
</g>
<g>
</g>
<g>
</g>
<g>
</g>
<g>
</g>
<g>
</g>
</svg>
