<?xml version="1.0" encoding="iso-8859-1"?>
<!-- Generator: Adobe Illustrator 19.0.0, SVG Export Plug-In . SVG Version: 6.00 Build 0)  -->
<svg version="1.1" id="Layer_1" xmlns="http://www.w3.org/2000/svg" xmlns:xlink="http://www.w3.org/1999/xlink" x="0px" y="0px"
	 viewBox="0 0 512 512" style="enable-background:new 0 0 512 512;" xml:space="preserve">
<path style="fill:#82889D;" d="M308.967,317.793v-35.31H203.036v35.31c0,14.626-11.857,26.483-26.483,26.483l0,0v64h158.897v-64l0,0
	C320.823,344.276,308.967,332.419,308.967,317.793z"/>
<path style="fill:#D7DEED;" d="M156.277,230.759l0.717,10.151c1.074,15.202,8.115,29.163,19.32,38.311l34.273,27.98
	c8.423,6.876,18.667,10.593,29.194,10.593h32.438c10.528,0,20.772-3.717,29.195-10.593l34.273-27.98
	c11.206-9.148,18.246-23.108,19.319-38.31l0.717-10.152H156.277z"/>
<g>
	<path style="fill:#82889D;" d="M44.139,406.069v88.276c0,9.751,7.904,17.655,17.655,17.655h52.966V406.069H44.139z"/>
	<path style="fill:#82889D;" d="M397.242,406.069V512h52.966c9.751,0,17.655-7.904,17.655-17.655v-88.276H397.242z"/>
</g>
<path style="fill:#C7CFE2;" d="M129.085,102.287l3.33,56.609h247.172l3.33-56.609c2.983-50.705-37.332-93.46-88.124-93.46h-77.586
	C166.417,8.828,126.102,51.583,129.085,102.287z"/>
<g>
	<path style="fill:#959CB3;" d="M150.07,211.862l-9.614-4.807c-5.053-2.526-8.59-7.317-9.519-12.888l-5.465-32.791
		c-0.986-5.919,3.577-11.307,9.578-11.307h15.021V211.862z"/>
	<path style="fill:#959CB3;" d="M361.932,211.862l9.614-4.807c5.053-2.526,8.59-7.317,9.519-12.888l5.465-32.791
		c0.987-5.919-3.577-11.307-9.578-11.307h-15.021V211.862z"/>
</g>
<path style="fill:#E4EAF6;" d="M303.326,35.31h-6.558c-3.343,0-6.401,1.889-7.896,4.879l-3.948,7.896
	c-1.495,2.99-4.552,4.879-7.895,4.879h-42.053c-3.343,0-6.4-1.889-7.895-4.879l-3.949-7.897c-1.495-2.99-4.552-4.879-7.895-4.879
	h-6.558c-41.138,0-73.568,35.021-70.413,76.038l8.16,106.076c0.607,7.886,6.385,14.407,14.141,15.958l16.953,3.391
	c5.127,1.025,9.835,3.545,13.532,7.242l13.057,13.057c4.967,4.967,11.703,7.757,18.728,7.757h66.334
	c7.025,0,13.761-2.791,18.728-7.757l13.057-13.057c3.697-3.697,8.405-6.217,13.532-7.242l16.953-3.391
	c7.756-1.551,13.534-8.072,14.141-15.958l8.16-106.076C376.893,70.332,344.462,35.31,303.326,35.31z"/>
<path style="fill:#D7DEED;" d="M291.311,185.379l-7.203,50.424c-0.932,6.524-6.519,11.369-13.108,11.369h-29.997
	c-6.59,0-12.177-4.845-13.108-11.369l-7.204-50.424l8.828-26.483h52.965L291.311,185.379z"/>
<path style="fill:#C7CFE2;" d="M470.625,375.863l-91.038-22.76h-44.138l-79.448,88.276l-79.448-88.276h-44.138l-91.038,22.76
	c-8.754,2.188-14.893,10.051-14.893,19.074c0,6.906,3.624,13.306,9.545,16.86l65.873,39.523
	c7.977,4.786,12.857,13.406,12.857,22.709V512H256h141.241v-37.972c0-9.302,4.881-17.922,12.857-22.709l65.873-39.523
	c5.922-3.553,9.545-9.953,9.545-16.86C485.518,385.914,479.379,378.051,470.625,375.863z"/>
<g>
	<path style="fill:#D7DEED;" d="M345.255,337.692L298.78,350.97c-4.758,1.359-8.728,4.654-10.941,9.08l-16.831,33.66
		c-6.184,12.366-23.83,12.366-30.014,0l-16.83-33.661c-2.214-4.426-6.183-7.721-10.941-9.08l-46.475-13.279
		c-4.98-1.423-10.334-0.587-14.644,2.286l-19.69,13.127c0,0,26.483,70.621,123.586,97.103
		c97.103-26.483,123.586-97.103,123.586-97.103l-19.69-13.127C355.588,337.105,350.234,336.268,345.255,337.692z"/>
	<path style="fill:#D7DEED;" d="M167.725,176.552h19.676v-17.655h-19.676c-4.875,0-8.828,3.953-8.828,8.828l0,0
		C158.898,172.599,162.85,176.552,167.725,176.552z"/>
	<path style="fill:#D7DEED;" d="M344.277,158.897h-19.676v17.655h19.676c4.875,0,8.828-3.953,8.828-8.828l0,0
		C353.105,162.849,349.152,158.897,344.277,158.897z"/>
</g>
<path style="fill:#B8BFD4;" d="M220.691,176.552h17.655c4.875,0,8.828,3.953,8.828,8.828v35.31c0,4.875,3.953,8.828,8.828,8.828l0,0
	c4.875,0,8.828-3.953,8.828-8.828v-35.31c0-4.875,3.953-8.828,8.828-8.828h17.655v-17.655h-70.621V176.552z"/>
<g>
	<path style="fill:#00D2FF;" d="M227.262,192.623l-42.372-6.053c-4.783-0.683-8.337-4.78-8.337-9.613v-8.35
		c0-5.363,4.348-9.71,9.71-9.71h42.372c5.363,0,9.71,4.348,9.71,9.71v14.404C238.346,188.92,233.112,193.459,227.262,192.623z"/>
	<path style="fill:#00D2FF;" d="M284.739,192.623l42.372-6.053c4.783-0.683,8.337-4.78,8.337-9.613v-8.35
		c0-5.363-4.348-9.71-9.71-9.71h-42.372c-5.363,0-9.71,4.348-9.71,9.71v14.404C273.656,188.92,278.89,193.459,284.739,192.623z"/>
</g>
<path style="fill:#C7CFE2;" d="M273.656,291.31h-35.31c-4.875,0-8.828-3.953-8.828-8.828l0,0c0-4.875,3.953-8.828,8.828-8.828h35.31
	c4.875,0,8.828,3.953,8.828,8.828l0,0C282.484,287.358,278.531,291.31,273.656,291.31z"/>
<circle style="fill:#D7DEED;" cx="256.001" cy="450.207" r="35.31"/>
<circle style="fill:#00D2FF;" cx="256.001" cy="450.207" r="17.655"/>
<g>
	<path style="fill:#B8BFD4;" d="M194.208,494.345L194.208,494.345c-4.875,0-8.828-3.953-8.828-8.828v-17.655
		c0-4.875,3.953-8.828,8.828-8.828l0,0c4.875,0,8.828,3.953,8.828,8.828v17.655C203.036,490.392,199.083,494.345,194.208,494.345z"
		/>
	<path style="fill:#B8BFD4;" d="M158.898,494.345L158.898,494.345c-4.875,0-8.828-3.953-8.828-8.828v-17.655
		c0-4.875,3.953-8.828,8.828-8.828l0,0c4.875,0,8.828,3.953,8.828,8.828v17.655C167.725,490.392,163.773,494.345,158.898,494.345z"
		/>
	<path style="fill:#B8BFD4;" d="M353.105,494.345L353.105,494.345c-4.875,0-8.828-3.953-8.828-8.828v-17.655
		c0-4.875,3.953-8.828,8.828-8.828l0,0c4.875,0,8.828,3.953,8.828,8.828v17.655C361.932,490.392,357.98,494.345,353.105,494.345z"/>
	<path style="fill:#B8BFD4;" d="M317.794,494.345L317.794,494.345c-4.875,0-8.828-3.953-8.828-8.828v-17.655
		c0-4.875,3.953-8.828,8.828-8.828l0,0c4.875,0,8.828,3.953,8.828,8.828v17.655C326.622,490.392,322.669,494.345,317.794,494.345z"
		/>
	<path style="fill:#B8BFD4;" d="M282.484,26.483h-52.965c-4.875,0-8.828-3.953-8.828-8.828V8.828h70.621v8.828
		C291.311,22.53,287.359,26.483,282.484,26.483z"/>
</g>
<path style="fill:#959CB3;" d="M256.001,35.31L256.001,35.31c-9.751,0-17.655-7.904-17.655-17.655V8.828
	c0-4.875,3.953-8.828,8.828-8.828h17.655c4.875,0,8.828,3.953,8.828,8.828v8.828C273.656,27.406,265.752,35.31,256.001,35.31z"/>
<g>
</g>
<g>
</g>
<g>
</g>
<g>
</g>
<g>
</g>
<g>
</g>
<g>
</g>
<g>
</g>
<g>
</g>
<g>
</g>
<g>
</g>
<g>
</g>
<g>
</g>
<g>
</g>
<g>
</g>
</svg>
