<?xml version="1.0" encoding="iso-8859-1"?>
<!-- Generator: Adobe Illustrator 19.0.0, SVG Export Plug-In . SVG Version: 6.00 Build 0)  -->
<svg version="1.1" id="Layer_1" xmlns="http://www.w3.org/2000/svg" xmlns:xlink="http://www.w3.org/1999/xlink" x="0px" y="0px"
	 viewBox="0 0 512.001 512.001" style="enable-background:new 0 0 512.001 512.001;" xml:space="preserve">
<path style="fill:#EDEEF0;" d="M461.671,145.564L359.596,247.639l-95.283,209.579c-8.999,19.794-27.144,33.927-48.539,37.806
	s-43.347-2.985-58.722-18.36L19.424,339.035C4.057,323.669-2.808,301.727,1.058,280.343c3.868-21.385,17.982-39.533,37.757-48.544
	l209.473-95.459L350.367,34.261L461.671,145.564z"/>
<path style="fill:#DCDEE2;" d="M264.313,457.218l95.283-209.579l102.075-102.075l-55.652-55.652L88.161,407.771l68.893,68.893
	c15.374,15.374,37.327,22.239,58.722,18.36C237.169,491.146,255.315,477.013,264.313,457.218z"/>
<rect x="288.747" y="112.475" transform="matrix(0.7071 0.7071 -0.7071 0.7071 198.4765 -222.1945)" style="fill:#D8D9DD;" width="157.408" height="32.02"/>
<rect x="355.925" y="140.296" transform="matrix(0.7071 0.7071 -0.7071 0.7071 226.2979 -233.7203)" style="fill:#B7B9C0;" width="78.699" height="32.02"/>
<rect x="286.244" y="81.797" transform="matrix(0.7071 0.7071 -0.7071 0.7071 189.3096 -244.3307)" style="fill:#EDEEF0;" width="206.688" height="49.11"/>
<polygon style="fill:#DCDEE2;" points="445.296,196.787 372.22,123.711 407.028,89.067 480.022,162.061 "/>
<path style="fill:#9ED04D;" d="M237.627,445.085l97.481-214.418l27.304-27.303l-126.207-29.3L50.973,258.475
	c-11.197,5.102-18.875,14.975-21.064,27.084c-2.189,12.11,1.545,24.045,10.246,32.746l137.629,137.63
	c8.706,8.706,20.647,12.439,32.762,10.242C222.66,463.981,232.53,456.293,237.627,445.085z"/>
<path style="fill:#86B143;" d="M237.627,445.085l97.481-214.418l27.304-27.303l-56.684-13.16L108.89,387.042l68.893,68.893
	c8.706,8.706,20.647,12.439,32.762,10.242C222.66,463.981,232.53,456.293,237.627,445.085z"/>
<g>
	<circle style="fill:#FFFFFF;" cx="80.25" cy="295.241" r="18.19"/>
	<circle style="fill:#FFFFFF;" cx="226.17" cy="226.031" r="18.19"/>
</g>
<g>
	<circle style="fill:#EDEEF0;" cx="195.88" cy="420.861" r="18.19"/>
	<circle style="fill:#EDEEF0;" cx="235.04" cy="339.891" r="12.861"/>
	<circle style="fill:#EDEEF0;" cx="308.93" cy="223.711" r="12.861"/>
</g>
<circle style="fill:#FFFFFF;" cx="151.31" cy="286.281" r="12.861"/>
<path style="fill:#9ED04D;" d="M469.975,275.039c0,0,42.026,46.6,42.026,79.5c0,23.21-18.816,42.026-42.026,42.026
	s-42.026-18.816-42.026-42.026C427.948,321.637,469.975,275.039,469.975,275.039z"/>
<path style="fill:#86B143;" d="M469.975,275.039c0,0,42.026,46.6,42.026,79.5c0,23.21-18.816,42.026-42.026,42.026
	C469.975,366.226,469.975,275.039,469.975,275.039z"/>
<g>
</g>
<g>
</g>
<g>
</g>
<g>
</g>
<g>
</g>
<g>
</g>
<g>
</g>
<g>
</g>
<g>
</g>
<g>
</g>
<g>
</g>
<g>
</g>
<g>
</g>
<g>
</g>
<g>
</g>
</svg>
