<?xml version="1.0" encoding="iso-8859-1"?>
<!-- Generator: Adobe Illustrator 19.0.0, SVG Export Plug-In . SVG Version: 6.00 Build 0)  -->
<svg version="1.1" id="Layer_1" xmlns="http://www.w3.org/2000/svg" xmlns:xlink="http://www.w3.org/1999/xlink" x="0px" y="0px"
	 viewBox="0 0 512 512" style="enable-background:new 0 0 512 512;" xml:space="preserve">
<path style="fill:#FFCD9B;" d="M214.033,485.027C214.033,499.923,232.822,512,256,512s41.967-12.076,41.967-26.973L214.033,485.027
	L214.033,485.027z"/>
<path style="fill:#FFDEB7;" d="M440.656,329.137H256H71.344c0,0-33.574,33.574-33.574,67.148c0,0,117.508-67.148,142.689,41.967
	c5.103,22.116,8.393,75.541,75.541,50.361c67.148,25.18,70.438-28.245,75.541-50.361c25.18-109.115,142.689-41.967,142.689-41.967
	C474.229,362.711,440.656,329.137,440.656,329.137z"/>
<path style="fill:#FF8C46;" d="M298.596,159.475c0,0,125.902-159.475,167.869-159.475c25.18,0-16.787,201.443-41.967,268.59
	L298.596,159.475z"/>
<path style="fill:#FFA54B;" d="M466.465,0C382.53,58.754,348.956,201.443,348.956,201.443l-2.889-0.826l-47.471-41.141
	C298.596,159.475,424.497,0,466.465,0z"/>
<path style="fill:#FF8C46;" d="M205.01,159.475C205.01,159.475,79.108,0,37.141,0c-25.18,0,16.787,201.443,41.967,268.59
	L205.01,159.475z"/>
<g>
	<path style="fill:#FFA54B;" d="M37.141,0c83.934,58.754,117.508,201.443,117.508,201.443l2.889-0.826l47.471-41.141
		C205.01,159.475,79.108,0,37.141,0z"/>
	<path style="fill:#FFA54B;" d="M12.59,386.098c0,0,92.328-58.754,159.475-16.787c35.588,22.243,25.18,83.585,83.934,83.585
		s48.346-61.342,83.934-83.585c67.148-41.967,159.475,16.787,159.475,16.787c-41.967-151.082-148.476-251.803-243.409-251.803
		S54.557,235.016,12.59,386.098z"/>
</g>
<g>
	<circle style="fill:#464655;" cx="188.852" cy="327.344" r="16.787"/>
	<circle style="fill:#464655;" cx="323.148" cy="327.344" r="16.787"/>
	<path style="fill:#464655;" d="M285.377,448.174c0,10.14-13.153,25.705-29.377,25.705s-29.377-15.565-29.377-25.705
		c0-10.14,13.153-18.361,29.377-18.361C272.224,429.813,285.377,438.034,285.377,448.174z"/>
</g>
<g>
</g>
<g>
</g>
<g>
</g>
<g>
</g>
<g>
</g>
<g>
</g>
<g>
</g>
<g>
</g>
<g>
</g>
<g>
</g>
<g>
</g>
<g>
</g>
<g>
</g>
<g>
</g>
<g>
</g>
</svg>
