<?xml version="1.0" encoding="iso-8859-1"?>
<!-- Generator: Adobe Illustrator 19.0.0, SVG Export Plug-In . SVG Version: 6.00 Build 0)  -->
<svg version="1.1" id="Layer_1" xmlns="http://www.w3.org/2000/svg" xmlns:xlink="http://www.w3.org/1999/xlink" x="0px" y="0px"
	 viewBox="0 0 512.001 512.001" style="enable-background:new 0 0 512.001 512.001;" xml:space="preserve">
<path style="fill:#6EA58C;" d="M503.743,202.323c0,39.914-15.185,102.966-31.967,140.387
	c-18.98,42.323-94.901,82.581-215.775,82.581S59.205,385.033,40.225,342.71C23.443,305.289,8.258,242.236,8.258,202.323H503.743z"/>
<g>
	<path style="fill:#FFEBD2;" d="M132.129,334.283c-4.735,10.653-7.433,32.758-3.172,55.153c0.566,2.974,4.765,3.293,5.754,0.431
		c4.684-13.544,15.105-36.498,34.086-45.859L132.129,334.283z"/>
	<path style="fill:#FFEBD2;" d="M170.846,358.947c0,10.736,2.59,28.38,4.42,39.506c0.485,2.948,4.517,3.402,5.641,0.635
		c4.867-11.987,13.093-32.032,17.285-41.031L170.846,358.947z"/>
	<path style="fill:#FFEBD2;" d="M379.872,334.283c4.735,10.653,7.433,32.758,3.172,55.153c-0.566,2.974-4.765,3.293-5.754,0.431
		c-4.684-13.544-15.105-36.498-34.086-45.859L379.872,334.283z"/>
	<path style="fill:#FFEBD2;" d="M341.154,358.947c0,10.736-2.59,28.38-4.42,39.506c-0.485,2.948-4.517,3.402-5.641,0.635
		c-4.867-11.987-13.093-32.032-17.285-41.031L341.154,358.947z"/>
</g>
<path style="fill:#7DB9A0;" d="M478.969,152.775c-41.29-24.774-71.405-44.851-90.839-57.807c-24.774-16.516-41.29,0-49.548,0
	c-11.678,0-57.807-8.258-82.581-8.258c-24.774,0-70.902,8.258-82.581,8.258c-8.258,0-24.774-16.516-49.548,0
	C104.437,107.924,74.323,128,33.032,152.775c-20.643,12.386-33.03,28.9-33.032,41.29c-0.002,12.392,11.72,16.543,24.774,16.543
	c41.29,0,49.548,33.005,82.581,90.812c21.901,38.327,24.774,74.323,148.645,74.323s126.744-35.996,148.645-74.323
	c33.032-57.807,41.29-90.812,82.581-90.812c13.054,0,24.776-4.15,24.774-16.543C511.999,181.675,499.612,165.16,478.969,152.775z"/>
<path style="fill:#96D2AF;" d="M385.713,93.522c-23.422-13.899-39.148,1.446-47.132,1.446c-11.678,0-57.807-8.258-82.581-8.258
	c-24.774,0-70.902,8.258-82.581,8.258c-7.983,0-23.711-15.346-47.132-1.446c11.818,26.306,47.132,28.068,47.132,50.995
	c0,30.927-40.502,154.785-29.437,208.809c18.999,13.575,50.65,22.418,112.018,22.418s93.019-8.841,112.018-22.418
	c11.065-54.023-29.437-177.882-29.437-208.809C338.581,121.59,373.894,119.828,385.713,93.522z"/>
<g>
	<circle style="fill:#464655;" cx="132.129" cy="144.516" r="16.516"/>
	<circle style="fill:#464655;" cx="379.872" cy="144.516" r="16.516"/>
</g>
<g>
</g>
<g>
</g>
<g>
</g>
<g>
</g>
<g>
</g>
<g>
</g>
<g>
</g>
<g>
</g>
<g>
</g>
<g>
</g>
<g>
</g>
<g>
</g>
<g>
</g>
<g>
</g>
<g>
</g>
</svg>
