<?xml version="1.0" encoding="iso-8859-1"?>
<!-- Generator: Adobe Illustrator 19.0.0, SVG Export Plug-In . SVG Version: 6.00 Build 0)  -->
<svg version="1.1" id="Capa_1" xmlns="http://www.w3.org/2000/svg" xmlns:xlink="http://www.w3.org/1999/xlink" x="0px" y="0px"
	 viewBox="0 0 512 512" style="enable-background:new 0 0 512 512;" xml:space="preserve">
<g>
	<path style="fill:#00BBBB;" d="M424.672,280.93c-3.027,0.245-5.985,0.551-8.911,0.884c0.155,2.042,0.24,4.104,0.24,6.186
		c0,44.109-35.891,80-80,80c-21.027,0-41.193-8.324-56.102-22.983C272.796,349.555,264.566,352,256,352v80h32c4.422,0,8,3.578,8,8
		s-3.578,8-8,8h-32v64c29.625,0,72.719-26.742,109.797-68.133c43.661-48.73,73.781-111.072,85.026-175.805
		C444.25,275.323,435.028,280.085,424.672,280.93z"/>
	<path style="fill:#52798F;" d="M224,448c-4.422,0-8-3.578-8-8s3.578-8,8-8h32v-80c-8.565,0-16.795-2.445-23.897-6.982
		C217.193,359.678,197.023,368,176,368c-44.109,0-80-35.891-80-80c0-2.082,0.084-4.144,0.24-6.186
		c-2.927-0.333-5.885-0.639-8.912-0.884c-10.354-0.844-19.576-5.604-26.148-12.865C87.041,417.096,203.263,512,256,512v-64H224z"/>
	<path style="fill:#FFCF00;" d="M183.953,309.094c0.028,0.961,0.047,1.927,0.047,2.906c0,22.091-7.164,40-16,40
		c-8.837,0-16-17.909-16-40c0-6.017,0.535-11.719,1.487-16.838c-16.417-6.042-35.454-10.87-57.247-13.349
		C96.084,283.856,96,285.918,96,288c0,44.109,35.891,80,80,80c21.023,0,41.193-8.322,56.103-22.982
		c-2.602-1.662-5.056-3.597-7.314-5.807C216.113,330.708,202.66,319.484,183.953,309.094z"/>
	<path style="fill:#FFCF00;" d="M416,288c0-2.082-0.084-4.144-0.24-6.186c-21.793,2.479-40.83,7.306-57.247,13.348
		C359.465,300.281,360,305.983,360,312c0,22.091-7.163,40-16,40c-8.836,0-16-17.909-16-40c0-0.979,0.019-1.946,0.047-2.907
		c-18.707,10.389-32.16,21.611-40.835,30.11v0.008c-2.258,2.21-4.712,4.144-7.313,5.806C294.807,359.675,314.973,368,336,368
		C380.109,368,416,332.109,416,288z"/>
	<path style="fill:#5C546A;" d="M216,440c0,4.422,3.578,8,8,8h32h32c4.422,0,8-3.578,8-8s-3.578-8-8-8h-32h-32
		C219.578,432,216,435.578,216,440z"/>
	<path style="fill:#FFFFFF;" d="M168,352c8.836,0,16-17.909,16-40c0-0.978-0.019-1.945-0.047-2.906
		c-8.938-4.964-19.071-9.737-30.467-13.932C152.535,300.281,152,305.983,152,312C152,334.091,159.163,352,168,352z"/>
	<path style="fill:#FFFFFF;" d="M344,352c8.837,0,16-17.909,16-40c0-6.017-0.535-11.719-1.487-16.838
		c-11.396,4.194-21.529,8.967-30.467,13.931C328.019,310.054,328,311.021,328,312C328,334.091,335.163,352,344,352z"/>
	<path style="fill:#00E389;" d="M464,208C464,93.305,370.695,0,256,0v256v96c8.566,0,16.796-2.445,23.897-6.983
		c2.601-1.662,5.056-3.597,7.313-5.806v-0.008c8.676-8.499,22.129-19.721,40.835-30.11c8.938-4.964,19.071-9.736,30.467-13.931
		c16.417-6.042,35.454-10.869,57.247-13.348c2.927-0.333,5.885-0.639,8.911-0.884c10.356-0.845,19.579-5.606,26.151-12.867
		c5.039-5.568,8.521-12.604,9.755-20.476C462.914,232.695,464,220.117,464,208z"/>
	<path style="fill:#00BBBB;" d="M87.328,280.93c3.027,0.245,5.985,0.551,8.912,0.884c21.793,2.479,40.83,7.306,57.247,13.349
		c11.396,4.194,21.529,8.968,30.467,13.932c18.707,10.39,32.16,21.614,40.836,30.117c2.258,2.21,4.712,4.145,7.314,5.807
		C239.205,349.555,247.435,352,256,352v-96V0C141.305,0,48,93.305,48,208c0,12.109,1.086,24.688,3.422,39.578
		c1.234,7.878,4.718,14.917,9.759,20.487C67.752,275.325,76.974,280.085,87.328,280.93z"/>
</g>
<g>
</g>
<g>
</g>
<g>
</g>
<g>
</g>
<g>
</g>
<g>
</g>
<g>
</g>
<g>
</g>
<g>
</g>
<g>
</g>
<g>
</g>
<g>
</g>
<g>
</g>
<g>
</g>
<g>
</g>
</svg>
